<svg width="32" height="24" viewBox="0 0 32 24" fill="none" xmlns="http://www.w3.org/2000/svg">
<g clip-path="url(#clip0_42_482)">
<path fill-rule="evenodd" clip-rule="evenodd" d="M8 0H32V24H8V0Z" fill="#EF0000"/>
<path fill-rule="evenodd" clip-rule="evenodd" d="M0 0H12V24H0V0Z" fill="#2F8D00"/>
<mask id="mask0_42_482" style="mask-type:luminance" maskUnits="userSpaceOnUse" x="4" y="4" width="16" height="16">
<path fill-rule="evenodd" clip-rule="evenodd" d="M11.9049 19.807C7.64494 19.807 4.18994 16.312 4.18994 12C4.18994 7.68799 7.64394 4.19299 11.9049 4.19299C16.1659 4.19299 19.6189 7.68799 19.6189 12C19.6189 16.312 16.1649 19.807 11.9049 19.807Z" fill="white"/>
</mask>
<g mask="url(#mask0_42_482)">
<path fill-rule="evenodd" clip-rule="evenodd" d="M11.429 4H12.429V6.699H11.429V4ZM11.429 17.494H12.429V20H11.429V17.494Z" fill="#FFE017"/>
<path d="M4.31394 12.404L4.03394 11.687C7.1186 10.455 9.44994 9.66032 11.0279 9.30299C13.3466 8.77765 15.8939 8.38865 18.6699 8.13599L18.7379 8.90399C15.9939 9.15332 13.4796 9.53699 11.1949 10.055C9.66194 10.402 7.36394 11.185 4.31394 12.404Z" fill="#FFE017"/>
<path d="M19.14 7.66395L18.914 8.39995C16.5806 7.66461 14.6836 7.34628 13.223 7.44495L13.173 6.67595C14.739 6.57195 16.7283 6.90128 19.141 7.66395M19.948 11.7799L19.517 12.4159C18.327 11.5899 16.863 11.1759 15.113 11.1759V10.4049C17.0123 10.4043 18.624 10.8626 19.948 11.7799Z" fill="#FFE017"/>
<path d="M19.3019 12.01L19.4989 12.755C16.9362 13.4497 14.5302 13.8433 12.2809 13.936C10.0162 14.0293 7.37555 13.635 4.35889 12.753L4.56989 12.013C7.51455 12.871 10.0746 13.2553 12.2499 13.166C14.4399 13.076 16.7906 12.69 19.3019 12.01Z" fill="#FFE017"/>
<path d="M19.0119 15.6359L17.8069 16.8709C15.5189 14.5839 13.5039 12.9489 11.7749 11.9669C10.0162 10.9669 7.72457 9.95361 4.8999 8.92695L5.4789 7.29395C8.38557 8.34928 10.7639 9.40261 12.6139 10.4539C14.4939 11.5219 16.6229 13.2489 19.0119 15.6359ZM5.4579 16.3349L5.0019 15.7169C5.37869 15.446 5.77588 15.2046 6.1899 14.9949C7.0399 14.5649 7.8929 14.2949 8.7069 14.2699L8.8259 14.2679V15.0389L8.7299 15.0409C8.0439 15.0609 7.2909 15.2989 6.5319 15.6849C6.15837 15.8748 5.79939 16.0921 5.4579 16.3349Z" fill="#FFE017"/>
<path d="M5.8119 16.603L6.0039 15.856C8.5439 16.526 10.5019 16.859 11.8689 16.859C13.2309 16.859 15.2569 16.465 17.9359 15.676L18.1489 16.416C15.4069 17.224 13.3189 17.63 11.8689 17.63C10.4249 17.63 8.4089 17.287 5.8119 16.603ZM4.8219 9.69404L6.0299 8.46204L7.7979 10.236L6.5909 11.468L4.8219 9.69404Z" fill="#FFE017"/>
<path d="M14.8359 15.848L15.7339 14.37L18.5369 16.114L17.6399 17.592L14.8359 15.848Z" fill="#FFE017"/>
</g>
<path fill-rule="evenodd" clip-rule="evenodd" d="M4.18994 12C4.18994 16.312 7.64394 19.807 11.9049 19.807C16.1659 19.807 19.6189 16.312 19.6189 12C19.6189 7.68799 16.1649 4.19299 11.9049 4.19299C7.64494 4.19299 4.18994 7.68799 4.18994 12ZM18.6669 12.096C18.6669 15.823 15.6819 18.843 11.9999 18.843C8.31794 18.843 5.33294 15.823 5.33294 12.096C5.33294 8.36899 8.31794 5.34999 11.9999 5.34999C15.6819 5.34999 18.6669 8.37099 18.6669 12.097" fill="#F9E813"/>
<path d="M7.65698 7.18506V13.4461C8.06898 15.9241 9.45732 17.1631 11.822 17.1631C14.1866 17.1631 15.575 15.9241 15.987 13.4461V7.18606L7.65698 7.18506Z" fill="white"/>
<path d="M7.08496 6.60706H16.559V13.4941L16.551 13.5421C16.093 16.2941 14.471 17.7421 11.822 17.7421C9.17296 17.7421 7.55096 16.2941 7.09296 13.5421L7.08496 13.4941V6.60706Z" fill="#C51918"/>
<path d="M9.25195 8.70996H14.392V13.152C14.392 13.152 14.011 15.445 11.822 15.445C9.63295 15.445 9.25195 13.152 9.25195 13.152V8.70996Z" fill="#F7FCFF"/>
<path fill-rule="evenodd" clip-rule="evenodd" d="M8 7.08398H8.723V7.56598H8V7.08398Z" fill="#F9E813"/>
<path fill-rule="evenodd" clip-rule="evenodd" d="M7.61902 7.27698H8.95202V7.51798H7.62002L7.61902 7.27698Z" fill="#060101"/>
<path fill-rule="evenodd" clip-rule="evenodd" d="M7.61902 7.46997H8.34202V7.70997H7.61902V7.46997ZM8.38102 7.46997H9.10402V7.70997H8.38002L8.38102 7.46997ZM7.61902 8.04797H8.10102V8.77097H7.61902V8.04797ZM8.57102 8.04797H9.05302V8.77097H8.57102V8.04797ZM8.19002 8.04797H8.43102V8.77097H8.19102L8.19002 8.04797Z" fill="#F9E813"/>
<path fill-rule="evenodd" clip-rule="evenodd" d="M7.61902 7.85498H8.95202V8.09598H7.62002L7.61902 7.85498ZM7.61902 8.43398H8.95202V8.67398H7.62002L7.61902 8.43398Z" fill="#060101"/>
<path fill-rule="evenodd" clip-rule="evenodd" d="M7.81006 7.66298H8.05006V7.90298H7.81006V7.66298ZM8.57106 7.66298H8.81206V7.90298H8.57206L8.57106 7.66298ZM8.19006 7.46998H8.43106V7.95198H8.19106L8.19006 7.46998ZM11.6191 7.08398H12.3421V7.56598H11.6191V7.08398Z" fill="#F9E813"/>
<path fill-rule="evenodd" clip-rule="evenodd" d="M11.238 7.27698H12.571V7.51798H11.238V7.27698Z" fill="#060101"/>
<path fill-rule="evenodd" clip-rule="evenodd" d="M11.238 7.46997H11.961V7.70997H11.238V7.46997ZM12 7.46997H12.723V7.70997H12V7.46997ZM11.238 8.04797H11.72V8.77097H11.238V8.04797ZM12.19 8.04797H12.672V8.77097H12.19V8.04797ZM11.81 8.04797H12.05V8.77097H11.81V8.04797Z" fill="#F9E813"/>
<path fill-rule="evenodd" clip-rule="evenodd" d="M11.238 7.85498H12.571V8.09598H11.238V7.85498ZM11.238 8.43398H12.571V8.67398H11.238V8.43398Z" fill="#060101"/>
<path fill-rule="evenodd" clip-rule="evenodd" d="M11.429 7.66298H11.669V7.90298H11.429V7.66298ZM12.19 7.66298H12.431V7.90298H12.191L12.19 7.66298ZM11.81 7.46998H12.05V7.95198H11.81V7.46998ZM15.048 7.08398H15.771V7.56598H15.048V7.08398Z" fill="#F9E813"/>
<path fill-rule="evenodd" clip-rule="evenodd" d="M14.667 7.27698H16V7.51798H14.667V7.27698Z" fill="#060101"/>
<path fill-rule="evenodd" clip-rule="evenodd" d="M14.667 7.46997H15.39V7.70997H14.667V7.46997ZM15.429 7.46997H16.151V7.70997H15.429V7.46997ZM14.667 8.04797H15.149V8.77097H14.667V8.04797ZM15.619 8.04797H16.101V8.77097H15.619V8.04797ZM15.238 8.04797H15.479V8.77097H15.238V8.04797Z" fill="#F9E813"/>
<path fill-rule="evenodd" clip-rule="evenodd" d="M14.667 7.85498H16V8.09598H14.667V7.85498ZM14.667 8.43398H16V8.67398H14.667V8.43398Z" fill="#060101"/>
<path fill-rule="evenodd" clip-rule="evenodd" d="M14.8571 7.66297H15.0981V7.90297H14.8581L14.8571 7.66297ZM15.6191 7.66297H15.8601V7.90297H15.6191V7.66297ZM15.2381 7.46997H15.4791V7.95197H15.2381V7.46997ZM15.0481 10.554H15.7711V11.036H15.0481V10.554Z" fill="#F9E813"/>
<path fill-rule="evenodd" clip-rule="evenodd" d="M14.667 10.7469H16V10.9879H14.667V10.7469Z" fill="#060101"/>
<path fill-rule="evenodd" clip-rule="evenodd" d="M14.667 10.9399H15.39V11.1799H14.667V10.9399ZM15.429 10.9399H16.151V11.1799H15.429V10.9399ZM14.667 11.5179H15.149V12.2409H14.667V11.5179ZM15.619 11.5179H16.101V12.2409H15.619V11.5179ZM15.238 11.5179H15.479V12.2409H15.238V11.5179Z" fill="#F9E813"/>
<path fill-rule="evenodd" clip-rule="evenodd" d="M14.667 11.325H16V11.566H14.667V11.325ZM14.667 11.904H16V12.144H14.667V11.904Z" fill="#060101"/>
<path fill-rule="evenodd" clip-rule="evenodd" d="M14.857 11.133H15.098V11.373H14.858L14.857 11.133ZM15.619 11.133H15.86V11.373H15.619V11.133ZM15.238 10.94H15.479V11.422H15.238V10.94ZM8 10.554H8.723V11.036H8V10.554Z" fill="#F9E813"/>
<path fill-rule="evenodd" clip-rule="evenodd" d="M7.61902 10.7469H8.95202V10.9879H7.62002L7.61902 10.7469Z" fill="#060101"/>
<path fill-rule="evenodd" clip-rule="evenodd" d="M7.61902 10.9399H8.34202V11.1799H7.61902V10.9399ZM8.38102 10.9399H9.10402V11.1799H8.38002L8.38102 10.9399ZM7.61902 11.5179H8.10102V12.2409H7.61902V11.5179ZM8.57102 11.5179H9.05302V12.2409H8.57102V11.5179ZM8.19002 11.5179H8.43102V12.2409H8.19102L8.19002 11.5179Z" fill="#F9E813"/>
<path fill-rule="evenodd" clip-rule="evenodd" d="M7.61902 11.325H8.95202V11.566H7.62002L7.61902 11.325ZM7.61902 11.904H8.95202V12.144H7.62002L7.61902 11.904Z" fill="#060101"/>
<path fill-rule="evenodd" clip-rule="evenodd" d="M7.81006 11.1329H8.05006V11.3729H7.81006V11.1329ZM8.57106 11.1329H8.81206V11.3729H8.57206L8.57106 11.1329ZM8.19006 10.9399H8.43106V11.4219H8.19106L8.19006 10.9399ZM8.46406 14.9039L8.92806 14.3499L9.29806 14.6599L8.83306 15.2139L8.46406 14.9039Z" fill="#F9E813"/>
<path fill-rule="evenodd" clip-rule="evenodd" d="M8.36694 15.32L9.22394 14.298L9.40794 14.453L8.55094 15.475L8.36694 15.32Z" fill="#060101"/>
<path fill-rule="evenodd" clip-rule="evenodd" d="M8.51404 15.444L8.97904 14.89L9.16304 15.045L8.69904 15.598L8.51404 15.444ZM9.00404 14.86L9.46904 14.306L9.65304 14.461L9.18804 15.015L9.00404 14.86ZM8.95704 15.815L9.26704 15.446L9.82104 15.911L9.51104 16.28L8.95704 15.815ZM9.57004 15.086L9.88004 14.716L10.433 15.181L10.123 15.551L9.57004 15.086ZM9.32504 15.378L9.47904 15.193L10.033 15.658L9.87804 15.842L9.32504 15.378Z" fill="#F9E813"/>
<path fill-rule="evenodd" clip-rule="evenodd" d="M8.81006 15.691L9.66706 14.67L9.85106 14.825L8.99406 15.846L8.81006 15.691ZM9.25306 16.063L10.1101 15.042L10.2941 15.197L9.43706 16.218L9.25306 16.063Z" fill="#060101"/>
<path fill-rule="evenodd" clip-rule="evenodd" d="M8.78406 15.4219L8.93906 15.2369L9.12406 15.3919L8.96906 15.5759L8.78406 15.4219ZM9.27406 14.8379L9.42906 14.6529L9.61406 14.8079L9.45906 14.9929L9.27406 14.8379ZM8.88106 15.0059L9.03606 14.8209L9.40606 15.1309L9.25106 15.3159L8.88106 15.0059ZM14.9781 14.4659L15.4431 15.0199L15.0731 15.3299L14.6091 14.7759L14.9781 14.4659Z" fill="#F9E813"/>
<path fill-rule="evenodd" clip-rule="evenodd" d="M14.586 14.298L15.443 15.32L15.258 15.475L14.401 14.453L14.586 14.298Z" fill="#060101"/>
<path fill-rule="evenodd" clip-rule="evenodd" d="M14.438 14.422L14.903 14.976L14.718 15.131L14.254 14.577L14.438 14.422ZM14.928 15.006L15.393 15.56L15.208 15.714L14.743 15.161L14.928 15.006ZM13.995 14.794L14.305 15.164L13.751 15.628L13.441 15.258L13.995 14.794ZM14.607 15.524L14.917 15.893L14.363 16.357L14.053 15.988L14.607 15.524ZM14.362 15.232L14.517 15.416L13.964 15.881L13.809 15.696L14.362 15.232Z" fill="#F9E813"/>
<path fill-rule="evenodd" clip-rule="evenodd" d="M14.143 14.67L15 15.691L14.815 15.846L13.958 14.825L14.143 14.67ZM13.7 15.042L14.557 16.063L14.372 16.218L13.515 15.197L13.7 15.042Z" fill="#060101"/>
<path fill-rule="evenodd" clip-rule="evenodd" d="M14.413 14.692L14.568 14.877L14.383 15.031L14.228 14.847L14.413 14.692ZM14.903 15.276L15.058 15.46L14.873 15.615L14.718 15.431L14.903 15.276ZM14.806 14.86L14.96 15.044L14.591 15.354L14.436 15.17L14.806 14.86Z" fill="#F9E813"/>
<path fill-rule="evenodd" clip-rule="evenodd" d="M12.558 9.20496H11.238V10.166C11.238 10.166 11.336 10.663 11.898 10.663C12.46 10.663 12.558 10.166 12.558 10.166V9.20496ZM11.81 9.58996C11.8104 9.61524 11.8058 9.64035 11.7964 9.66382C11.7869 9.68729 11.7729 9.70863 11.7551 9.72661C11.7373 9.74458 11.7161 9.75883 11.6928 9.7685C11.6694 9.77818 11.6443 9.78309 11.619 9.78296C11.5938 9.78296 11.5689 9.77795 11.5456 9.76821C11.5224 9.75848 11.5013 9.74421 11.4836 9.72625C11.4659 9.70829 11.452 9.68699 11.4426 9.66359C11.4333 9.64019 11.4286 9.61516 11.429 9.58996C11.429 9.48396 11.514 9.39796 11.619 9.39796C11.724 9.39796 11.809 9.48396 11.809 9.58996M11.618 10.554C11.723 10.554 11.808 10.468 11.808 10.361C11.8083 10.3358 11.8036 10.3109 11.7942 10.2876C11.7847 10.2643 11.7708 10.2432 11.7531 10.2253C11.7354 10.2075 11.7144 10.1933 11.6912 10.1836C11.668 10.1739 11.6432 10.169 11.618 10.169C11.5929 10.169 11.5681 10.1739 11.5449 10.1836C11.5217 10.1933 11.5007 10.2075 11.483 10.2253C11.4653 10.2432 11.4514 10.2643 11.4419 10.2876C11.4325 10.3109 11.4278 10.3358 11.428 10.361C11.428 10.468 11.513 10.554 11.618 10.554ZM12.38 10.361C12.3804 10.3862 12.3758 10.4112 12.3665 10.4346C12.3571 10.458 12.3432 10.4793 12.3255 10.4972C12.3078 10.5152 12.2867 10.5295 12.2635 10.5392C12.2402 10.5489 12.2153 10.554 12.19 10.554C12.1648 10.5541 12.1397 10.5492 12.1163 10.5395C12.093 10.5298 12.0718 10.5156 12.054 10.4976C12.0362 10.4796 12.0222 10.4583 12.0127 10.4348C12.0033 10.4114 11.9986 10.3862 11.999 10.361C11.999 10.255 12.084 10.169 12.189 10.169C12.2142 10.169 12.239 10.1739 12.2622 10.1836C12.2854 10.1933 12.3064 10.2075 12.3241 10.2253C12.3418 10.2432 12.3557 10.2643 12.3652 10.2876C12.3746 10.3109 12.3793 10.3358 12.379 10.361M11.903 10.169C12.008 10.169 12.093 10.082 12.093 9.97596C12.0934 9.95075 12.0888 9.92572 12.0795 9.90232C12.0701 9.87893 12.0562 9.85762 12.0385 9.83966C12.0208 9.8217 11.9997 9.80744 11.9765 9.7977C11.9532 9.78797 11.9283 9.78295 11.903 9.78296C11.8778 9.78295 11.8529 9.78797 11.8296 9.7977C11.8064 9.80744 11.7853 9.8217 11.7676 9.83966C11.7499 9.85762 11.736 9.87893 11.7266 9.90232C11.7173 9.92572 11.7126 9.95075 11.713 9.97596C11.713 10.082 11.798 10.169 11.903 10.169ZM12.379 9.58996C12.3794 9.61516 12.3748 9.64019 12.3655 9.66359C12.3561 9.68699 12.3422 9.70829 12.3245 9.72625C12.3068 9.74421 12.2857 9.75848 12.2625 9.76821C12.2392 9.77795 12.2143 9.78296 12.189 9.78296C12.1639 9.78283 12.1391 9.77772 12.1159 9.76792C12.0928 9.75813 12.0719 9.74384 12.0543 9.72589C12.0367 9.70795 12.0229 9.68669 12.0135 9.66336C12.0042 9.64002 11.9997 9.61507 12 9.58996C12 9.48396 12.085 9.39796 12.19 9.39796C12.2152 9.39795 12.24 9.40293 12.2632 9.41261C12.2864 9.42228 12.3074 9.43646 12.3251 9.45431C12.3428 9.47217 12.3567 9.49335 12.3662 9.51663C12.3756 9.53992 12.3803 9.56484 12.38 9.58996M12.558 11.325H11.238V12.287C11.238 12.287 11.336 12.783 11.898 12.783C12.46 12.783 12.558 12.287 12.558 12.287V11.325ZM11.81 11.711C11.8104 11.7362 11.8058 11.7614 11.7964 11.7848C11.7869 11.8083 11.7729 11.8296 11.7551 11.8476C11.7373 11.8656 11.7161 11.8798 11.6928 11.8895C11.6694 11.8992 11.6443 11.9041 11.619 11.904C11.5938 11.904 11.5689 11.8989 11.5456 11.8892C11.5224 11.8795 11.5013 11.8652 11.4836 11.8472C11.4659 11.8293 11.452 11.808 11.4426 11.7846C11.4333 11.7612 11.4286 11.7362 11.429 11.711C11.429 11.604 11.514 11.518 11.619 11.518C11.724 11.518 11.809 11.604 11.809 11.711M11.618 12.675C11.723 12.675 11.808 12.588 11.808 12.482C11.8084 12.4568 11.8038 12.4317 11.7945 12.4083C11.7851 12.3849 11.7712 12.3636 11.7535 12.3457C11.7358 12.3277 11.7147 12.3134 11.6915 12.3037C11.6682 12.294 11.6433 12.289 11.618 12.289C11.5928 12.289 11.5679 12.294 11.5446 12.3037C11.5214 12.3134 11.5003 12.3277 11.4826 12.3457C11.4649 12.3636 11.451 12.3849 11.4416 12.4083C11.4323 12.4317 11.4277 12.4568 11.428 12.482C11.428 12.588 11.513 12.675 11.618 12.675ZM12.38 12.482C12.3804 12.5072 12.3758 12.5322 12.3665 12.5556C12.3571 12.579 12.3432 12.6003 12.3255 12.6182C12.3078 12.6362 12.2867 12.6505 12.2635 12.6602C12.2402 12.6699 12.2153 12.675 12.19 12.675C12.1648 12.6751 12.1397 12.6702 12.1163 12.6605C12.093 12.6508 12.0718 12.6366 12.054 12.6186C12.0362 12.6006 12.0222 12.5793 12.0127 12.5558C12.0033 12.5324 11.9986 12.5072 11.999 12.482C11.999 12.376 12.084 12.289 12.189 12.289C12.295 12.289 12.379 12.376 12.379 12.482M11.903 12.289C12.008 12.289 12.093 12.203 12.093 12.096C12.0933 12.0708 12.0886 12.0459 12.0792 12.0226C12.0697 11.9993 12.0558 11.9782 12.0381 11.9603C12.0204 11.9425 11.9994 11.9283 11.9762 11.9186C11.953 11.9089 11.9282 11.904 11.903 11.904C11.8779 11.904 11.8531 11.9089 11.8299 11.9186C11.8067 11.9283 11.7857 11.9425 11.768 11.9603C11.7503 11.9782 11.7364 11.9993 11.7269 12.0226C11.7175 12.0459 11.7128 12.0708 11.713 12.096C11.713 12.203 11.798 12.289 11.903 12.289ZM12.379 11.711C12.3794 11.7362 12.3748 11.7612 12.3655 11.7846C12.3561 11.808 12.3422 11.8293 12.3245 11.8472C12.3068 11.8652 12.2857 11.8795 12.2625 11.8892C12.2392 11.8989 12.2143 11.904 12.189 11.904C12.1638 11.9041 12.1387 11.8992 12.1153 11.8895C12.092 11.8798 12.0708 11.8656 12.053 11.8476C12.0352 11.8296 12.0212 11.8083 12.0117 11.7848C12.0023 11.7614 11.9976 11.7362 11.998 11.711C11.998 11.604 12.083 11.518 12.188 11.518C12.2133 11.518 12.2382 11.523 12.2615 11.5327C12.2847 11.5424 12.3058 11.5567 12.3235 11.5747C12.3412 11.5926 12.3551 11.6139 12.3645 11.6373C12.3738 11.6607 12.3794 11.6858 12.379 11.711ZM14.273 11.325H12.953V12.287C12.953 12.287 13.05 12.783 13.613 12.783C14.175 12.783 14.273 12.287 14.273 12.287V11.325ZM13.523 11.711C13.5234 11.7362 13.5188 11.7612 13.5095 11.7846C13.5001 11.808 13.4862 11.8293 13.4685 11.8472C13.4508 11.8652 13.4297 11.8795 13.4065 11.8892C13.3832 11.8989 13.3583 11.904 13.333 11.904C13.3078 11.904 13.2829 11.8989 13.2596 11.8892C13.2364 11.8795 13.2153 11.8652 13.1976 11.8472C13.1799 11.8293 13.166 11.808 13.1566 11.7846C13.1473 11.7612 13.1426 11.7362 13.143 11.711C13.143 11.604 13.228 11.518 13.333 11.518C13.438 11.518 13.523 11.604 13.523 11.711ZM13.333 12.675C13.438 12.675 13.523 12.588 13.523 12.482C13.5234 12.4568 13.5188 12.4317 13.5095 12.4083C13.5001 12.3849 13.4862 12.3636 13.4685 12.3457C13.4508 12.3277 13.4297 12.3134 13.4065 12.3037C13.3832 12.294 13.3583 12.289 13.333 12.289C13.3078 12.289 13.2829 12.294 13.2596 12.3037C13.2364 12.3134 13.2153 12.3277 13.1976 12.3457C13.1799 12.3636 13.166 12.3849 13.1566 12.4083C13.1473 12.4317 13.1426 12.4568 13.143 12.482C13.143 12.588 13.228 12.675 13.333 12.675ZM14.095 12.482C14.0954 12.5072 14.0908 12.5322 14.0815 12.5556C14.0721 12.579 14.0582 12.6003 14.0405 12.6182C14.0228 12.6362 14.0017 12.6505 13.9785 12.6602C13.9552 12.6699 13.9303 12.675 13.905 12.675C13.8798 12.675 13.8549 12.6699 13.8316 12.6602C13.8084 12.6505 13.7873 12.6362 13.7696 12.6182C13.7519 12.6003 13.738 12.579 13.7286 12.5556C13.7193 12.5322 13.7146 12.5072 13.715 12.482C13.715 12.376 13.8 12.289 13.905 12.289C14.01 12.289 14.095 12.376 14.095 12.482ZM13.619 12.289C13.724 12.289 13.809 12.203 13.809 12.096C13.8093 12.0708 13.8046 12.0459 13.7952 12.0226C13.7857 11.9993 13.7718 11.9782 13.7541 11.9603C13.7364 11.9425 13.7154 11.9283 13.6922 11.9186C13.669 11.9089 13.6442 11.904 13.619 11.904C13.5939 11.904 13.5691 11.9089 13.5459 11.9186C13.5227 11.9283 13.5017 11.9425 13.484 11.9603C13.4663 11.9782 13.4524 11.9993 13.4429 12.0226C13.4335 12.0459 13.4288 12.0708 13.429 12.096C13.429 12.203 13.514 12.289 13.619 12.289ZM14.095 11.711C14.0954 11.7362 14.0908 11.7612 14.0815 11.7846C14.0721 11.808 14.0582 11.8293 14.0405 11.8472C14.0228 11.8652 14.0017 11.8795 13.9785 11.8892C13.9552 11.8989 13.9303 11.904 13.905 11.904C13.8798 11.904 13.8549 11.8989 13.8316 11.8892C13.8084 11.8795 13.7873 11.8652 13.7696 11.8472C13.7519 11.8293 13.738 11.808 13.7286 11.7846C13.7193 11.7612 13.7146 11.7362 13.715 11.711C13.715 11.604 13.8 11.518 13.905 11.518C14.01 11.518 14.095 11.604 14.095 11.711ZM10.844 11.325H9.52405V12.287C9.52405 12.287 9.62205 12.783 10.184 12.783C10.746 12.783 10.844 12.287 10.844 12.287V11.325ZM10.095 11.711C10.0954 11.7362 10.0908 11.7612 10.0815 11.7846C10.0721 11.808 10.0582 11.8293 10.0405 11.8472C10.0228 11.8652 10.0017 11.8795 9.97846 11.8892C9.95521 11.8989 9.93025 11.904 9.90505 11.904C9.87984 11.904 9.85489 11.8989 9.83164 11.8892C9.80839 11.8795 9.78731 11.8652 9.76963 11.8472C9.75194 11.8293 9.73801 11.808 9.72864 11.7846C9.71927 11.7612 9.71465 11.7362 9.71505 11.711C9.71505 11.604 9.80005 11.518 9.90505 11.518C10.01 11.518 10.095 11.604 10.095 11.711ZM9.90505 12.675C10.01 12.675 10.095 12.588 10.095 12.482C10.0954 12.4568 10.0908 12.4317 10.0815 12.4083C10.0721 12.3849 10.0582 12.3636 10.0405 12.3457C10.0228 12.3277 10.0017 12.3134 9.97846 12.3037C9.95521 12.294 9.93025 12.289 9.90505 12.289C9.87984 12.289 9.85489 12.294 9.83164 12.3037C9.80839 12.3134 9.78731 12.3277 9.76963 12.3457C9.75194 12.3636 9.73801 12.3849 9.72864 12.4083C9.71927 12.4317 9.71465 12.4568 9.71505 12.482C9.71505 12.588 9.80005 12.675 9.90505 12.675ZM10.667 12.482C10.6674 12.5072 10.6628 12.5322 10.6535 12.5556C10.6441 12.579 10.6302 12.6003 10.6125 12.6182C10.5948 12.6362 10.5737 12.6505 10.5505 12.6602C10.5272 12.6699 10.5023 12.675 10.477 12.675C10.4518 12.6751 10.4267 12.6702 10.4033 12.6605C10.38 12.6508 10.3588 12.6366 10.341 12.6186C10.3232 12.6006 10.3092 12.5793 10.2997 12.5558C10.2903 12.5324 10.2856 12.5072 10.286 12.482C10.286 12.376 10.371 12.289 10.476 12.289C10.581 12.289 10.667 12.376 10.667 12.482ZM10.19 12.289C10.295 12.289 10.38 12.203 10.38 12.096C10.3803 12.0708 10.3756 12.0459 10.3662 12.0226C10.3567 11.9993 10.3428 11.9782 10.3251 11.9603C10.3074 11.9425 10.2864 11.9283 10.2632 11.9186C10.24 11.9089 10.2152 11.904 10.19 11.904C10.1648 11.9038 10.1399 11.9087 10.1166 11.9183C10.0933 11.9279 10.0721 11.9421 10.0543 11.96C10.0366 11.9778 10.0225 11.9991 10.013 12.0224C10.0035 12.0457 9.99878 12.0708 9.99905 12.096C9.99905 12.203 10.085 12.289 10.19 12.289ZM10.665 11.711C10.6654 11.7362 10.6608 11.7612 10.6515 11.7846C10.6421 11.808 10.6282 11.8293 10.6105 11.8472C10.5928 11.8652 10.5717 11.8795 10.5485 11.8892C10.5252 11.8989 10.5003 11.904 10.475 11.904C10.4498 11.9041 10.4247 11.8992 10.4013 11.8895C10.378 11.8798 10.3568 11.8656 10.339 11.8476C10.3212 11.8296 10.3072 11.8083 10.2977 11.7848C10.2883 11.7614 10.2836 11.7362 10.284 11.711C10.284 11.604 10.369 11.518 10.474 11.518C10.579 11.518 10.664 11.604 10.664 11.711M12.558 13.446H11.238V14.407C11.238 14.407 11.336 14.904 11.898 14.904C12.46 14.904 12.558 14.407 12.558 14.407V13.446ZM11.81 13.831C11.8104 13.8562 11.8058 13.8814 11.7964 13.9048C11.7869 13.9283 11.7729 13.9496 11.7551 13.9676C11.7373 13.9856 11.7161 13.9998 11.6928 14.0095C11.6694 14.0192 11.6443 14.0241 11.619 14.024C11.5938 14.024 11.5689 14.0189 11.5456 14.0092C11.5224 13.9995 11.5013 13.9852 11.4836 13.9672C11.4659 13.9493 11.452 13.928 11.4426 13.9046C11.4333 13.8812 11.4286 13.8562 11.429 13.831C11.429 13.725 11.514 13.639 11.619 13.639C11.724 13.639 11.809 13.725 11.809 13.831M11.618 14.795C11.723 14.795 11.808 14.709 11.808 14.602C11.8083 14.5768 11.8036 14.5519 11.7942 14.5286C11.7847 14.5053 11.7708 14.4842 11.7531 14.4663C11.7354 14.4485 11.7144 14.4343 11.6912 14.4246C11.668 14.4149 11.6432 14.41 11.618 14.41C11.5929 14.41 11.5681 14.4149 11.5449 14.4246C11.5217 14.4343 11.5007 14.4485 11.483 14.4663C11.4653 14.4842 11.4514 14.5053 11.4419 14.5286C11.4325 14.5519 11.4278 14.5768 11.428 14.602C11.428 14.709 11.513 14.795 11.618 14.795ZM12.38 14.602C12.3804 14.6272 12.3758 14.6522 12.3665 14.6756C12.3571 14.699 12.3432 14.7203 12.3255 14.7382C12.3078 14.7562 12.2867 14.7705 12.2635 14.7802C12.2402 14.7899 12.2153 14.795 12.19 14.795C12.1648 14.7951 12.1397 14.7902 12.1163 14.7805C12.093 14.7708 12.0718 14.7566 12.054 14.7386C12.0362 14.7206 12.0222 14.6993 12.0127 14.6758C12.0033 14.6524 11.9986 14.6272 11.999 14.602C11.999 14.496 12.084 14.41 12.189 14.41C12.2142 14.41 12.239 14.4149 12.2622 14.4246C12.2854 14.4343 12.3064 14.4485 12.3241 14.4663C12.3418 14.4842 12.3557 14.5053 12.3652 14.5286C12.3746 14.5519 12.3793 14.5768 12.379 14.602M11.903 14.41C12.008 14.41 12.093 14.323 12.093 14.217C12.0934 14.1918 12.0888 14.1667 12.0795 14.1433C12.0701 14.1199 12.0562 14.0986 12.0385 14.0807C12.0208 14.0627 11.9997 14.0484 11.9765 14.0387C11.9532 14.029 11.9283 14.024 11.903 14.024C11.8778 14.024 11.8529 14.029 11.8296 14.0387C11.8064 14.0484 11.7853 14.0627 11.7676 14.0807C11.7499 14.0986 11.736 14.1199 11.7266 14.1433C11.7173 14.1667 11.7126 14.1918 11.713 14.217C11.713 14.323 11.798 14.41 11.903 14.41ZM12.379 13.831C12.3794 13.8562 12.3748 13.8812 12.3655 13.9046C12.3561 13.928 12.3422 13.9493 12.3245 13.9672C12.3068 13.9852 12.2857 13.9995 12.2625 14.0092C12.2392 14.0189 12.2143 14.024 12.189 14.024C12.1638 14.0241 12.1387 14.0192 12.1153 14.0095C12.092 13.9998 12.0708 13.9856 12.053 13.9676C12.0352 13.9496 12.0212 13.9283 12.0117 13.9048C12.0023 13.8814 11.9976 13.8562 11.998 13.831C11.998 13.725 12.083 13.639 12.188 13.639C12.2132 13.639 12.238 13.6439 12.2612 13.6536C12.2844 13.6633 12.3054 13.6775 12.3231 13.6953C12.3408 13.7132 12.3547 13.7343 12.3642 13.7576C12.3736 13.7809 12.3793 13.8058 12.379 13.831Z" fill="#013399"/>
</g>
<defs>
<clipPath id="clip0_42_482">
<rect width="32" height="24" fill="white"/>
</clipPath>
</defs>
</svg>
