<svg width="32" height="24" viewBox="0 0 32 24" fill="none" xmlns="http://www.w3.org/2000/svg">
<g clip-path="url(#clip0_42_330)">
<path fill-rule="evenodd" clip-rule="evenodd" d="M0 0V24H32V0H0Z" fill="#F7FCFF"/>
<mask id="mask0_42_330" style="mask-type:luminance" maskUnits="userSpaceOnUse" x="0" y="0" width="32" height="24">
<path fill-rule="evenodd" clip-rule="evenodd" d="M0 0V24H32V0H0Z" fill="white"/>
</mask>
<g mask="url(#mask0_42_330)">
<path fill-rule="evenodd" clip-rule="evenodd" d="M0 0V8H32V0H0Z" fill="#5EAA22"/>
<path fill-rule="evenodd" clip-rule="evenodd" d="M0 16V24H32V16H0Z" fill="#E31D1C"/>
<path fill-rule="evenodd" clip-rule="evenodd" d="M4.60003 16.392V17.026H2.27003V16.392H4.60003ZM0.567033 17.984H0.359034V17.731H0.813034V18.618H1.39303V18.625H1.95403V16.783H1.59603V17.991H1.54003V16.687H1.18203V17.984H1.17203V16.687H0.813034V17.097H3.33786e-05V18.618H0.566033L0.567033 17.984ZM2.06703 18.339H2.42703V17.711H2.82703V18.625H3.95003V17.078H3.37303V17.712H3.59103V17.991H3.18303V17.077H2.06703V18.339ZM4.35903 17.984H4.56603V18.618H4.00003V17.097H4.81403V16.687H5.17303V17.984H5.18303V16.687H5.54103V17.991H5.59603V16.783H5.95603V18.625H5.39403V18.618H4.81403V17.731H4.35903V17.984ZM8.60003 16.392V17.026H6.27003V16.392H8.60003ZM6.06603 18.34H6.42503V17.711H6.82503V18.625H7.95003V17.078H7.37303V17.712H7.59203V17.991H7.18403V17.077H6.06603V18.34ZM8.43003 17.984H8.63703V18.618H8.07003V17.097H8.88403V16.687H9.24403V17.984H9.25203V16.687H9.61203V17.991H9.66703V16.783H10.025V18.625H9.46403V18.618H8.88403V17.731H8.43003V17.984ZM12.672 16.392V17.026H10.34V16.392H12.672ZM10.137 18.34H10.497V17.711H10.897V18.625H12.022V17.078H11.444V17.712H11.663V17.991H11.255V17.077H10.137V18.34ZM12.429 17.984H12.636V18.618H12.07V17.097H12.884V16.687H13.243V17.984H13.253V16.687H13.611V17.991H13.666V16.783H14.026V18.625H13.464V18.618H12.884V17.731H12.429V17.984ZM16.671 16.392V17.026H14.341V16.392H16.671ZM14.137 18.34H14.496V17.711H14.896V18.625H16.021V17.078H15.444V17.712H15.663V17.991H15.255V17.077H14.137V18.34ZM16.429 17.984H16.636V18.618H16.07V17.097H16.884V16.687H17.243V17.984H17.252V16.687H17.611V17.991H17.666V16.783H18.025V18.625H17.463V18.618H16.883V17.731H16.429V17.984ZM20.671 16.392V17.026H18.341V16.392H20.671ZM18.137 18.34H18.496V17.711H18.896V18.625H20.021V17.078H19.444V17.712H19.662V17.991H19.254V17.077H18.137V18.34ZM20.5 17.984H20.707V18.618H20.141V17.097H20.955V16.687H21.314V17.984H21.324V16.687H21.682V17.991H21.737V16.783H22.096V18.625H21.535V18.618H20.955V17.731H20.5V17.984ZM24.742 16.392V17.026H22.412V16.392H24.742ZM22.208 18.34H22.567V17.711H22.967V18.625H24.092V17.078H23.515V17.712H23.734V17.991H23.326V17.077H22.208V18.34ZM24.572 17.984H24.779V18.618H24.212V17.097H25.026V16.687H25.385V17.984H25.395V16.687H25.753V17.991H25.808V16.783H26.168V18.625H25.606V18.618H25.026V17.731H24.572V17.984ZM28.814 16.392V17.026H26.483V16.392H28.814ZM26.279 18.34H26.639V17.711H27.039V18.625H28.163V17.078H27.586V17.712H27.805V17.991H27.397V17.077H26.279V18.34ZM28.643 17.984H28.85V18.618H28.284V17.097H29.097V16.687H29.457V17.984H29.465V16.687H29.825V17.991H29.88V16.783H30.238V18.625H29.677V18.618H29.097V17.731H28.643V17.984ZM32.885 16.392V17.026H30.554V16.392H32.885ZM30.35 18.34H30.708V17.711H31.108V18.625H32.234V17.078H31.657V17.712H31.875V17.991H31.467V17.077H30.35V18.34ZM32.641 17.984H32.848V18.618H32.282V17.097H33.096V16.687H33.455V17.984H33.465V16.687H33.823V17.991H33.878V16.783H34.238V18.625H33.676V18.618H33.096V17.731H32.641V17.984ZM36.884 16.392V17.026H34.553V16.392H36.884ZM34.35 18.34H34.709V17.711H35.109V18.625H36.234V17.078H35.657V17.712H35.876V17.991H35.468V17.077H34.35V18.34ZM36.856 17.984H37.063V18.618H36.497V17.097H37.311V16.687H37.67V17.984H37.68V16.687H38.038V17.991H38.093V16.783H38.453V18.625H37.891V18.618H37.311V17.731H36.856V17.984ZM41.099 16.392V17.026H38.768V16.392H41.099ZM38.564 18.34H38.924V17.711H39.324V18.625H40.449V17.078H39.871V17.712H40.09V17.991H39.682V17.077H38.564V18.34ZM0.485034 5.39203V6.02603H-1.84597V5.39203H0.485034ZM-3.54997 6.98403H-3.75697V6.73103H-3.30297V7.61803H-2.72297V7.62503H-2.16197V5.78303H-2.51997V6.99103H-2.57597V5.68703H-2.93497V6.98403H-2.94397V5.68703H-3.30297V6.09703H-4.11597V7.61803H-3.54997V6.98403ZM-2.04997 7.33903H-1.68997V6.71103H-1.28997V7.62503H-0.164967V6.07803H-0.742967V6.71203H-0.523967V6.99103H-0.931967V6.07703H-2.04997V7.33903ZM0.242033 6.98403H0.450033V7.61803H-0.115967V6.09703H0.698033V5.68703H1.05703V6.98403H1.06703V5.68703H1.42503V6.99103H1.48003V5.78303H1.83903V7.62503H1.27803V7.61803H0.698033V6.73103H0.242033V6.98403ZM4.48403 5.39203V6.02603H2.15403V5.39203H4.48403ZM1.95003 7.33903H2.30903V6.71103H2.70903V7.62503H3.83403V6.07803H3.25703V6.71203H3.47603V6.99103H3.06803V6.07703H1.95003V7.33903ZM4.31403 6.98403H4.52103V7.61803H3.95403V6.09703H4.76803V5.68703H5.12703V6.98403H5.13703V5.68703H5.49503V6.99103H5.55003V5.78303H5.91003V7.62503H5.34803V7.61803H4.76803V6.73103H4.31403V6.98403ZM8.55603 5.39203V6.02603H6.22503V5.39203H8.55603ZM6.02003 7.33903H6.38003V6.71103H6.78003V7.62503H7.90503V6.07803H7.32703V6.71203H7.54603V6.99103H7.13803V6.07703H6.02003V7.33903ZM8.31203 6.98403H8.51903V7.61803H7.95303V6.09703H8.76703V5.68703H9.12603V6.98403H9.13603V5.68703H9.49403V6.99103H9.54903V5.78303H9.90803V7.62503H9.34703V7.61803H8.76703V6.73103H8.31203V6.98403ZM12.554 5.39203V6.02603H10.224V5.39203H12.554ZM10.02 7.33903H10.379V6.71103H10.779V7.62503H11.904V6.07803H11.327V6.71203H11.546V6.99103H11.138V6.07703H10.02V7.33903ZM12.312 6.98403H12.519V7.61803H11.953V6.09703H12.767V5.68703H13.125V6.98403H13.135V5.68703H13.494V6.99103H13.549V5.78303H13.908V7.62503H13.346V7.61803H12.766V6.73103H12.312V6.98403ZM16.554 5.39203V6.02603H14.224V5.39203H16.554ZM14.02 7.33903H14.379V6.71103H14.779V7.62503H15.904V6.07803H15.327V6.71203H15.545V6.99103H15.137V6.07703H14.02V7.33903ZM16.383 6.98403H16.59V7.61803H16.024V6.09703H16.838V5.68703H17.197V6.98403H17.207V5.68703H17.565V6.99103H17.62V5.78303H17.979V7.62503H17.418V7.61803H16.838V6.73103H16.383V6.98403ZM20.625 5.39203V6.02603H18.295V5.39203H20.625ZM18.091 7.33903H18.45V6.71103H18.85V7.62503H19.975V6.07803H19.4V6.71203H19.618V6.99103H19.21V6.07703H18.093L18.091 7.33903ZM20.455 6.98403H20.661V7.61803H20.095V6.09703H20.909V5.68703H21.268V6.98403H21.278V5.68703H21.636V6.99103H21.691V5.78303H22.051V7.62503H21.489V7.61803H20.909V6.73103H20.455V6.98403ZM24.696 5.39203V6.02603H22.366V5.39203H24.696ZM22.162 7.33903H22.521V6.71103H22.921V7.62503H24.046V6.07803H23.469V6.71203H23.688V6.99103H23.28V6.07703H22.162V7.33903ZM24.526 6.98403H24.733V7.61803H24.166V6.09703H24.98V5.68703H25.34V6.98403H25.348V5.68703H25.708V6.99103H25.763V5.78303H26.121V7.62503H25.56V7.61803H24.98V6.73103H24.526V6.98403ZM28.768 5.39203V6.02603H26.437V5.39203H28.768ZM26.234 7.33903H26.592V6.71103H26.992V7.62503H28.118V6.07803H27.54V6.71203H27.759V6.99103H27.351V6.07703H26.234V7.33903ZM28.525 6.98403H28.732V7.61803H28.166V6.09703H28.98V5.68703H29.339V6.98403H29.349V5.68703H29.707V6.99103H29.762V5.78303H30.122V7.62503H29.56V7.61803H28.98V6.73103H28.525V6.98403ZM32.767 5.39203V6.02603H30.437V5.39203H32.767ZM30.233 7.33903H30.592V6.71103H30.992V7.62503H32.117V6.07803H31.54V6.71203H31.759V6.99103H31.351V6.07703H30.233V7.33903ZM32.739 6.98403H32.946V7.61803H32.38V6.09703H33.194V5.68703H33.553V6.98403H33.563V5.68703H33.921V6.99103H33.976V5.78303H34.336V7.62503H33.774V7.61803H33.194V6.73103H32.739V6.98403ZM36.981 5.39203V6.02603H34.651V5.39203H36.981ZM34.447 7.33903H34.806V6.71103H35.206V7.62503H36.331V6.07803H35.754V6.71203H35.973V6.99103H35.565V6.07703H34.447V7.33903Z" fill="#F7FCFF"/>
<path fill-rule="evenodd" clip-rule="evenodd" d="M14.6061 8.25C14.6061 8.25 15.0341 8.475 15.4711 8.475C15.9081 8.475 16.3491 8.25 16.3491 8.25V8.55C16.3491 8.55 15.8681 8.775 15.4431 8.775C15.0181 8.775 14.6061 8.55 14.6061 8.55V8.25ZM11.4561 11.79C11.4561 10.013 13.8981 8.85 13.8981 8.85C13.8981 8.85 12.4871 9.606 12.4871 11.716C12.4871 13.826 13.2201 14.74 13.2201 14.74C13.2201 14.74 11.4561 13.569 11.4561 11.79ZM19.6941 11.693C19.6941 9.914 17.2541 8.85 17.2541 8.85C17.2541 8.85 18.6661 9.606 18.6661 11.716C18.6661 13.826 17.9331 14.74 17.9331 14.74C17.9331 14.74 19.6941 13.47 19.6941 11.693ZM13.1241 12.178C13.0301 10.402 14.5071 8.811 14.5071 8.811C14.5071 8.811 13.9701 9.541 14.0801 11.649C14.1181 12.372 14.4031 13.449 14.7621 14.083V8.925H16.2621V14.128C16.6221 13.535 16.8991 12.525 16.9371 11.791C17.0471 9.684 16.5361 8.811 16.5361 8.811C16.5361 8.811 18.0131 10.402 17.9201 12.178C17.8641 13.235 17.0501 14.353 16.4021 15.085C16.7171 15.155 17.1401 15.241 17.7211 15.355C17.7331 15.42 17.6041 15.417 17.3461 15.411C16.9119 15.3943 16.4771 15.4131 16.0461 15.467C15.7811 15.739 15.5961 15.9 15.5961 15.9L15.5221 15.806L15.4471 15.9C15.4471 15.9 15.2631 15.74 14.9971 15.467C14.566 15.4131 14.1312 15.3943 13.6971 15.411C13.4401 15.417 13.3101 15.421 13.3221 15.356C13.9041 15.241 14.3261 15.156 14.6421 15.086C13.9921 14.353 13.1791 13.236 13.1241 12.178Z" fill="#E31D1C"/>
</g>
</g>
<defs>
<clipPath id="clip0_42_330">
<rect width="32" height="24" fill="white"/>
</clipPath>
</defs>
</svg>
