<svg width="32" height="24" viewBox="0 0 32 24" fill="none" xmlns="http://www.w3.org/2000/svg">
<g clip-path="url(#clip0_42_613)">
<path fill-rule="evenodd" clip-rule="evenodd" d="M0 0V24H32V0H0Z" fill="#2E42A5"/>
<mask id="mask0_42_613" style="mask-type:luminance" maskUnits="userSpaceOnUse" x="0" y="0" width="32" height="24">
<path fill-rule="evenodd" clip-rule="evenodd" d="M0 0V24H32V0H0Z" fill="white"/>
</mask>
<g mask="url(#mask0_42_613)">
<path fill-rule="evenodd" clip-rule="evenodd" d="M0 0V8H32V0H0Z" fill="#FECA00"/>
<path fill-rule="evenodd" clip-rule="evenodd" d="M0 16V24H32V16H0Z" fill="#E31D1C"/>
<path fill-rule="evenodd" clip-rule="evenodd" d="M12.737 11.86L13.719 11.302L14.822 11.859L14.426 10.726L15.25 9.89395H14.202L13.718 8.82195L13.306 9.89395H12.076L13.001 10.711H11.964L11.48 9.63995L11.068 10.712H9.83801L10.78 11.545L10.6 12.271H9.81501L9.33201 11.199L8.91901 12.271H7.69001L8.63201 13.104L8.45801 13.807H8.11501L7.63101 12.735L7.21901 13.807H5.98901L6.93001 14.64L6.65001 15.773L7.63301 15.215L8.73501 15.772L8.33901 14.639L9.16301 13.807H9.11001L9.33401 13.68L10.437 14.237L10.041 13.104L10.513 12.627L10.5 12.678L11.483 12.121L12.585 12.678L12.189 11.545L13.008 10.718L13.018 10.728L12.737 11.86ZM19.223 11.816L18.24 11.258L17.138 11.816L17.534 10.683L16.71 9.84995H17.758L18.242 8.77795L18.654 9.84995H19.884L18.959 10.668H20.001L20.484 9.59495L20.897 10.668H22.127L21.185 11.5L21.365 12.227H22.15L22.633 11.154L23.045 12.227H24.275L23.334 13.059L23.508 13.762H23.851L24.335 12.69L24.747 13.762H25.977L25.035 14.595L25.315 15.728L24.333 15.17L23.231 15.728L23.627 14.595L22.803 13.762H22.856L22.631 13.635L21.529 14.192L21.925 13.059L21.453 12.582L21.466 12.633L20.483 12.076L19.38 12.633L19.776 11.5L18.956 10.67L18.942 10.683L19.223 11.816Z" fill="#F7FCFF"/>
<path fill-rule="evenodd" clip-rule="evenodd" d="M15.8329 10.535L14.8499 11.092L15.1299 9.95895L14.1899 9.12696H15.4199L15.8319 8.05396L16.3149 9.12696H17.3629L16.5399 9.95895L16.9359 11.092L15.8329 10.535Z" fill="#F7FCFF"/>
</g>
</g>
<defs>
<clipPath id="clip0_42_613">
<rect width="32" height="24" fill="white"/>
</clipPath>
</defs>
</svg>
