<svg width="32" height="24" viewBox="0 0 32 24" fill="none" xmlns="http://www.w3.org/2000/svg">
<g clip-path="url(#clip0_42_354)">
<path fill-rule="evenodd" clip-rule="evenodd" d="M0 0V24H32V0H0Z" fill="#F7FCFF"/>
<mask id="mask0_42_354" style="mask-type:luminance" maskUnits="userSpaceOnUse" x="0" y="0" width="32" height="24">
<path fill-rule="evenodd" clip-rule="evenodd" d="M0 0V24H32V0H0Z" fill="white"/>
</mask>
<g mask="url(#mask0_42_354)">
<path fill-rule="evenodd" clip-rule="evenodd" d="M0 0V8H32V0H0Z" fill="#272727"/>
<path fill-rule="evenodd" clip-rule="evenodd" d="M0 16V24H32V16H0Z" fill="#009933"/>
</g>
<path fill-rule="evenodd" clip-rule="evenodd" d="M0 0V24L20 12L0 0Z" fill="#E31D1C"/>
<mask id="mask1_42_354" style="mask-type:luminance" maskUnits="userSpaceOnUse" x="0" y="0" width="20" height="24">
<path fill-rule="evenodd" clip-rule="evenodd" d="M0 0V24L20 12L0 0Z" fill="white"/>
</mask>
<g mask="url(#mask1_42_354)">
<path fill-rule="evenodd" clip-rule="evenodd" d="M9.002 13.87L7.132 15L7.558 12.796L6 11.146L8.11 11.058L9.001 9L9.893 11.058H12L10.446 12.796L10.914 15L9.002 13.87Z" fill="#F7FCFF"/>
</g>
</g>
<defs>
<clipPath id="clip0_42_354">
<rect width="32" height="24" fill="white"/>
</clipPath>
</defs>
</svg>
