<svg width="32" height="24" viewBox="0 0 32 24" fill="none" xmlns="http://www.w3.org/2000/svg">
<g clip-path="url(#clip0_42_548)">
<path fill-rule="evenodd" clip-rule="evenodd" d="M0 0H32V24H0V0Z" fill="#F7FCFF"/>
<path fill-rule="evenodd" clip-rule="evenodd" d="M0 14.667V16.667H32V14.667H0ZM0 18.333V20.333H32V18.333H0ZM0 7.333V9.333H32V7.333H0ZM0 22V24H32V22H0ZM0 11V13H32V11H0ZM0 0V2H32V0H0ZM0 3.667V5.667H32V3.667H0Z" fill="#E31D1C"/>
<path d="M0 0H20V13H0V0Z" fill="#2E42A5"/>
<path fill-rule="evenodd" clip-rule="evenodd" d="M1.72195 2.93903L0.995947 3.44803L1.24095 2.54203L0.595947 1.96803H1.43895L1.72095 1.22803L2.05195 1.96803H2.76995L2.20595 2.54203L2.42395 3.44803L1.72195 2.93903ZM5.72195 2.93903L4.99595 3.44803L5.24095 2.54203L4.59695 1.96803H5.43895L5.72095 1.22803L6.05195 1.96803H6.76995L6.20595 2.54203L6.42395 3.44803L5.72195 2.93903ZM8.99595 3.44803L9.72195 2.93803L10.4239 3.44803L10.2059 2.54203L10.7699 1.96803H10.0519L9.72095 1.22803L9.43895 1.96803H8.59695L9.24095 2.54203L8.99595 3.44803ZM13.7219 2.93803L12.9959 3.44803L13.2409 2.54203L12.5969 1.96803H13.4389L13.7209 1.22803L14.0519 1.96803H14.7699L14.2059 2.54203L14.4239 3.44803L13.7219 2.93803ZM0.995947 7.44903L1.72195 6.93903L2.42395 7.44903L2.20595 6.54303L2.76995 5.96903H2.05195L1.72095 5.22903L1.43895 5.96903H0.595947L1.24095 6.54303L0.995947 7.44903ZM5.72195 6.93903L4.99595 7.44903L5.24095 6.54303L4.59695 5.96903H5.43895L5.72095 5.22903L6.05195 5.96903H6.76995L6.20595 6.54303L6.42395 7.44903L5.72195 6.93903ZM8.99595 7.44903L9.72195 6.93903L10.4239 7.44903L10.2059 6.54303L10.7699 5.96903H10.0519L9.72095 5.22903L9.43895 5.96903H8.59695L9.24095 6.54303L8.99595 7.44903ZM13.7219 6.93903L12.9959 7.44903L13.2409 6.54303L12.5969 5.96903H13.4389L13.7209 5.22903L14.0519 5.96903H14.7699L14.2059 6.54303L14.4239 7.44903L13.7219 6.93903ZM0.995947 11.449L1.72195 10.939L2.42395 11.449L2.20595 10.543L2.76995 9.96903H2.05195L1.72095 9.22903L1.43895 9.96903H0.595947L1.24095 10.543L0.995947 11.449ZM5.72195 10.939L4.99595 11.449L5.24095 10.543L4.59695 9.96903H5.43895L5.72095 9.22903L6.05195 9.96903H6.76995L6.20595 10.543L6.42395 11.449L5.72195 10.939ZM8.99595 11.449L9.72195 10.939L10.4239 11.449L10.2059 10.543L10.7699 9.96903H10.0519L9.72095 9.22903L9.43895 9.96903H8.59695L9.24095 10.543L8.99595 11.449ZM13.7219 10.939L12.9959 11.449L13.2409 10.543L12.5969 9.96903H13.4389L13.7209 9.22903L14.0519 9.96903H14.7699L14.2059 10.543L14.4239 11.449L13.7219 10.939ZM16.9959 3.44903L17.7219 2.93903L18.4239 3.44903L18.2059 2.54303L18.7699 1.96903H18.0519L17.7209 1.22903L17.4389 1.96903H16.5959L17.2409 2.54303L16.9959 3.44903ZM17.7219 6.93903L16.9959 7.44903L17.2409 6.54303L16.5959 5.96903H17.4389L17.7209 5.22903L18.0519 5.96903H18.7699L18.2059 6.54303L18.4239 7.44903L17.7219 6.93903ZM16.9959 11.449L17.7219 10.939L18.4239 11.449L18.2059 10.543L18.7699 9.96903H18.0519L17.7209 9.22903L17.4389 9.96903H16.5959L17.2409 10.543L16.9959 11.449ZM3.72195 4.93803L2.99595 5.44803L3.24095 4.54203L2.59595 3.96803H3.43895L3.72095 3.22803L4.05195 3.96803H4.76995L4.20595 4.54203L4.42395 5.44803L3.72195 4.93803ZM6.99595 5.44803L7.72195 4.93803L8.42395 5.44803L8.20595 4.54203L8.76995 3.96803H8.05195L7.72095 3.22803L7.43895 3.96803H6.59595L7.24095 4.54203L6.99595 5.44803ZM11.7219 4.93803L10.9959 5.44803L11.2409 4.54203L10.5969 3.96803H11.4389L11.7209 3.22803L12.0519 3.96803H12.7699L12.2059 4.54203L12.4239 5.44803L11.7219 4.93803ZM2.99595 9.44803L3.72195 8.93803L4.42395 9.44803L4.20595 8.54203L4.76995 7.96803H4.05195L3.72095 7.22803L3.43895 7.96803H2.59595L3.24095 8.54203L2.99595 9.44803ZM7.72195 8.93803L6.99595 9.44803L7.24095 8.54203L6.59695 7.96803H7.43895L7.72095 7.22803L8.05195 7.96803H8.76995L8.20595 8.54203L8.42395 9.44803L7.72195 8.93803ZM10.9959 9.44803L11.7219 8.93803L12.4239 9.44803L12.2059 8.54203L12.7699 7.96803H12.0519L11.7209 7.22803L11.4389 7.96803H10.5969L11.2409 8.54203L10.9959 9.44803ZM15.7219 4.93803L14.9959 5.44803L15.2409 4.54203L14.5969 3.96803H15.4389L15.7209 3.22803L16.0519 3.96803H16.7699L16.2059 4.54203L16.4239 5.44803L15.7219 4.93803ZM14.9959 9.44803L15.7219 8.93803L16.4239 9.44803L16.2059 8.54203L16.7699 7.96803H16.0519L15.7209 7.22803L15.4389 7.96803H14.5969L15.2409 8.54203L14.9959 9.44803Z" fill="#F7FCFF"/>
</g>
<defs>
<clipPath id="clip0_42_548">
<rect width="32" height="24" fill="white"/>
</clipPath>
</defs>
</svg>
