<svg width="32" height="24" viewBox="0 0 32 24" fill="none" xmlns="http://www.w3.org/2000/svg">
<g clip-path="url(#clip0_42_205)">
<path fill-rule="evenodd" clip-rule="evenodd" d="M0 0V24H32V0H0Z" fill="#2E42A5"/>
<mask id="mask0_42_205" style="mask-type:luminance" maskUnits="userSpaceOnUse" x="0" y="0" width="18" height="14">
<path d="M0 0H18V14H0V0Z" fill="white"/>
</mask>
<g mask="url(#mask0_42_205)">
<path d="M0 0H18V14H0V0Z" fill="#2E42A5"/>
<path d="M-2.00403 13L1.95597 14.737L18.09 1.88901L20.18 -0.692995L15.944 -1.27299L9.36397 4.26301L4.06697 7.993L-2.00403 13Z" fill="#F7FCFF"/>
<path d="M-1.46204 14.217L0.555964 15.225L19.429 -0.932999H16.596L-1.46204 14.217Z" fill="#F50100"/>
<path d="M20.0039 13L16.0439 14.737L-0.0900536 1.88901L-2.18005 -0.692995L2.05595 -1.27299L8.63595 4.26301L13.9329 7.993L20.0039 13Z" fill="#F7FCFF"/>
<path d="M19.87 13.873L17.851 14.882L9.81499 7.96401L7.432 7.19101L-2.38 -0.68399H0.452995L10.26 7.00401L12.865 7.93101L19.87 13.873Z" fill="#F50100"/>
<path fill-rule="evenodd" clip-rule="evenodd" d="M9.985 0H7.985V6H0V8H7.985V14H9.985V8H18V6H9.985V0Z" fill="#F50100"/>
<path fill-rule="evenodd" clip-rule="evenodd" d="M6.485 0H11.485V4.5H18V9.5H11.485L11.5 14H6.5L6.485 9.5H0V4.5H6.485V0ZM7.985 6H0V8H7.985V14H9.985V8H18V6H9.985V0H7.985V6Z" fill="#F7FCFF"/>
</g>
<mask id="mask1_42_205" style="mask-type:luminance" maskUnits="userSpaceOnUse" x="6" y="2" width="25" height="21">
<path d="M6 2H31V23H6V2Z" fill="white"/>
</mask>
<g mask="url(#mask1_42_205)">
<path d="M8.99995 20.5L7.69795 21.703L7.82795 19.935L6.07495 19.668L7.53795 18.666L6.65495 17.129L8.34895 17.649L8.99995 16L9.64995 17.648L11.345 17.13L10.462 18.666L11.925 19.668L10.173 19.935L10.302 21.703L8.99995 20.5ZM22 13L21.132 13.802L21.218 12.624L20.05 12.445L21.025 11.777L20.436 10.753L21.566 11.099L22 10L22.434 11.099L23.5639 10.753L22.974 11.777L23.95 12.445L22.782 12.623L22.868 13.802L22 13ZM24 5L23.132 5.802L23.218 4.623L22.05 4.445L23.025 3.777L22.436 2.753L23.566 3.099L24 2L24.434 3.099L25.5639 2.753L24.974 3.777L25.95 4.445L24.782 4.623L24.868 5.802L24 5ZM29 9L28.132 9.802L28.218 8.623L27.0499 8.445L28.025 7.777L27.436 6.753L28.566 7.099L29 6L29.434 7.099L30.5639 6.753L29.974 7.777L30.95 8.445L29.782 8.623L29.868 9.802L29 9ZM25 22L24.132 22.802L24.218 21.624L23.0499 21.445L24.025 20.777L23.436 19.753L24.566 20.099L25 19L25.434 20.099L26.5639 19.753L25.974 20.777L26.95 21.445L25.782 21.623L25.868 22.802L25 22ZM28.5 14.25L27.618 14.713L27.787 13.732L27.073 13.037L28.059 12.893L28.5 12L28.94 12.893L29.927 13.036L29.213 13.732L29.382 14.714L28.5 14.25Z" fill="#F7FCFF"/>
</g>
</g>
<defs>
<clipPath id="clip0_42_205">
<rect width="32" height="24" fill="white"/>
</clipPath>
</defs>
</svg>
