<svg width="32" height="24" viewBox="0 0 32 24" fill="none" xmlns="http://www.w3.org/2000/svg">
<g clip-path="url(#clip0_42_442)">
<path fill-rule="evenodd" clip-rule="evenodd" d="M8 0H25V24H8V0Z" fill="#F7FCFF"/>
<path fill-rule="evenodd" clip-rule="evenodd" d="M24 0H32V24H24V0ZM0 0H8V24H0V0Z" fill="#F50101"/>
<path d="M15.7411 8.74496L15.7751 9.10696C14.7761 9.20796 14.2371 8.71996 14.2371 7.70696C14.2371 6.70296 14.7651 6.16896 15.7571 6.16296L15.7591 6.52596C14.9551 6.53096 14.5851 6.90596 14.5851 7.70796C14.5851 8.50096 14.9431 8.82596 15.7411 8.74496ZM16.1831 8.74496L16.1501 9.10696C17.1491 9.20796 17.6881 8.71996 17.6881 7.70696C17.6881 6.70296 17.1601 6.16896 16.1681 6.16296L16.1661 6.52596C16.9701 6.53096 17.3401 6.90596 17.3401 7.70796C17.3401 8.50096 16.9811 8.82596 16.1831 8.74496Z" fill="#A2BB6A"/>
<path fill-rule="evenodd" clip-rule="evenodd" d="M15.14 17.1231C14.852 17.2261 12.906 17.1231 12.906 17.1231V17.6651H14.196C14.627 17.6651 14.79 17.7421 14.939 17.8131C15.066 17.8731 15.183 17.9281 15.445 17.9281C15.955 17.9281 15.945 17.5481 15.938 17.2321L15.936 17.1221C15.936 16.9891 15.957 16.9141 15.973 16.8551C15.997 16.7711 16.011 16.7211 15.936 16.5751C15.81 16.3291 14.607 16.3621 14.607 16.5751C14.607 16.6751 14.79 16.7801 14.952 16.8741C15.134 16.9781 15.292 17.0691 15.14 17.1231ZM16.89 17.1231C17.176 17.2261 19.123 17.1231 19.123 17.1231V17.6651H17.833C17.402 17.6651 17.239 17.7421 17.09 17.8131C16.9344 17.8952 16.7599 17.9349 16.584 17.9281C16.074 17.9281 16.084 17.5481 16.091 17.2321L16.093 17.1221C16.0938 17.0317 16.081 16.9416 16.055 16.8551C16.032 16.7711 16.018 16.7211 16.093 16.5751C16.219 16.3291 17.421 16.3621 17.421 16.5751C17.421 16.6751 17.239 16.7801 17.077 16.8741C16.894 16.9781 16.738 17.0691 16.89 17.1231Z" fill="#E31D1C"/>
<path fill-rule="evenodd" clip-rule="evenodd" d="M16.407 17.175C16.407 17.175 17.926 17.024 18.27 16.476C18.613 15.928 19.185 14.993 19.387 14.766C19.587 14.54 19.601 15.09 19.601 15.09C19.601 15.09 19.933 15.56 19.933 14.959C19.933 14.357 19.697 14.777 19.387 13.872C19.077 12.966 18.902 12.077 18.989 11.942C19.076 11.808 19.283 12.077 19.283 11.942V11.545L19.601 11.943L19.933 11.817C19.933 11.817 20.206 12.402 20.374 12.583C20.543 12.764 20.641 12.341 20.592 11.943C20.543 11.545 19.932 11.545 19.932 11.545C19.932 11.545 19.152 11.125 19.152 10.948C19.152 10.772 19.49 10.825 19.49 10.825L19.387 10.279C19.387 10.279 19.665 10.611 19.799 10.445C19.933 10.279 19.601 9.988 19.601 9.988H20.13V9.733L20.374 9.87L20.13 9.312C20.13 9.312 19.413 9.42 19.283 9.312C19.153 9.204 18.743 8.783 18.743 8.783V8.583H18.506L18.742 8.18299V7.545L19.601 7.716V7.245C19.601 7.245 20.809 7.834 20.591 8.309C20.374 8.783 20.374 9.312 20.374 9.312V9.732C20.374 9.732 20.41 9.604 20.592 9.604C20.773 9.604 20.979 9.698 20.979 9.988C20.979 10.278 21.349 9.87 21.349 9.87V11.08C21.349 11.08 21.436 11.21 21.625 11.08C21.815 10.948 21.732 11.05 21.162 11.817C20.592 12.583 20.797 12.585 20.979 12.397C21.162 12.21 21.902 11.676 21.625 11.943C21.349 12.21 21.33 12.769 21.625 12.583C21.92 12.397 21.863 12.265 21.863 12.583C21.863 12.901 21.344 13.983 21.162 14.153C20.979 14.322 20.809 14.426 20.592 14.596C20.374 14.766 20.13 14.968 20.13 15.09C20.13 15.212 20.592 14.959 20.592 14.959L20.374 15.735H20.797C20.797 15.735 20.46 16.767 19.799 16.767H18.506C18.373 16.767 17.772 17.05 17.772 17.05L17.332 17.175C17.332 17.175 18.033 17.242 18.27 17.452C18.506 17.662 18.27 17.809 18.27 17.809C18.27 17.809 17.621 17.745 17.137 17.599C16.653 17.452 16.407 17.729 16.407 17.452V17.175Z" fill="#00A854"/>
<path fill-rule="evenodd" clip-rule="evenodd" d="M20.783 8.91005C20.783 9.01005 20.705 9.09005 20.609 9.09005C20.5623 9.08849 20.5181 9.06884 20.4856 9.03525C20.4531 9.00167 20.435 8.95677 20.435 8.91005C20.435 8.80905 20.513 8.72705 20.609 8.72705C20.705 8.72705 20.783 8.81005 20.783 8.91005ZM19.913 9.63505C19.913 9.73505 19.835 9.81705 19.739 9.81705C19.692 9.81549 19.6474 9.79556 19.6149 9.76154C19.5824 9.72752 19.5645 9.68211 19.565 9.63505C19.565 9.53505 19.643 9.45405 19.739 9.45405C19.835 9.45405 19.913 9.53405 19.913 9.63505ZM20.783 9.45405C20.8299 9.45223 20.8742 9.43219 20.9065 9.3982C20.9388 9.36421 20.9566 9.31895 20.956 9.27205C20.956 9.17205 20.879 9.09005 20.783 9.09005C20.736 9.09162 20.6914 9.11154 20.6589 9.14556C20.6264 9.17958 20.6085 9.22499 20.609 9.27205C20.609 9.37205 20.687 9.45405 20.783 9.45405ZM20.435 12.1811C20.435 12.2811 20.357 12.3631 20.261 12.3631C20.214 12.3615 20.1694 12.3416 20.1369 12.3075C20.1044 12.2735 20.0865 12.2281 20.087 12.1811C20.087 12.0811 20.165 11.9991 20.261 11.9991C20.357 11.9991 20.435 12.0801 20.435 12.1811ZM19.565 14.5441C19.6119 14.5425 19.6563 14.5227 19.6888 14.4889C19.7213 14.4551 19.7393 14.4099 19.739 14.3631C19.739 14.2631 19.661 14.1811 19.565 14.1811C19.518 14.1826 19.4734 14.2025 19.4409 14.2366C19.4084 14.2706 19.3905 14.316 19.391 14.3631C19.391 14.4631 19.469 14.5441 19.565 14.5441ZM20.956 14.9081C20.956 15.0081 20.879 15.0901 20.783 15.0901C20.736 15.0885 20.6914 15.0686 20.6589 15.0345C20.6264 15.0005 20.6085 14.9551 20.609 14.9081C20.609 14.8081 20.687 14.7261 20.783 14.7261C20.879 14.7261 20.956 14.8081 20.956 14.9081ZM21.13 14.7261C21.177 14.7245 21.2216 14.7046 21.2541 14.6705C21.2866 14.6365 21.3046 14.5911 21.304 14.5441C21.304 14.4441 21.227 14.3631 21.13 14.3631C21.0831 14.3646 21.0387 14.3844 21.0062 14.4182C20.9737 14.452 20.9557 14.4972 20.956 14.5441C20.956 14.6441 21.034 14.7261 21.13 14.7261ZM21.13 11.9991C21.13 12.0991 21.053 12.1811 20.956 12.1811C20.9091 12.1792 20.8648 12.1592 20.8325 12.1252C20.8002 12.0912 20.7824 12.0459 20.783 11.9991C20.783 11.8991 20.86 11.8171 20.956 11.8171C21.053 11.8171 21.13 11.8991 21.13 11.9991Z" fill="#C51918"/>
<path fill-rule="evenodd" clip-rule="evenodd" d="M15.686 16.8551C15.686 16.8551 12.922 16.3081 12.771 15.2511C12.62 14.1941 12.621 13.0691 12.621 13.0691L12.365 13.7561C12.365 13.7561 12.352 12.8201 12.878 12.1521C13.404 11.4841 12.221 12.5951 12.221 12.5951C12.221 12.5951 12.82 11.6501 13.069 11.5601C13.319 11.4701 12.068 12.1521 12.068 12.1521C12.068 12.1521 12.426 11.3601 12.704 11.1361C12.984 10.9111 12.068 11.5601 12.068 11.5601C12.068 11.5601 12.275 10.7751 12.522 10.5871C12.769 10.3991 11.712 11.5601 11.712 11.5601C11.712 11.5601 12.271 9.76506 12.585 9.59706C12.899 9.43006 12.067 9.92706 12.067 9.92706C12.067 9.92706 12.577 9.15806 13.033 8.77706C13.49 8.39506 12.209 8.93906 12.365 8.93906C12.365 8.93906 12.829 8.41606 13.095 8.26906C13.361 8.12206 12.068 8.77706 12.068 8.77706C12.068 8.77706 12.996 7.75206 13.274 7.60106C13.553 7.45106 11.908 8.41506 11.908 8.41506C11.908 8.41506 12.004 7.96806 12.046 7.64906C12.086 7.32906 11.283 8.52406 11.393 9.59706C11.502 10.6711 10.955 8.77706 10.955 8.77706C10.955 8.77706 10.735 9.18706 11.27 10.2651L10.69 9.45406C10.69 9.45406 10.77 10.1901 10.955 10.5871C11.141 10.9841 10.429 9.92706 10.429 9.92706C10.429 9.92706 10.293 10.5871 10.429 10.5871C10.429 10.5871 11.242 11.6731 11.272 11.9891C11.302 12.3061 10.359 10.8591 10.233 10.8591C10.107 10.8591 10.037 11.3241 10.233 11.3241C10.429 11.3241 10.8 11.9891 10.8 11.9891C10.8 11.9891 10.318 11.6411 10.214 11.6201C10.111 11.6001 10.296 11.8271 10.429 11.9901C10.429 11.9901 10.052 12.2971 10.08 12.5301C10.108 12.7631 11.11 12.8131 11.545 13.9201C11.545 13.9201 10.644 13.4441 10.429 13.4441C10.214 13.4441 10.775 13.9411 10.955 14.1061C11.135 14.2701 10.677 13.9411 10.553 14.1061C10.429 14.2701 11.24 14.9721 11.393 14.9721H10.8C10.8 14.9721 10.998 15.2521 11.272 15.2521C11.546 15.2521 12.522 15.6901 12.522 15.8321C12.522 15.9751 11.698 15.6501 11.545 15.6501C11.393 15.6501 12.621 16.8101 13.275 16.8551C13.927 16.8991 14.34 17.0751 14.621 17.0751H15.101L13.771 17.7521H14.213C14.791 17.7521 15.232 17.9121 15.459 17.5811C15.685 17.2491 15.686 16.8551 15.686 16.8551Z" fill="#00A854"/>
<path fill-rule="evenodd" clip-rule="evenodd" d="M16.087 8.90496L16.128 8.88196V8.92896C16.321 9.03496 16.805 9.28396 17.121 9.28396C17.521 9.28396 18.066 8.88196 18.066 8.88196L18.977 10.168C18.977 10.168 18.363 11.455 18.833 13.026C19.303 14.597 18.808 15.81 16.72 15.945C16.72 15.945 16.308 16.023 16.128 16.148V16.263C16.1274 16.2343 16.1137 16.207 16.087 16.181C16.0604 16.207 16.0464 16.2343 16.045 16.263V16.147C15.865 16.023 15.453 15.945 15.453 15.945C13.365 15.81 12.871 14.598 13.34 13.026C13.81 11.454 13.196 10.168 13.196 10.168L14.108 8.88196C14.108 8.88196 14.652 9.28396 15.053 9.28396C15.368 9.28396 15.853 9.03396 16.045 8.92896V8.88196L16.087 8.90496Z" fill="#E8AA00"/>
<mask id="mask0_42_442" style="mask-type:luminance" maskUnits="userSpaceOnUse" x="11" y="6" width="10" height="12">
<path d="M11.177 6.88098H20.177V17.881H11.177V6.88098Z" fill="white"/>
<path d="M16.087 8.90496L16.128 8.88196V8.92896C16.321 9.03496 16.805 9.28396 17.121 9.28396C17.521 9.28396 18.066 8.88196 18.066 8.88196L18.977 10.168C18.977 10.168 18.363 11.455 18.833 13.026C19.303 14.597 18.808 15.81 16.72 15.945C16.72 15.945 16.308 16.023 16.128 16.148V16.263C16.1274 16.2343 16.1137 16.207 16.087 16.181C16.0604 16.207 16.0464 16.2343 16.045 16.263V16.147C15.865 16.023 15.453 15.945 15.453 15.945C13.365 15.81 12.871 14.598 13.34 13.026C13.81 11.454 13.196 10.168 13.196 10.168L14.108 8.88196C14.108 8.88196 14.652 9.28396 15.053 9.28396C15.368 9.28396 15.853 9.03396 16.045 8.92896V8.88196L16.087 8.90496Z" fill="black"/>
</mask>
<g mask="url(#mask0_42_442)">
<path d="M16.128 8.88195H17.128V7.12195L15.616 8.02195L16.128 8.88195ZM16.087 8.90495L15.594 9.77495L16.087 10.0549L16.58 9.77495L16.087 8.90495ZM16.128 8.92895H15.128V9.51895L15.645 9.80395L16.128 8.92895ZM18.066 8.88195L18.882 8.30395L18.292 7.47095L17.472 8.07695L18.066 8.88195ZM18.977 10.1679L19.88 10.5979L20.133 10.0689L19.793 9.58995L18.977 10.1679ZM16.72 15.9449L16.656 14.9469L16.594 14.9509L16.534 14.9619L16.72 15.9449ZM16.128 16.1479L15.56 15.3249L15.128 15.6229V16.1479H16.128ZM16.087 16.1809L16.787 15.4669L16.087 14.7799L15.387 15.4669L16.087 16.1809ZM16.045 16.1469H17.045V15.6229L16.614 15.3249L16.045 16.1469ZM15.453 15.9449L15.64 14.9619L15.58 14.9509L15.518 14.9469L15.453 15.9449ZM13.196 10.1679L12.38 9.58995L12.041 10.0699L12.294 10.5989L13.196 10.1679ZM14.108 8.88195L14.702 8.07695L13.881 7.47095L13.291 8.30395L14.108 8.88195ZM16.045 8.92895L16.528 9.80395L17.045 9.51895V8.92895H16.045ZM16.045 8.88195L16.557 8.02195L15.045 7.12195V8.88195H16.045ZM16.128 8.88195L15.616 8.02195L15.614 8.02395L15.594 8.03495L16.58 9.77495L16.62 9.75195L16.633 9.74495L16.638 9.74195L16.64 9.74095L16.128 8.88195ZM17.128 8.92895V8.88195H15.128V8.92895H17.128ZM15.645 9.80395C15.759 9.86695 15.965 9.97595 16.2 10.0719C16.403 10.1549 16.756 10.2839 17.12 10.2839V8.28395C17.163 8.28395 17.167 8.28995 17.12 8.27795C17.0645 8.26199 17.0101 8.24262 16.957 8.21995C16.8391 8.16986 16.7236 8.11413 16.611 8.05295L15.645 9.80395ZM17.12 10.2839C17.588 10.2839 18.015 10.0729 18.219 9.96295C18.3661 9.88326 18.508 9.79441 18.644 9.69695L18.654 9.68995L18.657 9.68795L18.659 9.68695C18.659 9.68595 18.66 9.68595 18.066 8.88195L17.472 8.07695L17.474 8.07595L17.475 8.07495L17.425 8.10895C17.385 8.13495 17.33 8.16895 17.268 8.20295C17.204 8.23761 17.15 8.26228 17.106 8.27695C17.056 8.29495 17.065 8.28395 17.12 8.28395V10.2839ZM17.25 9.45895L18.161 10.7459L19.793 9.58995L18.882 8.30395L17.25 9.45895ZM18.977 10.1679C18.075 9.73695 18.075 9.73795 18.074 9.73895V9.74095L18.072 9.74395L18.058 9.77495L18.028 9.84295C18.0047 9.89895 17.9767 9.97362 17.944 10.0669C17.584 11.1154 17.5599 12.2501 17.875 13.3129L19.791 12.7399C19.5834 12.0331 19.6161 11.2773 19.884 10.5909L19.882 10.5939L19.881 10.5959V10.5979L18.977 10.1679ZM17.875 13.3129C18.073 13.9729 17.994 14.3269 17.89 14.4909C17.804 14.6269 17.535 14.8909 16.656 14.9469L16.784 16.9429C17.994 16.8649 19.016 16.4539 19.581 15.5579C20.13 14.6899 20.063 13.6509 19.791 12.7399L17.875 13.3129ZM16.72 15.9449L16.534 14.9619H16.531L16.529 14.9629L16.522 14.9649C16.516 14.9649 16.509 14.9663 16.501 14.9689C16.4072 14.9879 16.3142 15.0103 16.222 15.0359C16.097 15.0719 15.802 15.1579 15.56 15.3249L16.697 16.9699C16.649 17.0029 16.627 17.0079 16.659 16.9949C16.6843 16.9856 16.7183 16.9746 16.761 16.9619C16.8099 16.9484 16.8593 16.9367 16.909 16.9269H16.907L16.72 15.9449ZM17.128 16.2629V16.1469H15.128V16.2629H17.128ZM15.386 16.8949C15.2204 16.7263 15.1277 16.4993 15.128 16.2629H17.128C17.128 15.8559 16.909 15.5869 16.787 15.4669L15.386 16.8949ZM15.386 15.4669C15.264 15.5869 15.046 15.8559 15.046 16.2629H17.046C17.046 16.6129 16.856 16.8259 16.787 16.8949L15.386 15.4669ZM17.046 16.2629L17.045 16.1469H15.046V16.2629H17.046ZM15.454 15.9449L15.267 16.9269H15.265H15.27C15.3178 16.9369 15.3651 16.9486 15.412 16.9619C15.456 16.9746 15.49 16.9856 15.514 16.9949C15.547 17.0079 15.524 17.0029 15.477 16.9699L16.614 15.3249C16.4096 15.1943 16.1859 15.0967 15.951 15.0359C15.85 15.0076 15.7479 14.9833 15.645 14.9629H15.641L15.454 15.9449ZM12.382 12.7399C12.11 13.6499 12.044 14.6899 12.592 15.5579C13.158 16.4539 14.18 16.8649 15.389 16.9429L15.518 14.9469C14.638 14.8899 14.37 14.6269 14.283 14.4909C14.18 14.3269 14.101 13.9739 14.299 13.3129L12.382 12.7399ZM13.196 10.1679L12.293 10.5979V10.5959L12.291 10.5939V10.5919L12.29 10.5909L12.298 10.6099C12.3073 10.6306 12.3213 10.6673 12.34 10.7199C12.376 10.8249 12.424 10.9859 12.46 11.1879C12.535 11.5929 12.56 12.1419 12.382 12.7399L14.299 13.3129C14.6432 12.1472 14.5786 10.8989 14.116 9.77495L14.102 9.74495L14.1 9.74095V9.73895C14.099 9.73795 14.099 9.73695 13.196 10.1679ZM13.291 8.30495L12.381 9.59095L14.012 10.7469L14.924 9.45995L13.291 8.30495ZM15.053 8.28495C15.108 8.28495 15.117 8.29495 15.067 8.27795C15.0109 8.25815 14.9567 8.23338 14.905 8.20395C14.8345 8.16574 14.7674 8.12333 14.702 8.07695L14.107 8.88295L13.514 9.68695L13.516 9.68895L13.52 9.69095L13.529 9.69795C13.568 9.72706 13.608 9.75475 13.649 9.78095C13.724 9.82995 13.83 9.89595 13.955 9.96395C14.159 10.0739 14.585 10.2839 15.053 10.2839V8.28495ZM15.563 8.05395C15.4504 8.11512 15.335 8.17086 15.217 8.22095C15.1639 8.24362 15.1095 8.26299 15.054 8.27895C15.007 8.29095 15.011 8.28495 15.053 8.28495V10.2839C15.417 10.2839 15.771 10.1549 15.973 10.0729C16.1625 9.99318 16.3477 9.90373 16.528 9.80495L15.563 8.05395ZM17.045 8.92995V8.88295H15.045V8.92995H17.045ZM16.045 8.88295L15.533 9.74095L15.534 9.74195L15.536 9.74295L15.54 9.74595L15.553 9.75295L15.593 9.77595L16.58 8.03595L16.56 8.02495L16.556 8.02295L16.557 8.02195L16.045 8.88295Z" fill="#E8AA00"/>
</g>
<mask id="mask1_42_442" style="mask-type:luminance" maskUnits="userSpaceOnUse" x="12" y="7" width="9" height="11">
<path fill-rule="evenodd" clip-rule="evenodd" d="M16.087 8.90496L16.128 8.88196V8.92896C16.321 9.03496 16.805 9.28396 17.121 9.28396C17.521 9.28396 18.066 8.88196 18.066 8.88196L18.977 10.168C18.977 10.168 18.363 11.455 18.833 13.026C19.303 14.597 18.808 15.81 16.72 15.945C16.72 15.945 16.308 16.023 16.128 16.148V16.263C16.1274 16.2343 16.1137 16.207 16.087 16.181C16.0604 16.207 16.0464 16.2343 16.045 16.263V16.147C15.865 16.023 15.453 15.945 15.453 15.945C13.365 15.81 12.871 14.598 13.34 13.026C13.81 11.454 13.196 10.168 13.196 10.168L14.108 8.88196C14.108 8.88196 14.652 9.28396 15.053 9.28396C15.368 9.28396 15.853 9.03396 16.045 8.92896V8.88196L16.087 8.90496Z" fill="white"/>
<mask id="mask2_42_442" style="mask-type:luminance" maskUnits="userSpaceOnUse" x="11" y="6" width="10" height="12">
<path d="M11.177 6.88098H20.177V17.881H11.177V6.88098Z" fill="white"/>
<path d="M16.087 8.90496L16.128 8.88196V8.92896C16.321 9.03496 16.805 9.28396 17.121 9.28396C17.521 9.28396 18.066 8.88196 18.066 8.88196L18.977 10.168C18.977 10.168 18.363 11.455 18.833 13.026C19.303 14.597 18.808 15.81 16.72 15.945C16.72 15.945 16.308 16.023 16.128 16.148V16.263C16.1274 16.2343 16.1137 16.207 16.087 16.181C16.0604 16.207 16.0464 16.2343 16.045 16.263V16.147C15.865 16.023 15.453 15.945 15.453 15.945C13.365 15.81 12.871 14.598 13.34 13.026C13.81 11.454 13.196 10.168 13.196 10.168L14.108 8.88196C14.108 8.88196 14.652 9.28396 15.053 9.28396C15.368 9.28396 15.853 9.03396 16.045 8.92896V8.88196L16.087 8.90496Z" fill="black"/>
</mask>
<g mask="url(#mask2_42_442)">
<path d="M16.128 8.88195H17.128V7.12195L15.616 8.02195L16.128 8.88195ZM16.087 8.90495L15.594 9.77495L16.087 10.0549L16.58 9.77495L16.087 8.90495ZM16.128 8.92895H15.128V9.51895L15.645 9.80395L16.128 8.92895ZM18.066 8.88195L18.882 8.30395L18.292 7.47095L17.472 8.07695L18.066 8.88195ZM18.977 10.1679L19.88 10.5979L20.133 10.0689L19.793 9.58995L18.977 10.1679ZM16.72 15.9449L16.656 14.9469L16.594 14.9509L16.534 14.9619L16.72 15.9449ZM16.128 16.1479L15.56 15.3249L15.128 15.6229V16.1479H16.128ZM16.087 16.1809L16.787 15.4669L16.087 14.7799L15.387 15.4669L16.087 16.1809ZM16.045 16.1469H17.045V15.6229L16.614 15.3249L16.045 16.1469ZM15.453 15.9449L15.64 14.9619L15.58 14.9509L15.518 14.9469L15.453 15.9449ZM13.196 10.1679L12.38 9.58995L12.041 10.0699L12.294 10.5989L13.196 10.1679ZM14.108 8.88195L14.702 8.07695L13.881 7.47095L13.291 8.30395L14.108 8.88195ZM16.045 8.92895L16.528 9.80395L17.045 9.51895V8.92895H16.045ZM16.045 8.88195L16.557 8.02195L15.045 7.12195V8.88195H16.045ZM16.128 8.88195L15.616 8.02195L15.614 8.02395L15.594 8.03495L16.58 9.77495L16.62 9.75195L16.633 9.74495L16.638 9.74195L16.64 9.74095L16.128 8.88195ZM17.128 8.92895V8.88195H15.128V8.92895H17.128ZM15.645 9.80395C15.759 9.86695 15.965 9.97595 16.2 10.0719C16.403 10.1549 16.756 10.2839 17.12 10.2839V8.28395C17.163 8.28395 17.167 8.28995 17.12 8.27795C17.0645 8.26199 17.0101 8.24262 16.957 8.21995C16.8391 8.16986 16.7236 8.11413 16.611 8.05295L15.645 9.80395ZM17.12 10.2839C17.588 10.2839 18.015 10.0729 18.219 9.96295C18.3661 9.88326 18.508 9.79441 18.644 9.69695L18.654 9.68995L18.657 9.68795L18.659 9.68695C18.659 9.68595 18.66 9.68595 18.066 8.88195L17.472 8.07695L17.474 8.07595L17.475 8.07495L17.425 8.10895C17.385 8.13495 17.33 8.16895 17.268 8.20295C17.204 8.23761 17.15 8.26228 17.106 8.27695C17.056 8.29495 17.065 8.28395 17.12 8.28395V10.2839ZM17.25 9.45895L18.161 10.7459L19.793 9.58995L18.882 8.30395L17.25 9.45895ZM18.977 10.1679C18.075 9.73695 18.075 9.73795 18.074 9.73895V9.74095L18.072 9.74395L18.058 9.77495L18.028 9.84295C18.0047 9.89895 17.9767 9.97362 17.944 10.0669C17.584 11.1154 17.5599 12.2501 17.875 13.3129L19.791 12.7399C19.5834 12.0331 19.6161 11.2773 19.884 10.5909L19.882 10.5939L19.881 10.5959V10.5979L18.977 10.1679ZM17.875 13.3129C18.073 13.9729 17.994 14.3269 17.89 14.4909C17.804 14.6269 17.535 14.8909 16.656 14.9469L16.784 16.9429C17.994 16.8649 19.016 16.4539 19.581 15.5579C20.13 14.6899 20.063 13.6509 19.791 12.7399L17.875 13.3129ZM16.72 15.9449L16.534 14.9619H16.531L16.529 14.9629L16.522 14.9649C16.516 14.9649 16.509 14.9663 16.501 14.9689C16.4072 14.9879 16.3142 15.0103 16.222 15.0359C16.097 15.0719 15.802 15.1579 15.56 15.3249L16.697 16.9699C16.649 17.0029 16.627 17.0079 16.659 16.9949C16.6843 16.9856 16.7183 16.9746 16.761 16.9619C16.8099 16.9484 16.8593 16.9367 16.909 16.9269H16.907L16.72 15.9449ZM17.128 16.2629V16.1469H15.128V16.2629H17.128ZM15.386 16.8949C15.2204 16.7263 15.1277 16.4993 15.128 16.2629H17.128C17.128 15.8559 16.909 15.5869 16.787 15.4669L15.386 16.8949ZM15.386 15.4669C15.264 15.5869 15.046 15.8559 15.046 16.2629H17.046C17.046 16.6129 16.856 16.8259 16.787 16.8949L15.386 15.4669ZM17.046 16.2629L17.045 16.1469H15.046V16.2629H17.046ZM15.454 15.9449L15.267 16.9269H15.265H15.27C15.3178 16.9369 15.3651 16.9486 15.412 16.9619C15.456 16.9746 15.49 16.9856 15.514 16.9949C15.547 17.0079 15.524 17.0029 15.477 16.9699L16.614 15.3249C16.4096 15.1943 16.1859 15.0967 15.951 15.0359C15.85 15.0076 15.7479 14.9833 15.645 14.9629H15.641L15.454 15.9449ZM12.382 12.7399C12.11 13.6499 12.044 14.6899 12.592 15.5579C13.158 16.4539 14.18 16.8649 15.389 16.9429L15.518 14.9469C14.638 14.8899 14.37 14.6269 14.283 14.4909C14.18 14.3269 14.101 13.9739 14.299 13.3129L12.382 12.7399ZM13.196 10.1679L12.293 10.5979V10.5959L12.291 10.5939V10.5919L12.29 10.5909L12.298 10.6099C12.3073 10.6306 12.3213 10.6673 12.34 10.7199C12.376 10.8249 12.424 10.9859 12.46 11.1879C12.535 11.5929 12.56 12.1419 12.382 12.7399L14.299 13.3129C14.6432 12.1472 14.5786 10.8989 14.116 9.77495L14.102 9.74495L14.1 9.74095V9.73895C14.099 9.73795 14.099 9.73695 13.196 10.1679ZM13.291 8.30495L12.381 9.59095L14.012 10.7469L14.924 9.45995L13.291 8.30495ZM15.053 8.28495C15.108 8.28495 15.117 8.29495 15.067 8.27795C15.0109 8.25815 14.9567 8.23338 14.905 8.20395C14.8345 8.16574 14.7674 8.12333 14.702 8.07695L14.107 8.88295L13.514 9.68695L13.516 9.68895L13.52 9.69095L13.529 9.69795C13.568 9.72706 13.608 9.75475 13.649 9.78095C13.724 9.82995 13.83 9.89595 13.955 9.96395C14.159 10.0739 14.585 10.2839 15.053 10.2839V8.28495ZM15.563 8.05395C15.4504 8.11512 15.335 8.17086 15.217 8.22095C15.1639 8.24362 15.1095 8.26299 15.054 8.27895C15.007 8.29095 15.011 8.28495 15.053 8.28495V10.2839C15.417 10.2839 15.771 10.1549 15.973 10.0729C16.1625 9.99318 16.3477 9.90373 16.528 9.80495L15.563 8.05395ZM17.045 8.92995V8.88295H15.045V8.92995H17.045ZM16.045 8.88295L15.533 9.74095L15.534 9.74195L15.536 9.74295L15.54 9.74595L15.553 9.75295L15.593 9.77595L16.58 8.03595L16.56 8.02495L16.556 8.02295L16.557 8.02195L16.045 8.88295Z" fill="white"/>
</g>
</mask>
<g mask="url(#mask1_42_442)">
<path d="M13.3041 8.72693H16.0871V12.5449H13.3041V8.72693Z" fill="#67BAFF"/>
<path d="M16.087 8.72693H18.87V12.5449H16.087V8.72693Z" fill="white"/>
<path d="M12.957 12.9089H19.914V17.2729H12.957V12.9089Z" fill="#C51918"/>
<path d="M17.435 12.2749H17.087V9.65991H17.435V12.2749Z" fill="#C9A951"/>
<path d="M17.294 11.0859L17.124 11.3889L16.524 11.0539L16.694 10.7499L17.294 11.0859ZM17.294 10.3579L17.124 10.6619L16.524 10.3269L16.694 10.0229L17.294 10.3579Z" fill="#C9A951"/>
<path d="M17.22 11.0859L17.39 11.3889L17.99 11.0539L17.82 10.7499L17.22 11.0859ZM17.22 10.3579L17.39 10.6619L17.99 10.3269L17.82 10.0229L17.22 10.3579Z" fill="#C9A951"/>
<path fill-rule="evenodd" clip-rule="evenodd" d="M17.73 13.7049C17.73 13.7049 17.971 13.4279 17.971 13.5669C17.971 13.7049 17.971 13.9369 17.851 13.9369C17.729 13.9369 17.166 13.8269 16.951 13.5669C16.736 13.3069 16.281 12.8529 15.697 12.9599C15.113 13.0669 14.419 13.8249 14.248 13.8249C14.078 13.8249 13.703 14.4089 13.975 14.8649C14.248 15.3209 14.712 15.1799 14.712 15.3119C14.712 15.4449 14.828 15.4599 15.262 15.4599C15.696 15.4599 15.856 15.6129 16.232 15.6129C16.609 15.6129 16.108 15.6069 16.714 15.4599C17.32 15.3119 17.779 14.8649 17.426 14.8649H16.714C16.469 14.8649 15.925 15.0409 15.925 14.8649C15.925 14.6889 16.045 14.3109 16.38 14.4999C16.714 14.6889 17.642 14.8329 17.971 14.4999C18.3 14.1679 18.415 13.9669 18.358 13.5669C18.3 13.1669 17.85 13.2809 17.85 13.2809L17.73 13.7049Z" fill="#FBCD17"/>
<path fill-rule="evenodd" clip-rule="evenodd" d="M15.376 9.56995C15.166 9.75295 15.302 10.4239 14.958 10.4239C14.614 10.4239 14.131 9.92195 14.009 10.2529C13.888 10.5829 14.009 10.4729 14.009 10.7549C14.009 11.0369 13.718 11.8199 13.864 11.9529C14.009 12.0849 14.159 12.4349 14.133 12.2709C14.107 12.1069 13.997 11.8679 14.043 11.6069C13.998 11.3369 14.288 11.0789 14.288 11.0789C14.288 11.0789 14.257 11.3589 14.234 11.4619C14.234 11.4619 14.138 11.6719 14.177 11.8119C14.177 11.8119 14.275 12.2069 14.316 12.2339C14.316 12.2339 14.342 11.3009 14.372 11.1469C14.402 10.9929 14.615 11.3209 14.686 11.2839C14.686 11.2839 14.711 11.9209 14.674 11.9969C14.674 11.9969 14.599 12.1479 14.627 12.1969C14.627 12.1969 14.697 12.3709 14.755 12.3199C14.755 12.3199 14.757 12.3169 14.787 12.1469C14.787 12.1469 14.752 12.0439 14.807 11.8099C14.807 11.8099 14.864 11.2959 14.888 11.4079C14.888 11.4079 14.878 11.6499 14.905 11.7759C14.905 11.7759 14.949 12.0859 14.958 12.1209C14.958 12.1209 15.168 12.4199 15.173 12.2929C15.173 12.2929 14.972 12.0529 15.015 11.8709C15.015 11.8709 14.9 11.3539 15.061 11.2379C15.061 11.2379 15.487 11.0409 15.513 10.7029C15.513 10.7029 15.575 10.3179 15.586 10.1419C15.586 10.1419 15.492 10.0899 15.686 9.99895C15.686 9.99895 15.997 9.87895 15.803 9.71295" fill="#D18219"/>
</g>
</g>
<defs>
<clipPath id="clip0_42_442">
<rect width="32" height="24" fill="white"/>
</clipPath>
</defs>
</svg>
