<svg width="32" height="24" viewBox="0 0 32 24" fill="none" xmlns="http://www.w3.org/2000/svg">
<g clip-path="url(#clip0_42_298)">
<path fill-rule="evenodd" clip-rule="evenodd" d="M0 0V24H32V0H0Z" fill="#F7FCFF"/>
<mask id="mask0_42_298" style="mask-type:luminance" maskUnits="userSpaceOnUse" x="0" y="0" width="32" height="24">
<path fill-rule="evenodd" clip-rule="evenodd" d="M0 0V24H32V0H0Z" fill="white"/>
</mask>
<g mask="url(#mask0_42_298)">
<path fill-rule="evenodd" clip-rule="evenodd" d="M0 0V8H32V0H0Z" fill="#BF2714"/>
<path fill-rule="evenodd" clip-rule="evenodd" d="M0 16V24H32V16H0Z" fill="#272727"/>
<path d="M12.26 10.22L13.26 10.266L13.008 15.736L12.01 15.69L12.26 10.22ZM13.304 10.56L14.302 10.616L14.052 15.052L13.053 14.995L13.304 10.56Z" fill="#C09302"/>
<path d="M14.348 10.892L15.345 10.974L15.095 14.03L14.098 13.948L14.348 10.892ZM19.74 10.22L18.74 10.266L18.991 15.736L19.991 15.69L19.74 10.22ZM18.696 10.56L17.698 10.616L17.948 15.052L18.947 14.995L18.696 10.56Z" fill="#C09302"/>
<path d="M17.652 10.892L16.655 10.974L16.905 14.03L17.902 13.948L17.652 10.892ZM15.973 15.327L14.998 15.103L15.411 13.303L16.386 13.526L15.973 15.327Z" fill="#C09302"/>
<path d="M16.72 15.327L17.694 15.103L17.282 13.303L16.307 13.526L16.72 15.327Z" fill="#C09302"/>
<path d="M16.472 15.31H15.472V13.542H16.472V15.31ZM14.635 10.913L15.635 10.938L15.576 13.318L14.576 13.294L14.635 10.913ZM16.3741 10.913L17.3741 10.938L17.3151 13.318L16.3151 13.294L16.3741 10.913Z" fill="#C09302"/>
<path d="M13.338 15.923L13.598 14.957C14.658 15.242 15.473 15.384 16.028 15.384C16.583 15.384 17.399 15.242 18.46 14.957L18.72 15.923C17.581 16.229 16.689 16.383 16.029 16.383C15.369 16.383 14.476 16.229 13.338 15.923ZM12.282 10.223C12.216 9.56299 12.602 9.11499 13.257 9.17199C13.473 9.19099 13.715 9.25399 14.037 9.36399L14.223 9.42899C14.666 9.58599 14.786 9.62699 14.811 9.63199C14.713 9.60999 15.002 9.08699 15.069 8.99899C15.076 9.05499 15.043 9.04699 14.963 9.03099L14.061 8.85099L14.703 8.19099C14.8159 8.07751 14.951 7.98843 15.0998 7.92926C15.2486 7.87009 15.4079 7.84208 15.568 7.84699C15.603 7.84699 15.636 7.84499 15.744 7.83899L15.914 7.82999C16.539 7.80999 16.986 7.98599 16.986 8.62799C16.986 8.85799 17.016 9.22699 17.063 9.50699C17.079 9.60099 17.11 9.68899 17.018 9.72799C17.022 9.69499 17.241 9.60799 17.581 9.46599L17.621 9.44899C18.609 9.03699 18.724 8.99899 19.043 9.19199C19.255 9.32199 19.457 9.55199 19.683 9.89899L18.846 10.446C18.7 10.223 18.584 10.088 18.529 10.05C18.654 10.138 18.231 10.278 18.007 10.372L17.967 10.389C17.197 10.71 17.097 10.749 16.877 10.749C16.278 10.749 16.064 10.136 16.005 9.25899C15.82 9.86599 15.27 10.633 14.815 10.633C14.617 10.633 14.713 10.664 13.888 10.371L13.716 10.311C13.5401 10.2445 13.3578 10.1966 13.172 10.168L13.212 10.128L12.282 10.223Z" fill="#C09302"/>
</g>
</g>
<defs>
<clipPath id="clip0_42_298">
<rect width="32" height="24" fill="white"/>
</clipPath>
</defs>
</svg>
