<svg width="32" height="24" viewBox="0 0 32 24" fill="none" xmlns="http://www.w3.org/2000/svg">
<g clip-path="url(#clip0_42_119)">
<path fill-rule="evenodd" clip-rule="evenodd" d="M0 0V24H32V0H0Z" fill="#F7FCFF"/>
<mask id="mask0_42_119" style="mask-type:luminance" maskUnits="userSpaceOnUse" x="0" y="0" width="32" height="24">
<path fill-rule="evenodd" clip-rule="evenodd" d="M0 0V24H32V0H0Z" fill="white"/>
</mask>
<g mask="url(#mask0_42_119)">
<path fill-rule="evenodd" clip-rule="evenodd" d="M0 0V8H32V0H0Z" fill="#E31D1C"/>
<path fill-rule="evenodd" clip-rule="evenodd" d="M0 16V24H32V16H0Z" fill="#3D58DB"/>
<path d="M10.076 6.397H21.476V10.397H10.076V6.397Z" fill="#E31D1C"/>
<path d="M10.652 8.96H20.781C20.798 9.729 20.803 11.07 20.803 12.361C20.8026 13.3427 20.7999 14.3243 20.795 15.306V15.532L20.794 15.535L20.77 15.658C20.6209 16.3372 20.3443 16.9819 19.955 17.558C19.261 18.573 18 19.615 15.65 19.615C13.303 19.615 12.103 18.575 11.464 17.57C11.08 16.9557 10.8287 16.2681 10.726 15.551L10.724 15.535V15.49L10.721 15.294L10.713 14.585L10.687 12.365C10.672 11.095 10.658 9.753 10.652 8.96Z" fill="#F7FCFF" stroke="#E31D1C" stroke-width="1.125"/>
<mask id="mask1_42_119" style="mask-type:luminance" maskUnits="userSpaceOnUse" x="10" y="8" width="12" height="13">
<path d="M10.652 8.96H20.781C20.798 9.729 20.803 11.07 20.803 12.361C20.8026 13.3427 20.7999 14.3243 20.795 15.306V15.532L20.794 15.535L20.77 15.658C20.6209 16.3372 20.3443 16.9819 19.955 17.558C19.261 18.573 18 19.615 15.65 19.615C13.303 19.615 12.103 18.575 11.464 17.57C11.08 16.9557 10.8287 16.2681 10.726 15.551L10.724 15.535V15.49L10.721 15.294L10.713 14.585L10.687 12.365C10.672 11.095 10.658 9.753 10.652 8.96Z" fill="white" stroke="white" stroke-width="1.125"/>
</mask>
<g mask="url(#mask1_42_119)">
<path fill-rule="evenodd" clip-rule="evenodd" d="M10.4979 9.04H12.6079V11.182H10.4979V9.04ZM14.7179 11.182H12.6079V13.324H10.4979V15.466H12.6079V17.608H10.4979V19.749H12.6079V17.608H14.7179V19.749H16.8259V17.608H18.9359V19.749H21.0459V17.608H18.9359V15.466H21.0459V13.324H18.9359V11.182H21.0459V9.04H18.9359V11.182H16.8259V9.04H14.7169L14.7179 11.182ZM14.7179 13.324V11.182H16.8259V13.324H14.7179ZM14.7179 15.466V13.324H12.6079V15.466H14.7179ZM16.8259 15.466V17.608H14.7169V15.466H16.8259ZM16.8259 15.466V13.324H18.9359V15.466H16.8259Z" fill="#F50100"/>
</g>
<path fill-rule="evenodd" clip-rule="evenodd" d="M10.4531 8.163C10.4531 8.163 11.1051 7.814 11.6621 7.635C12.2181 7.455 12.6581 7.357 12.6581 7.357L11.8301 4.305L10.1721 3.685L9.23206 5.233L10.4531 8.163Z" fill="#56C6F5" stroke="white" stroke-width="0.5"/>
<path d="M10.181 6.49L10.371 6.399C10.568 6.819 10.828 6.949 11.183 6.817C11.547 6.682 11.694 6.425 11.643 6.019L11.851 5.991C11.916 6.496 11.713 6.848 11.256 7.018C10.792 7.192 10.422 7.006 10.181 6.491" fill="white"/>
<path fill-rule="evenodd" clip-rule="evenodd" d="M10.632 5.542L10.45 5.652C10.4411 5.65747 10.4307 5.66021 10.4202 5.65986C10.4096 5.65952 10.3995 5.65611 10.3908 5.65005C10.3822 5.644 10.3756 5.63556 10.3717 5.62578C10.3678 5.616 10.3669 5.6053 10.369 5.595L10.41 5.386L10.224 5.284C10.2144 5.27921 10.2063 5.27163 10.201 5.26223C10.1957 5.25283 10.1933 5.24206 10.1941 5.23129C10.195 5.22052 10.1991 5.21026 10.2058 5.20183C10.2126 5.1934 10.2217 5.18719 10.232 5.184L10.434 5.116L10.429 4.903C10.4287 4.89243 10.4315 4.88198 10.437 4.87297C10.4425 4.86395 10.4506 4.85676 10.4602 4.85229C10.4698 4.84781 10.4804 4.84625 10.4909 4.8478C10.5014 4.84935 10.5112 4.85394 10.519 4.861L10.679 5.001L10.862 4.891C10.902 4.867 10.952 4.902 10.943 4.948L10.902 5.158L11.088 5.26C11.0974 5.26492 11.1051 5.27249 11.1102 5.28176C11.1153 5.29103 11.1176 5.30159 11.1167 5.31214C11.1159 5.32269 11.1119 5.33275 11.1054 5.34108C11.0989 5.34941 11.0901 5.35564 11.08 5.359L10.878 5.427L10.883 5.64C10.8834 5.65057 10.8806 5.66101 10.8751 5.67003C10.8695 5.67904 10.8615 5.68624 10.8519 5.69071C10.8423 5.69518 10.8316 5.69674 10.8212 5.69519C10.8107 5.69365 10.8009 5.68906 10.793 5.682L10.632 5.542Z" fill="#FECA00"/>
<path fill-rule="evenodd" clip-rule="evenodd" d="M14.54 7.076C14.54 7.076 15.097 7.026 15.682 7.038C16.266 7.048 16.761 7.053 16.761 7.053L17.047 4.043L15.794 2.913L14.402 4.07L14.54 7.076Z" fill="#56C6F5" stroke="white" stroke-width="0.5"/>
<path fill-rule="evenodd" clip-rule="evenodd" d="M15.75 6.585C16.233 6.585 16.279 6.064 16.279 5.709C16.155 5.512 16.18 5.371 15.785 5.371C15.389 5.371 15.345 5.491 15.229 5.709C15.229 6.064 15.268 6.585 15.75 6.585ZM16.293 5.113C16.775 5.113 16.822 4.592 16.822 4.237C16.698 4.04 16.723 3.899 16.328 3.899C15.932 3.899 15.888 4.019 15.772 4.237C15.772 4.592 15.811 5.113 16.293 5.113ZM15.238 5.113C15.721 5.113 15.767 4.592 15.767 4.237C15.644 4.04 15.668 3.899 15.273 3.899C14.878 3.899 14.833 4.019 14.717 4.237C14.717 4.592 14.756 5.113 15.238 5.113Z" fill="#FECA00"/>
<path d="M12.445 7.605L12.373 7.36L11.506 4.416L11.465 4.276L11.565 4.172L12.805 2.888L12.954 2.734L13.129 2.858L14.492 3.826L14.586 3.893L14.596 4.008L14.848 6.933L14.871 7.193L14.61 7.203L14.608 7.204H14.604L14.586 7.205L14.518 7.208L14.285 7.222C14.083 7.23421 13.8816 7.25322 13.681 7.279C13.4685 7.31532 13.2582 7.36306 13.051 7.422C12.9385 7.45303 12.8265 7.4857 12.715 7.52L12.695 7.526L12.689 7.527H12.688L12.445 7.605Z" fill="#2E42A5" stroke="white" stroke-width="0.5"/>
<mask id="mask2_42_119" style="mask-type:luminance" maskUnits="userSpaceOnUse" x="11" y="2" width="5" height="6">
<path d="M12.445 7.605L12.373 7.36L11.506 4.416L11.465 4.276L11.565 4.172L12.805 2.888L12.954 2.734L13.129 2.858L14.492 3.826L14.586 3.893L14.596 4.008L14.848 6.933L14.871 7.193L14.61 7.203L14.608 7.204H14.604L14.586 7.205L14.518 7.208L14.285 7.222C14.083 7.23421 13.8816 7.25322 13.681 7.279C13.4685 7.31532 13.2582 7.36306 13.051 7.422C12.9385 7.45303 12.8265 7.4857 12.715 7.52L12.695 7.526L12.689 7.527H12.688L12.445 7.605Z" fill="white" stroke="white" stroke-width="0.5"/>
</mask>
<g mask="url(#mask2_42_119)">
<path d="M12.4359 6.638L12.1859 6.048C12.7239 5.812 13.6329 5.668 14.5889 5.611L14.6259 6.253C13.7359 6.305 12.8959 6.437 12.4359 6.638ZM12.0139 5.21L11.7639 4.62C12.3009 4.385 13.4579 4.194 14.4139 4.138L14.4509 4.779C13.5609 4.832 12.4729 5.009 12.0139 5.21Z" fill="#C51918"/>
</g>
<path d="M18.969 7.607L19.037 7.355L19.832 4.406L19.868 4.274L19.776 4.172L18.608 2.893L18.458 2.73L18.278 2.858L16.916 3.826L16.821 3.893L16.811 4.008L16.559 6.933L16.537 7.193L16.798 7.203L16.8 7.204H16.804L16.822 7.205L16.89 7.208L17.122 7.222C17.31 7.234 17.542 7.253 17.727 7.279C17.904 7.304 18.149 7.364 18.357 7.422C18.4695 7.45303 18.5815 7.4857 18.693 7.52L18.713 7.526L18.718 7.527H18.72L18.969 7.607Z" fill="#2E42A5" stroke="white" stroke-width="0.5"/>
<mask id="mask3_42_119" style="mask-type:luminance" maskUnits="userSpaceOnUse" x="16" y="2" width="5" height="6">
<path d="M18.969 7.607L19.037 7.355L19.832 4.406L19.868 4.274L19.776 4.172L18.608 2.893L18.458 2.73L18.278 2.858L16.916 3.826L16.821 3.893L16.811 4.008L16.559 6.933L16.537 7.193L16.798 7.203L16.8 7.204H16.804L16.822 7.205L16.89 7.208L17.122 7.222C17.31 7.234 17.542 7.253 17.727 7.279C17.904 7.304 18.149 7.364 18.357 7.422C18.4695 7.45303 18.5815 7.4857 18.693 7.52L18.713 7.526L18.718 7.527H18.72L18.969 7.607Z" fill="white" stroke="white" stroke-width="0.5"/>
</mask>
<g mask="url(#mask3_42_119)">
<path fill-rule="evenodd" clip-rule="evenodd" d="M18.3979 6.466C18.3979 6.466 18.6919 6.303 18.7339 6.027C18.7759 5.751 19.2309 5.411 19.0039 5.452C18.7769 5.492 18.9069 5.524 18.5769 5.452C18.2469 5.38 17.8219 5.332 17.8219 5.13C17.8219 4.927 18.0339 4.767 17.8609 4.767C17.6869 4.767 17.3179 4.575 17.3919 4.722C17.4669 4.868 17.2219 4.702 17.3439 5.006C17.4659 5.31 17.3179 5.616 17.3919 5.697C17.4669 5.777 17.3439 6.173 17.3439 6.173C17.3439 6.173 17.3889 6.32 17.4679 6.1C17.5459 5.88 17.7179 5.726 17.6329 5.913C17.5459 6.1 17.4369 6.545 17.5349 6.466C17.6354 6.36649 17.7033 6.23889 17.7299 6.1C17.7299 6.027 17.9769 5.741 17.9769 5.957C17.9769 6.173 17.7439 6.343 17.8609 6.343C17.9769 6.343 18.0419 6.389 18.1149 6.173C18.1879 5.957 18.3649 5.814 18.4389 5.957C18.5109 6.1 18.4949 6.092 18.3979 6.279C18.2999 6.466 18.3979 6.466 18.3979 6.466Z" fill="#FECA00"/>
<path fill-rule="evenodd" clip-rule="evenodd" d="M17.7069 4.867L17.5969 4.683C17.7939 4.563 17.9739 4.53 18.1329 4.598C18.2049 4.628 18.2589 4.663 18.4009 4.763L18.4189 4.776C18.5659 4.879 18.6439 4.921 18.6919 4.921V5.135C18.5819 5.135 18.4869 5.084 18.2989 4.952L18.2799 4.939C18.2088 4.88317 18.1321 4.83491 18.0509 4.795C17.9639 4.758 17.8509 4.778 17.7069 4.867ZM17.3609 6.263C17.4229 6.263 17.4729 6.213 17.4729 6.153C17.4732 6.13822 17.4705 6.12353 17.465 6.10982C17.4594 6.09611 17.4512 6.08366 17.4407 6.0732C17.4303 6.06275 17.4178 6.05451 17.4041 6.04897C17.3904 6.04344 17.3757 6.04073 17.3609 6.041C17.3462 6.0406 17.3314 6.04318 17.3177 6.04859C17.3039 6.054 17.2914 6.06213 17.2808 6.07249C17.2703 6.08285 17.2619 6.09523 17.2563 6.10889C17.2506 6.12255 17.2478 6.13722 17.2479 6.152C17.2479 6.214 17.2979 6.263 17.3609 6.263ZM17.6839 6.367C17.6839 6.427 17.6339 6.477 17.5719 6.477C17.5572 6.4774 17.5426 6.47485 17.5289 6.4695C17.5152 6.46416 17.5027 6.45612 17.4922 6.44586C17.4817 6.43561 17.4733 6.42335 17.4676 6.4098C17.4619 6.39626 17.4589 6.3817 17.4589 6.367C17.4589 6.305 17.5089 6.255 17.5719 6.255C17.6339 6.255 17.6839 6.305 17.6839 6.367ZM17.9509 6.469C18.0129 6.469 18.0629 6.419 18.0629 6.359C18.0632 6.34422 18.0605 6.32953 18.055 6.31582C18.0494 6.30211 18.0412 6.28965 18.0307 6.2792C18.0203 6.26875 18.0078 6.26051 17.9941 6.25497C17.9804 6.24944 17.9657 6.24673 17.9509 6.247C17.9362 6.2466 17.9214 6.24918 17.9077 6.25459C17.8939 6.26 17.8814 6.26812 17.8708 6.27849C17.8603 6.28885 17.8519 6.30123 17.8463 6.31489C17.8406 6.32855 17.8378 6.34322 17.8379 6.358C17.8379 6.42 17.8879 6.469 17.9509 6.469ZM18.4159 6.536C18.4159 6.597 18.3659 6.647 18.3029 6.647C18.2883 6.64727 18.2738 6.64462 18.2602 6.63921C18.2466 6.6338 18.2343 6.62574 18.2239 6.6155C18.2134 6.60526 18.2051 6.59304 18.1995 6.57956C18.1938 6.56609 18.1909 6.55162 18.1909 6.537C18.1908 6.50716 18.2025 6.4785 18.2235 6.4573C18.2445 6.43611 18.2731 6.42413 18.3029 6.424C18.3328 6.42387 18.3614 6.43559 18.3826 6.4566C18.4038 6.4776 18.4158 6.50616 18.4159 6.536Z" fill="#C51918"/>
</g>
<path d="M21.352 8.186L21.244 8.435L21.005 8.307L20.999 8.304L20.979 8.293C20.8614 8.23061 20.742 8.17158 20.621 8.116C20.3664 7.99361 20.1046 7.88675 19.837 7.796C19.5401 7.70056 19.24 7.61584 18.937 7.542L18.881 7.529L18.867 7.526L18.864 7.525L18.604 7.467L18.677 7.212L19.523 4.236L19.558 4.115L19.676 4.071L21.335 3.451L21.529 3.379L21.636 3.555L22.576 5.104L22.642 5.214L22.591 5.333L21.352 8.186Z" fill="#56C6F5" stroke="white" stroke-width="0.5"/>
<mask id="mask4_42_119" style="mask-type:luminance" maskUnits="userSpaceOnUse" x="18" y="3" width="5" height="6">
<path d="M21.352 8.186L21.244 8.435L21.005 8.307L20.999 8.304L20.979 8.293C20.8614 8.23061 20.742 8.17158 20.621 8.116C20.3664 7.99361 20.1046 7.88675 19.837 7.796C19.5401 7.70056 19.24 7.61584 18.937 7.542L18.881 7.529L18.867 7.526L18.864 7.525L18.604 7.467L18.677 7.212L19.523 4.236L19.558 4.115L19.676 4.071L21.335 3.451L21.529 3.379L21.636 3.555L22.576 5.104L22.642 5.214L22.591 5.333L21.352 8.186Z" fill="white" stroke="white" stroke-width="0.5"/>
</mask>
<g mask="url(#mask4_42_119)">
<path fill-rule="evenodd" clip-rule="evenodd" d="M21.127 5.09L20.985 5.248C20.978 5.25579 20.969 5.26141 20.9589 5.26417C20.9488 5.26692 20.9382 5.2667 20.9282 5.26353C20.9183 5.26035 20.9094 5.25436 20.9028 5.24628C20.8962 5.2382 20.8921 5.22838 20.891 5.218L20.87 5.005L20.6609 4.962C20.6507 4.95984 20.6412 4.95472 20.6338 4.94726C20.6264 4.93981 20.6213 4.93036 20.6192 4.92005C20.617 4.90975 20.618 4.89905 20.6218 4.88927C20.6257 4.87949 20.6324 4.87105 20.641 4.865L20.813 4.74L20.747 4.538C20.7435 4.52805 20.743 4.51731 20.7456 4.5071C20.7482 4.49689 20.7537 4.48766 20.7615 4.48054C20.7692 4.47342 20.7789 4.46872 20.7893 4.46703C20.7997 4.46533 20.8103 4.46671 20.82 4.471L21.015 4.559L21.157 4.4C21.1639 4.3922 21.173 4.38658 21.183 4.38383C21.1931 4.38107 21.2037 4.38129 21.2137 4.38447C21.2236 4.38764 21.2325 4.39363 21.2391 4.40171C21.2457 4.40979 21.2498 4.41962 21.251 4.43L21.272 4.643L21.481 4.686C21.527 4.696 21.54 4.756 21.501 4.783L21.329 4.908L21.395 5.11C21.3981 5.11989 21.3984 5.13048 21.3957 5.14052C21.393 5.15055 21.3875 5.15959 21.3797 5.16655C21.372 5.17352 21.3625 5.17812 21.3522 5.17979C21.342 5.18147 21.3315 5.18015 21.322 5.176L21.127 5.09Z" fill="#FECA00"/>
<path d="M18.995 6.488L19.207 5.658C20.148 5.907 21.129 6.225 21.848 6.533L21.521 7.323C20.841 7.032 19.898 6.726 18.995 6.488Z" fill="#E31D1C"/>
<path d="M19.283 5.722L19.333 5.514C20.235 5.738 21.193 6.094 21.89 6.427L21.8 6.621C20.9916 6.24175 20.1487 5.94071 19.283 5.722ZM19.016 6.577L19.066 6.368C19.9032 6.57333 20.7178 6.86141 21.498 7.228L21.408 7.422C20.6401 7.06302 19.839 6.78001 19.016 6.577Z" fill="white"/>
<path d="M19.423 6.175L19.616 6.088C19.697 6.278 19.798 6.32 19.966 6.238C20.362 6.046 21.346 6.315 21.346 6.678C21.346 6.82 21.264 6.906 21.138 6.901C21.0475 6.88935 20.9602 6.86013 20.881 6.815L20.837 6.793C20.7848 6.76173 20.7299 6.73529 20.673 6.714L20.743 6.509C20.788 6.526 20.795 6.529 20.931 6.599L20.973 6.619C21.0261 6.65123 21.0848 6.67327 21.146 6.684C21.149 6.684 21.135 6.699 21.135 6.678C21.135 6.518 20.335 6.299 20.055 6.435C19.778 6.569 19.551 6.475 19.423 6.175Z" fill="#272727"/>
</g>
</g>
</g>
<defs>
<clipPath id="clip0_42_119">
<rect width="32" height="24" fill="white"/>
</clipPath>
</defs>
</svg>
