<svg width="32" height="24" viewBox="0 0 32 24" fill="none" xmlns="http://www.w3.org/2000/svg">
<g clip-path="url(#clip0_42_369)">
<path fill-rule="evenodd" clip-rule="evenodd" d="M22 0H32V24H22V0Z" fill="#D9071E"/>
<path fill-rule="evenodd" clip-rule="evenodd" d="M0 0H12V24H0V0Z" fill="#006923"/>
<path fill-rule="evenodd" clip-rule="evenodd" d="M10 0H22V24H10V0Z" fill="white"/>
<path fill-rule="evenodd" clip-rule="evenodd" d="M13.056 8.34201C12.949 8.79701 13.018 8.90401 13.532 8.90401C13.559 8.90401 13.602 8.98001 13.647 9.06201C13.697 9.15201 13.753 9.25001 13.797 9.26501C13.778 9.29001 13.583 9.64301 13.582 10.265C13.582 10.393 13.641 10.605 13.698 10.807C13.761 11.027 13.82 11.238 13.797 11.321C13.759 11.457 13.589 11.309 13.457 11.195C13.382 11.129 13.319 11.075 13.301 11.09C13.207 11.17 13.158 10.543 13.129 10.165C13.116 9.99601 13.107 9.87701 13.099 9.89101C13.0684 9.81092 13.0482 9.72724 13.039 9.64201C13.011 9.45101 12.983 9.26501 12.757 9.26501H12.177V9.69201C12.177 9.69201 12.513 9.69201 12.513 10.487C12.518 10.605 12.675 11.65 13.056 11.656C12.833 11.661 12.834 11.706 12.836 11.731V11.736C12.836 12.376 13.37 12.444 13.869 12.264C14.169 12.155 14.487 11.944 14.726 11.683C15.062 11.314 15.104 10.838 14.662 10.576C14.505 10.483 14.334 10.447 14.095 10.434C14.142 10.294 14.098 10.169 14.063 10.071C14.033 9.98901 14.011 9.92701 14.055 9.89101C14.556 9.48501 14.601 9.11101 14.236 8.77501C14.1849 8.72463 14.1381 8.67011 14.096 8.61201C14.008 8.49701 13.914 8.37601 13.796 8.34201C13.8507 8.23201 13.924 8.10034 14.016 7.94701L13.159 7.43201C13.003 7.69101 13.029 7.89301 13.052 8.07001C13.064 8.16701 13.076 8.25601 13.056 8.34201ZM13.988 11.008L13.972 11.025L13.982 11.015L13.988 11.008Z" fill="#A8AC71"/>
<path fill-rule="evenodd" clip-rule="evenodd" d="M14.3839 7.91302C14.3839 7.91302 13.6969 8.44602 13.8259 9.01302C13.9539 9.58202 15.3079 9.01303 15.1439 8.46303C14.9799 7.91303 14.3839 7.91302 14.3839 7.91302Z" fill="#FCCA3D"/>
<path fill-rule="evenodd" clip-rule="evenodd" d="M19.2661 12.403C19.2661 12.403 20.1911 9.66197 18.7211 8.24297C17.2511 6.82397 15.5511 6.91797 15.5511 6.91797C15.5511 6.91797 15.0621 7.28197 15.5511 7.55897C16.0411 7.83597 15.8361 8.10197 15.8361 8.10197C15.8361 8.10197 15.0161 7.26997 14.4721 7.75597C13.9291 8.24297 14.9801 8.16897 14.8691 8.53497C14.7581 8.90097 14.2861 10.525 14.9751 11.346C15.6651 12.166 14.3231 11.989 14.5961 11.989C14.8691 11.989 15.8361 12.179 15.8361 11.989C15.8361 11.797 16.1721 12.731 16.4601 12.731C16.7471 12.731 16.9701 12.403 16.9701 12.403C16.9701 12.403 17.3731 12.731 17.6191 12.731C17.8641 12.731 18.7211 12.516 18.7211 12.516L17.1011 11.152C17.1011 11.152 17.1991 10.55 16.9701 10.42C16.7401 10.29 18.8111 11.574 18.9741 11.989C19.1361 12.403 19.2661 12.403 19.2661 12.403Z" fill="#8F4620"/>
<path d="M11.066 11.727C11.066 11.727 11.216 11.248 11.377 11.215C11.517 11.186 11.809 11.445 11.809 11.445C12.329 14.334 13.588 15.463 15.675 15.463C17.787 15.463 19.067 14.605 19.814 11.94C19.814 11.94 20.211 11.534 20.351 11.58C20.503 11.628 20.694 12.165 20.694 12.165C19.837 15.223 18.218 16.584 15.674 16.584C13.107 16.584 11.664 15.044 11.066 11.727Z" fill="#9FAB2F"/>
<path fill-rule="evenodd" clip-rule="evenodd" d="M13.334 13.656C13.334 13.656 16.339 14.294 17.524 14.294C18.709 14.294 16.484 15.262 15.615 15.262C15.235 15.262 14.777 15.0313 14.241 14.57C14.145 14.488 14.238 14.303 13.945 14.3C13.537 14.297 13.03 14.201 13.079 14.143C13.125 14.088 13.719 14.071 13.662 14.01C13.567 13.91 13.334 13.656 13.334 13.656Z" fill="#2FC2DC"/>
<path d="M16.5 14.1H14.834C14.7418 14.1 14.667 14.1747 14.667 14.267V15.004C14.667 15.0962 14.7418 15.171 14.834 15.171H16.5C16.5922 15.171 16.667 15.0962 16.667 15.004V14.267C16.667 14.1747 16.5922 14.1 16.5 14.1Z" fill="#F9AA51"/>
<path d="M12.175 12.136C12.175 12.136 12.175 11.761 12.429 11.562C12.72 11.333 12.994 11.562 12.994 11.562C14.06 13.08 15.653 13.58 17.881 13.058C17.881 13.058 18.547 13.276 18.581 13.419C18.623 13.601 18.109 14.032 18.109 14.032C15.504 14.642 13.49 14.01 12.175 12.136Z" fill="#259485"/>
<path fill-rule="evenodd" clip-rule="evenodd" d="M16.591 12.35C16.591 12.35 15.378 12.99 15.782 12.99C16.187 12.99 17.77 13.309 17.462 12.99C17.154 12.67 16.591 12.35 16.591 12.35ZM15.156 11.588C15.156 11.588 14.926 10.922 14.446 10.922C13.966 10.922 14.101 11.469 13.871 11.469C13.64 11.469 14.086 11.853 14.284 11.853C14.483 11.853 15.156 11.588 15.156 11.588Z" fill="#FCCA3D"/>
</g>
<defs>
<clipPath id="clip0_42_369">
<rect width="32" height="24" fill="white"/>
</clipPath>
</defs>
</svg>
