<svg width="32" height="24" viewBox="0 0 32 24" fill="none" xmlns="http://www.w3.org/2000/svg">
<g clip-path="url(#clip0_42_265)">
<path fill-rule="evenodd" clip-rule="evenodd" d="M0 0V24H32V0H0Z" fill="#2E42A5"/>
<mask id="mask0_42_265" style="mask-type:luminance" maskUnits="userSpaceOnUse" x="0" y="0" width="32" height="24">
<path fill-rule="evenodd" clip-rule="evenodd" d="M0 0V24H32V0H0Z" fill="white"/>
</mask>
<g mask="url(#mask0_42_265)">
<path fill-rule="evenodd" clip-rule="evenodd" d="M0 0V12H32V0H0Z" fill="#FECA00"/>
<path fill-rule="evenodd" clip-rule="evenodd" d="M0 18V24H32V18H0Z" fill="#E31D1C"/>
<path fill-rule="evenodd" clip-rule="evenodd" d="M9.71704 5.71399C9.71704 5.71399 13.873 3.83699 14.251 4.04999C14.629 4.26299 14.72 4.87099 15.046 4.87099C15.372 4.87099 16.029 4.67899 16.303 4.67899C16.577 4.67899 16.848 4.87099 16.848 4.87099H18.018V4.22099L23.327 5.71399C23.327 5.71399 20.231 6.11899 19.997 6.11899C19.763 6.11899 19.997 6.45199 19.997 6.45199C19.997 6.45199 19.556 6.11899 18.884 6.11899C18.211 6.11899 16.848 6.81299 16.848 6.81299L17.344 7.87899L16.848 8.19299L16.303 7.87899C16.303 7.87899 16.338 7.00299 16.103 7.00299C15.869 7.00299 15.697 7.56599 15.697 7.87899C15.697 8.19199 15.047 8.19299 15.047 8.19299L15.337 7.60599C15.337 7.60599 15.627 6.63299 15.047 6.63299C14.466 6.63299 11.821 6.11899 11.821 6.11899L11.145 6.45199L11.387 5.71399H9.71704Z" fill="#7B2900"/>
<path fill-rule="evenodd" clip-rule="evenodd" d="M11.501 15.774C10.853 14.316 11.501 11.087 11.501 11.087L12.762 11.747C12.612 12.501 12.589 13.926 13.061 15.091C13.533 16.256 15.316 17.173 15.316 17.173C15.316 17.173 16.216 17.373 14.848 17.518C13.482 17.663 12.15 17.232 11.501 15.774ZM14.733 21.517C14.327 21.517 15.546 18.807 15.546 18.807L15.922 18.055C15.922 18.055 15.968 21.244 15.71 21.517C15.545 21.692 15.357 21.642 15.136 21.584C15.0051 21.5445 14.8697 21.522 14.733 21.517Z" fill="#E31D1C"/>
<path fill-rule="evenodd" clip-rule="evenodd" d="M10.327 15.298C9.78303 13.121 10.631 10.165 10.631 10.165L11.485 10.775C11.359 11.9 11.359 14.811 12.081 16.072C12.803 17.333 15.968 17.863 15.968 17.863C15.968 17.863 15.344 18.325 14.198 18.541C13.052 18.757 10.87 17.475 10.327 15.298ZM13.956 21.218L14.458 19.425L15.165 18.559H15.675C15.675 18.559 14.958 21.639 14.458 21.639C14.133 21.639 14.23 21.461 14.338 21.263C14.397 21.156 14.458 21.043 14.458 20.95C14.458 20.684 13.956 21.217 13.956 21.217" fill="#2E42A5"/>
<path fill-rule="evenodd" clip-rule="evenodd" d="M9.49796 15.671C9.22796 13.797 9.76796 9.32001 9.76796 9.32001L10.621 9.93001C10.235 11.014 10.355 14.126 10.621 15.671C10.887 17.216 13.406 18.148 13.406 18.148C13.406 18.148 12.782 18.609 11.636 18.825C10.492 19.041 9.76796 17.545 9.49796 15.671ZM13.687 19.416C13.201 19.416 13.898 18.719 13.898 18.719H15.062C15.062 18.719 14.664 19.703 14.172 19.703C13.926 19.703 13.927 19.631 13.927 19.559C13.928 19.487 13.929 19.416 13.687 19.416Z" fill="#FECA00"/>
<path fill-rule="evenodd" clip-rule="evenodd" d="M20.365 15.774C21.015 14.316 20.365 11.087 20.365 11.087L19.105 11.747C19.255 12.501 19.278 13.926 18.805 15.091C18.335 16.256 16.551 17.173 16.551 17.173C16.551 17.173 15.651 17.373 17.018 17.518C18.385 17.663 19.717 17.232 20.365 15.774ZM17.133 21.517C17.54 21.517 16.321 18.807 16.321 18.807L15.945 18.055C15.945 18.055 15.899 21.244 16.157 21.517C16.322 21.692 16.51 21.642 16.73 21.584C16.854 21.552 16.988 21.517 17.133 21.517Z" fill="#E31D1C"/>
<path fill-rule="evenodd" clip-rule="evenodd" d="M21.54 15.298C22.083 13.121 21.235 10.165 21.235 10.165L20.3819 10.775C20.5069 11.9 20.5069 14.811 19.7859 16.072C19.0639 17.334 15.8979 17.863 15.8979 17.863C15.8979 17.863 16.5229 18.325 17.6679 18.541C18.8129 18.757 20.996 17.475 21.54 15.298ZM17.9099 21.218L17.4089 19.425L16.7009 18.559H16.1919C16.1919 18.559 16.9089 21.639 17.4089 21.639C17.7339 21.639 17.6369 21.461 17.5289 21.263C17.4699 21.156 17.4089 21.043 17.4089 20.95C17.4089 20.684 17.9109 21.217 17.9109 21.217" fill="#2E42A5"/>
<path fill-rule="evenodd" clip-rule="evenodd" d="M22.3691 15.671C22.6391 13.797 22.0991 9.32001 22.0991 9.32001L21.2461 9.93001C21.6321 11.014 21.5121 14.126 21.2461 15.671C20.9801 17.216 18.4601 18.148 18.4601 18.148C18.4601 18.148 19.0851 18.609 20.2301 18.825C21.3751 19.041 22.1001 17.545 22.3691 15.671ZM18.1801 19.416C18.6661 19.416 17.9681 18.719 17.9681 18.719H16.8051C16.8051 18.719 17.2031 19.703 17.6951 19.703C17.9411 19.703 17.9401 19.631 17.9391 19.559C17.9391 19.487 17.9381 19.416 18.1801 19.416Z" fill="#FECA00"/>
<path d="M10.203 10.446L10.294 9.894L11.895 9.997L10.681 8.739L11.091 8.35L12.732 10.052L11.328 7.412L11.814 7.122L13.092 9.003L12.482 7.049L13.007 6.84L14.972 10.76L14.218 10.711L14.292 10.948L14.934 11.118L14.788 11.662L14.49 11.582L14.768 12.474L14.285 11.764L15.126 13.344L13.06 11.204L10.203 10.446ZM21.926 10.446L21.835 9.894L20.234 9.997L21.448 8.739L21.038 8.35L19.396 10.052L20.801 7.412L20.315 7.122L19.037 9.003L19.647 7.049L19.122 6.84L17.157 10.76L17.911 10.711L17.837 10.948L17.195 11.118L17.341 11.662L17.639 11.582L17.361 12.474L17.844 11.764L17.003 13.344L19.069 11.204L21.926 10.446Z" fill="#6FAE21"/>
<path d="M11.0671 21.311L10.6541 20.925L22.8441 8.091L23.2571 8.476L11.0671 21.311Z" fill="#171401"/>
<path fill-rule="evenodd" clip-rule="evenodd" d="M22.535 8.18999L23.16 8.77899L23.512 7.80399L22.535 8.18999ZM11.376 21.309L10.659 20.837L10.426 21.804L11.376 21.309Z" fill="#CECECC"/>
<path d="M10.16 19.399L9.74805 19.013L21.938 6.17801L22.35 6.56401L10.16 19.399Z" fill="#171401"/>
<path fill-rule="evenodd" clip-rule="evenodd" d="M21.628 6.277L22.253 6.867L22.606 5.892L21.628 6.277ZM10.47 19.396L9.75204 18.924L9.51904 19.892L10.47 19.396Z" fill="#CECECC"/>
<path d="M21.253 21.311L21.666 20.925L9.47599 8.091L9.06299 8.476L21.253 21.311Z" fill="#171401"/>
<path fill-rule="evenodd" clip-rule="evenodd" d="M9.78501 8.18999L9.16001 8.77899L8.80701 7.80399L9.78501 8.18999ZM20.944 21.309L21.661 20.837L21.894 21.804L20.944 21.309Z" fill="#CECECC"/>
<path d="M22.387 19.849L22.799 19.463L10.609 6.62799L10.196 7.01399L22.387 19.849Z" fill="#171401"/>
<path fill-rule="evenodd" clip-rule="evenodd" d="M10.918 6.72701L10.293 7.31701L9.94104 6.34201L10.918 6.72701ZM22.077 19.846L22.795 19.374L23.027 20.342L22.077 19.846Z" fill="#CECECC"/>
<path d="M13.667 16.375H18.2V18.625H13.667V16.375Z" fill="#B74E01"/>
<path d="M15.948 17.287C16.846 17.287 17.623 16.709 18.163 15.852C18.704 14.992 19.031 13.819 19.031 12.537C19.031 11.255 18.704 10.082 18.163 9.22199C17.623 8.36499 16.846 7.78699 15.948 7.78699C15.048 7.78699 14.272 8.36499 13.733 9.22199C13.191 10.082 12.864 11.254 12.864 12.537C12.864 13.82 13.191 14.992 13.733 15.852C14.273 16.709 15.049 17.287 15.948 17.287Z" fill="#7DB8FF" stroke="#FECA00" stroke-width="0.5"/>
<mask id="mask1_42_265" style="mask-type:luminance" maskUnits="userSpaceOnUse" x="12" y="7" width="8" height="11">
<path d="M15.948 17.287C16.846 17.287 17.623 16.709 18.163 15.852C18.704 14.992 19.031 13.819 19.031 12.537C19.031 11.255 18.704 10.082 18.163 9.22199C17.623 8.36499 16.846 7.78699 15.948 7.78699C15.048 7.78699 14.272 8.36499 13.733 9.22199C13.191 10.082 12.864 11.254 12.864 12.537C12.864 13.82 13.191 14.992 13.733 15.852C14.273 16.709 15.049 17.287 15.948 17.287Z" fill="white" stroke="white" stroke-width="0.5"/>
</mask>
<g mask="url(#mask1_42_265)">
<path fill-rule="evenodd" clip-rule="evenodd" d="M12.8801 12.61H14.4921C14.4921 12.61 15.6001 12.855 15.0461 13.049C14.4921 13.242 14.4921 13.306 14.4921 13.581V15.081C14.4921 15.296 14.8861 15.757 14.0551 15.757C13.2251 15.757 12.5081 12.341 12.5081 12.341L12.8801 12.61ZM19.1801 12.796C19.1801 12.796 17.6811 13.091 16.6551 12.993C15.6291 12.894 15.1791 12.796 15.1791 12.796C15.1791 12.796 15.8941 13.167 16.1491 13.479C16.4021 13.791 16.9231 14.329 17.4531 14.329C17.9831 14.329 18.7971 14.833 18.7971 14.833L19.1801 12.796Z" fill="#6FAE21"/>
<path fill-rule="evenodd" clip-rule="evenodd" d="M13.3191 10.136C13.3191 10.136 14.5531 10.374 14.8511 10.732C15.1481 11.089 14.4581 11.446 16.2571 11.089C18.0561 10.732 19.4841 10.109 19.4841 11.089C19.4841 12.069 19.3271 12.972 18.5531 12.972H15.1091C12.7481 12.972 11.4611 13.695 11.6261 12.532C11.7911 11.371 13.3191 10.136 13.3191 10.136Z" fill="#F7FCFF"/>
</g>
</g>
</g>
<defs>
<clipPath id="clip0_42_265">
<rect width="32" height="24" fill="white"/>
</clipPath>
</defs>
</svg>
