<svg width="32" height="24" viewBox="0 0 32 24" fill="none" xmlns="http://www.w3.org/2000/svg">
<g clip-path="url(#clip0_42_162)">
<path fill-rule="evenodd" clip-rule="evenodd" d="M0 0V24H32V0H0Z" fill="#F7FCFF"/>
<mask id="mask0_42_162" style="mask-type:luminance" maskUnits="userSpaceOnUse" x="0" y="0" width="32" height="24">
<path fill-rule="evenodd" clip-rule="evenodd" d="M0 0V24H32V0H0Z" fill="white"/>
</mask>
<g mask="url(#mask0_42_162)">
<path fill-rule="evenodd" clip-rule="evenodd" d="M16 18.22C19.203 18.22 21.799 15.462 21.799 12.061C21.799 8.66 19.203 5.902 16 5.902C12.797 5.902 10.2 8.66 10.2 12.061C10.2 15.462 12.797 18.22 16 18.22Z" fill="#3D58DB"/>
<mask id="mask1_42_162" style="mask-type:luminance" maskUnits="userSpaceOnUse" x="10" y="5" width="12" height="14">
<path fill-rule="evenodd" clip-rule="evenodd" d="M16 18.22C19.203 18.22 21.799 15.462 21.799 12.061C21.799 8.66 19.203 5.902 16 5.902C12.797 5.902 10.2 8.66 10.2 12.061C10.2 15.462 12.797 18.22 16 18.22Z" fill="white"/>
</mask>
<g mask="url(#mask1_42_162)">
<path fill-rule="evenodd" clip-rule="evenodd" d="M22.0019 12.533C22.0019 12.533 21.6759 9.629 19.2659 9.471C16.8559 9.313 16.2059 11.601 16.0659 12.207C15.9259 12.813 15.5749 14.429 13.0359 14.429C10.4989 14.429 10.2699 10.319 10.2699 10.319V5.472H22.0019V12.533Z" fill="#E31D1C"/>
</g>
<path fill-rule="evenodd" clip-rule="evenodd" d="M7.29996 2.052L8.21396 2.88L3.97396 7.832L3.05896 7.004L7.29996 2.052ZM8.80796 3.392L9.72296 4.219L5.63496 9.099L4.71996 8.271L8.80796 3.392ZM11.225 5.575L10.31 4.747L6.20996 9.664L7.12596 10.492L11.225 5.575ZM25.364 1.705L24.448 2.53L26.036 4.392L26.951 3.568L25.364 1.705ZM28.185 5.132L27.27 5.956L28.858 7.819L29.773 6.995L28.185 5.132ZM21.428 5.212L22.343 4.388L23.93 6.251L23.015 7.076L21.428 5.212ZM25.165 7.815L24.25 8.639L25.837 10.502L26.752 9.678L25.165 7.815ZM22.995 3.831L23.911 3.007L28.329 8.387L27.414 9.212L22.995 3.831ZM26.055 14.243L25.132 13.415L23.532 15.285L24.454 16.113L26.055 14.243ZM23.364 17.534L22.441 16.706L20.84 18.576L21.763 19.404L23.364 17.534ZM28.047 16.033L28.969 16.86L27.369 18.73L26.446 17.903L28.047 16.033ZM26.41 20.228L25.487 19.4L23.886 21.27L24.809 22.098L26.41 20.228ZM23.967 17.978L24.889 18.806L23.219 20.803L22.296 19.975L23.967 17.978ZM27.631 15.478L26.708 14.651L25.037 16.648L25.96 17.475L27.631 15.478ZM6.40696 14.89L7.32196 14.065L11.406 18.745L10.491 19.57L6.40696 14.89ZM7.35896 18.983L8.27496 18.158L9.99996 20.054L9.08496 20.879L7.35896 18.983ZM4.30896 16.691L3.39396 17.516L7.49996 22.26L8.41496 21.434L4.30896 16.691ZM4.96096 16.152L5.87596 15.327L7.36996 17.08L6.45496 17.905L4.96096 16.152Z" fill="#272727"/>
</g>
</g>
<defs>
<clipPath id="clip0_42_162">
<rect width="32" height="24" fill="white"/>
</clipPath>
</defs>
</svg>
