<svg width="32" height="24" viewBox="0 0 32 24" fill="none" xmlns="http://www.w3.org/2000/svg">
<g clip-path="url(#clip0_42_397)">
<path fill-rule="evenodd" clip-rule="evenodd" d="M0 0V24H32V0H0Z" fill="#2E42A5"/>
<mask id="mask0_42_397" style="mask-type:luminance" maskUnits="userSpaceOnUse" x="0" y="0" width="18" height="14">
<path d="M0 0H18V14H0V0Z" fill="white"/>
</mask>
<g mask="url(#mask0_42_397)">
<path d="M0 0H18V14H0V0Z" fill="#2E42A5"/>
<path d="M-2.00403 13L1.95597 14.737L18.09 1.88899L20.18 -0.69301L15.944 -1.27301L9.36397 4.26299L4.06697 7.99299L-2.00403 13Z" fill="#F7FCFF"/>
<path d="M-1.46204 14.217L0.555964 15.225L19.429 -0.932983H16.596L-1.46204 14.217Z" fill="#F50100"/>
<path d="M20.0039 13L16.0439 14.737L-0.0900536 1.88899L-2.18005 -0.69301L2.05595 -1.27301L8.63595 4.26299L13.9329 7.99299L20.0039 13Z" fill="#F7FCFF"/>
<path d="M19.87 13.873L17.851 14.882L9.81499 7.96398L7.432 7.19098L-2.38 -0.684021H0.452995L10.26 7.00398L12.865 7.93098L19.87 13.873Z" fill="#F50100"/>
<path fill-rule="evenodd" clip-rule="evenodd" d="M9.985 0H7.985V6H0V8H7.985V14H9.985V8H18V6H9.985V0Z" fill="#F50100"/>
<path fill-rule="evenodd" clip-rule="evenodd" d="M6.485 0H11.485V4.5H18V9.5H11.485L11.5 14H6.5L6.485 9.5H0V4.5H6.485V0ZM7.985 6H0V8H7.985V14H9.985V8H18V6H9.985V0H7.985V6Z" fill="#F7FCFF"/>
</g>
<path fill-rule="evenodd" clip-rule="evenodd" d="M24.1 7.46999L23.84 8.98499L25.2 8.26999L26.56 8.98499L26.3 7.47099L27.4 6.39799L25.88 6.17799L25.2 4.79999L24.52 6.17699L23 6.39799L24.1 7.46999ZM20.1 13.07L19.84 14.585L21.2 13.87L22.56 14.585L22.3 13.071L23.4 11.998L21.88 11.778L21.2 10.4L20.52 11.777L19 11.998L20.1 13.07ZM23.427 19.463L23.09 21.427L24.853 20.5L26.616 21.427L26.28 19.464L27.706 18.073L25.735 17.786L24.853 16L23.971 17.787L22 18.073L23.427 19.463ZM26.839 14.58L27.099 13.068L26 11.997L27.518 11.776L28.198 10.4L28.877 11.776L30.395 11.996L29.296 13.068L29.556 14.58L28.198 13.866L26.839 14.58Z" fill="#F50100"/>
<path d="M23.84 8.98502L23.643 8.95102L23.575 9.35102L23.933 9.16102L23.84 8.98502ZM24.1 7.47102L24.297 7.50402L24.315 7.40102L24.24 7.32702L24.1 7.47102ZM25.2 8.27002L25.293 8.09302L25.2 8.04302L25.107 8.09302L25.2 8.27002ZM26.56 8.98502L26.467 9.16202L26.825 9.35002L26.757 8.95002L26.56 8.98502ZM26.3 7.47002L26.16 7.32602L26.085 7.40002L26.103 7.50302L26.3 7.47002ZM27.4 6.39702L27.54 6.54102L27.83 6.25802L27.429 6.19902L27.4 6.39702ZM25.88 6.17702L25.7 6.26502L25.747 6.35902L25.851 6.37402L25.88 6.17702ZM25.2 4.80002L25.38 4.71102L25.2 4.34802L25.02 4.71102L25.2 4.80002ZM24.52 6.17702L24.549 6.37502L24.653 6.36002L24.7 6.26602L24.52 6.17702ZM23 6.39802L22.971 6.20002L22.571 6.25902L22.861 6.54202L23 6.39802ZM19.84 14.585L19.643 14.551L19.575 14.951L19.933 14.761L19.84 14.585ZM20.1 13.071L20.297 13.104L20.315 13.001L20.24 12.927L20.1 13.071ZM21.2 13.87L21.293 13.693L21.2 13.643L21.107 13.693L21.2 13.87ZM22.56 14.585L22.467 14.762L22.825 14.95L22.757 14.55L22.56 14.585ZM22.3 13.071L22.16 12.927L22.085 13.001L22.103 13.104L22.3 13.071ZM23.4 11.998L23.54 12.142L23.83 11.859L23.429 11.8L23.4 11.998ZM21.88 11.778L21.7 11.866L21.747 11.96L21.851 11.975L21.88 11.778ZM21.2 10.4L21.38 10.312L21.2 9.94802L21.02 10.312L21.2 10.4ZM20.52 11.777L20.549 11.975L20.653 11.96L20.7 11.866L20.52 11.777ZM19 11.998L18.971 11.801L18.571 11.859L18.861 12.142L19 11.998ZM23.09 21.428L22.893 21.393L22.824 21.793L23.183 21.604L23.09 21.428ZM23.427 19.463L23.624 19.497L23.642 19.394L23.566 19.32L23.427 19.463ZM24.853 20.5L24.946 20.323L24.853 20.274L24.76 20.323L24.853 20.5ZM26.616 21.427L26.523 21.604L26.883 21.793L26.813 21.393L26.616 21.427ZM26.28 19.464L26.14 19.32L26.065 19.394L26.083 19.497L26.28 19.464ZM27.706 18.073L27.846 18.216L28.136 17.933L27.736 17.875L27.706 18.073ZM25.735 17.786L25.555 17.875L25.602 17.969L25.706 17.984L25.735 17.786ZM24.853 16L25.033 15.912L24.853 15.548L24.673 15.912L24.853 16ZM23.971 17.787L24.001 17.984L24.104 17.969L24.151 17.875L23.971 17.787ZM22 18.073L21.971 17.875L21.571 17.933L21.861 18.216L22 18.073ZM27.099 13.068L27.296 13.102L27.314 12.998L27.238 12.924L27.099 13.068ZM26.839 14.58L26.642 14.546L26.574 14.946L26.932 14.757L26.839 14.58ZM26 11.997L25.971 11.799L25.571 11.857L25.861 12.14L26 11.997ZM27.518 11.776L27.548 11.974L27.651 11.959L27.698 11.864L27.518 11.776ZM28.198 10.4L28.377 10.312L28.197 9.94802L28.018 10.312L28.198 10.4ZM28.877 11.776L28.697 11.864L28.744 11.959L28.848 11.974L28.877 11.776ZM30.395 11.996L30.535 12.14L30.825 11.857L30.424 11.799L30.395 11.996ZM29.296 13.068L29.156 12.924L29.081 12.998L29.099 13.102L29.296 13.068ZM29.556 14.58L29.463 14.757L29.821 14.946L29.753 14.546L29.556 14.58ZM28.198 13.866L28.291 13.689L28.198 13.64L28.105 13.689L28.198 13.866ZM24.038 9.01802L24.297 7.50402L23.903 7.43702L23.643 8.95102L24.038 9.01802ZM25.107 8.09302L23.747 8.80802L23.933 9.16102L25.293 8.44702L25.107 8.09302ZM26.653 8.80802L25.293 8.09302L25.107 8.44702L26.467 9.16202L26.653 8.80802ZM26.103 7.50402L26.363 9.01802L26.757 8.95102L26.497 7.43702L26.103 7.50402ZM27.26 6.25502L26.16 7.32602L26.44 7.61402L27.54 6.54102L27.26 6.25502ZM25.851 6.37402L27.371 6.59602L27.429 6.19902L25.909 5.98002L25.851 6.37402ZM25.021 4.88802L25.701 6.26602L26.059 6.08902L25.38 4.71102L25.021 4.88802ZM24.699 6.26602L25.379 4.88802L25.02 4.71102L24.341 6.08902L24.699 6.26602ZM23.029 6.59602L24.549 6.37502L24.491 5.98002L22.971 6.20002L23.029 6.59602ZM24.24 7.32702L23.139 6.25502L22.861 6.54202L23.96 7.61402L24.24 7.32702ZM20.037 14.618L20.297 13.104L19.903 13.037L19.643 14.551L20.037 14.618ZM21.107 13.693L19.747 14.408L19.933 14.761L21.293 14.047L21.107 13.693ZM22.653 14.408L21.293 13.693L21.107 14.047L22.467 14.762L22.653 14.408ZM22.103 13.104L22.363 14.619L22.757 14.55L22.497 13.037L22.103 13.104ZM23.26 11.855L22.16 12.927L22.44 13.214L23.54 12.142L23.26 11.855ZM21.851 11.975L23.371 12.196L23.429 11.8L21.909 11.58L21.851 11.975ZM21.021 10.489L21.7 11.866L22.059 11.689L21.38 10.312L21.021 10.489ZM20.699 11.866L21.379 10.489L21.021 10.311L20.341 11.689L20.699 11.866ZM19.029 12.196L20.549 11.975L20.491 11.58L18.971 11.801L19.029 12.196ZM20.24 12.927L19.139 11.855L18.861 12.142L19.96 13.214L20.24 12.927ZM23.287 21.461L23.624 19.497L23.23 19.43L22.893 21.393L23.287 21.461ZM24.76 20.323L22.997 21.25L23.183 21.604L24.946 20.677L24.76 20.323ZM26.71 21.25L24.946 20.323L24.76 20.677L26.523 21.604L26.71 21.25ZM26.083 19.497L26.419 21.461L26.813 21.393L26.477 19.43L26.083 19.497ZM27.567 17.93L26.14 19.32L26.42 19.607L27.846 18.216L27.567 17.93ZM25.707 17.984L27.677 18.271L27.736 17.875L25.764 17.589L25.707 17.984ZM24.674 16.088L25.555 17.875L25.915 17.698L25.032 15.911L24.674 16.088ZM24.151 17.875L25.032 16.088L24.674 15.911L23.792 17.698L24.151 17.875ZM22.029 18.271L24.001 17.984L23.943 17.589L21.971 17.875L22.029 18.271ZM23.566 19.32L22.14 17.93L21.861 18.216L23.287 19.606L23.566 19.32ZM26.902 13.034L26.642 14.546L27.037 14.614L27.296 13.102L26.902 13.034ZM25.861 12.14L26.96 13.21L27.238 12.924L26.14 11.854L25.861 12.14ZM27.49 11.578L25.971 11.799L26.029 12.194L27.548 11.974L27.49 11.578ZM28.018 10.312L27.339 11.688L27.698 11.864L28.377 10.488L28.018 10.312ZM29.056 11.688L28.376 10.312L28.018 10.489L28.697 11.864L29.056 11.688ZM30.424 11.799L28.905 11.578L28.848 11.974L30.366 12.194L30.424 11.799ZM29.436 13.211L30.535 12.14L30.255 11.853L29.156 12.924L29.436 13.211ZM29.753 14.546L29.493 13.034L29.099 13.102L29.359 14.614L29.753 14.546ZM28.105 14.043L29.463 14.757L29.649 14.403L28.291 13.689L28.105 14.043ZM26.933 14.757L28.291 14.043L28.105 13.689L26.746 14.403L26.933 14.757Z" fill="#F7FCFF"/>
</g>
<defs>
<clipPath id="clip0_42_397">
<rect width="32" height="24" fill="white"/>
</clipPath>
</defs>
</svg>
