<svg width="32" height="24" viewBox="0 0 32 24" fill="none" xmlns="http://www.w3.org/2000/svg">
<g clip-path="url(#clip0_42_319)">
<path fill-rule="evenodd" clip-rule="evenodd" d="M0 0V24H32V0H0Z" fill="#F7FCFF"/>
<mask id="mask0_42_319" style="mask-type:luminance" maskUnits="userSpaceOnUse" x="0" y="0" width="32" height="24">
<path fill-rule="evenodd" clip-rule="evenodd" d="M0 0V24H32V0H0Z" fill="white"/>
</mask>
<g mask="url(#mask0_42_319)">
<path fill-rule="evenodd" clip-rule="evenodd" d="M0 0V8H32V0H0Z" fill="#FF8C1A"/>
<path fill-rule="evenodd" clip-rule="evenodd" d="M0 16V24H32V16H0Z" fill="#5EAA22"/>
<path fill-rule="evenodd" clip-rule="evenodd" d="M12 12C12 13.0609 12.4214 14.0783 13.1716 14.8284C13.9217 15.5786 14.9391 16 16 16C17.0609 16 18.0783 15.5786 18.8284 14.8284C19.5786 14.0783 20 13.0609 20 12C20 10.9391 19.5786 9.92172 18.8284 9.17157C18.0783 8.42143 17.0609 8 16 8C14.9391 8 13.9217 8.42143 13.1716 9.17157C12.4214 9.92172 12 10.9391 12 12ZM19 12C19 12.7956 18.6839 13.5587 18.1213 14.1213C17.5587 14.6839 16.7956 15 16 15C15.2044 15 14.4413 14.6839 13.8787 14.1213C13.3161 13.5587 13 12.7956 13 12C13 11.2044 13.3161 10.4413 13.8787 9.87868C14.4413 9.31607 15.2044 9 16 9C16.7956 9 17.5587 9.31607 18.1213 9.87868C18.6839 10.4413 19 11.2044 19 12Z" fill="#3D58DB"/>
<path fill-rule="evenodd" clip-rule="evenodd" d="M15.995 12.86L15.424 15.981L15.755 12.826L14.328 15.66L15.535 12.726L13.368 15.042L15.352 12.568L12.62 14.18L15.222 12.364L12.146 13.141L15.153 12.132L11.983 12.011L15.153 11.891L12.146 10.881L15.222 11.658L12.62 9.84302L15.352 11.455L13.368 8.98001L15.535 11.296L14.328 8.36202L15.755 11.196L15.424 8.04102L15.994 11.161L16.565 8.04102L16.234 11.196L17.661 8.36202L16.454 11.296L18.62 8.98001L16.636 11.455L19.368 9.84302L16.766 11.658L19.842 10.881L16.834 11.891L20.004 12.011L16.834 12.132L19.842 13.142L16.766 12.364L19.368 14.18L16.636 12.568L18.62 15.042L16.453 12.726L17.66 15.66L16.233 12.826L16.564 15.981L15.995 12.86Z" fill="#3D58DB"/>
</g>
</g>
<defs>
<clipPath id="clip0_42_319">
<rect width="32" height="24" fill="white"/>
</clipPath>
</defs>
</svg>
