<svg width="32" height="24" viewBox="0 0 32 24" fill="none" xmlns="http://www.w3.org/2000/svg">
<g clip-path="url(#clip0_42_246)">
<path fill-rule="evenodd" clip-rule="evenodd" d="M0 0H32V24H0V0Z" fill="#E31D1C"/>
<path fill-rule="evenodd" clip-rule="evenodd" d="M15.016 4.54801L14.006 5.15801L14.236 3.96801L13.395 3.07801L14.534 3.02901L15.016 1.91901L15.498 3.02901H16.635L15.795 3.96901L16.048 5.15901L15.016 4.54801ZM7.01804 9.60701L4.13704 11.158L4.79404 8.13201L2.39404 5.86701L5.64404 5.74401L7.01804 2.91801L8.39204 5.74401H11.635L9.24004 8.13201L9.96004 11.158L7.01804 9.60701ZM17.016 8.54801L16.006 9.15801L16.236 7.96801L15.395 7.07801L16.534 7.02901L17.016 5.91901L17.498 7.02901H18.635L17.795 7.96901L18.048 9.15901L17.016 8.54801ZM16.016 12.548L15.006 13.158L15.236 11.968L14.395 11.078L15.534 11.029L16.016 9.91901L16.498 11.029H17.635L16.795 11.969L17.048 13.159L16.016 12.548ZM13.016 15.548L12.006 16.158L12.236 14.968L11.395 14.078L12.534 14.029L13.016 12.919L13.498 14.029H14.635L13.795 14.969L14.048 16.159L13.016 15.548Z" fill="#FECA00"/>
</g>
<defs>
<clipPath id="clip0_42_246">
<rect width="32" height="24" fill="white"/>
</clipPath>
</defs>
</svg>
