<svg width="32" height="24" viewBox="0 0 32 24" fill="none" xmlns="http://www.w3.org/2000/svg">
<g clip-path="url(#clip0_42_607)">
<path fill-rule="evenodd" clip-rule="evenodd" d="M0 16H32V24H0V16Z" fill="#14DC5A"/>
<path fill-rule="evenodd" clip-rule="evenodd" d="M0 0H32V10H0V0Z" fill="#0099B5"/>
<path d="M-2 9.5H-2.5V16.5H34.5V9.5H-2Z" fill="#F7FCFF" stroke="#C51918"/>
<path fill-rule="evenodd" clip-rule="evenodd" d="M14.541 3.00604L13.868 3.38004L14.06 2.62004L13.416 2.06204H14.258L14.54 1.34204L14.871 2.06204H15.589L15.025 2.62004L15.296 3.38004L14.541 3.00604ZM10.933 5.29704L11.606 4.92304L12.361 5.29704L12.091 4.53704L12.654 3.97904H11.936L11.606 3.25904L11.323 3.97904H10.481L11.125 4.53704L10.933 5.29704ZM8.42799 6.96104L7.75498 7.33504L7.94698 6.57504L7.30198 6.01604H8.14398L8.42698 5.29704L8.75698 6.01704H9.47598L8.91198 6.57504L9.18198 7.33504L8.42799 6.96104ZM11.606 6.96104L10.933 7.33504L11.125 6.57504L10.481 6.01604H11.323L11.605 5.29704L11.936 6.01704H12.654L12.09 6.57504L12.361 7.33504L11.606 6.96104ZM14.586 6.96104L13.913 7.33504L14.105 6.57504L13.461 6.01604H14.303L14.585 5.29704L14.916 6.01704H15.634L15.07 6.57504L15.341 7.33504L14.586 6.96104ZM13.913 5.29704L14.586 4.92304L15.341 5.29704L15.071 4.53704L15.634 3.97904H14.916L14.586 3.25904L14.303 3.97904H13.461L14.105 4.53704L13.913 5.29704ZM16.913 7.33504L17.585 6.96104L18.341 7.33504L18.07 6.57504L18.634 6.01604H17.916L17.584 5.29704L17.302 6.01704H16.46L17.105 6.57504L16.913 7.33504ZM17.585 4.92304L16.912 5.29704L17.105 4.53704L16.46 3.97904H17.302L17.584 3.25904L17.916 3.97904H18.634L18.07 4.53704L18.34 5.29704L17.585 4.92304ZM16.868 3.38004L17.541 3.00604L18.296 3.38004L18.025 2.62004L18.589 2.06204H17.871L17.54 1.34204L17.257 2.06204H16.415L17.06 2.62004L16.868 3.38004ZM20.616 6.96104L19.943 7.33504L20.135 6.57504L19.49 6.01604H20.332L20.615 5.29704L20.945 6.01704H21.664L21.1 6.57504L21.37 7.33504L20.616 6.96104ZM19.943 5.29704L20.616 4.92304L21.371 5.29704L21.1 4.53704L21.664 3.97904H20.946L20.615 3.25904L20.332 3.97904H19.49L20.135 4.53704L19.943 5.29704ZM20.571 3.00704L19.898 3.38004L20.09 2.62004L19.445 2.06204H20.287L20.57 1.34204L20.901 2.06204H21.619L21.055 2.62004L21.326 3.38004L20.571 3.00704ZM5.88499 8.24004C5.88499 8.24004 3.46898 7.58404 3.51498 5.16004C3.56098 2.73604 5.99998 2.11004 5.99998 2.11004C5.00298 1.73304 2.05498 2.24004 1.99998 5.13804C1.94598 8.03804 4.95599 8.60804 5.88499 8.24204" fill="#F7FCFF"/>
</g>
<defs>
<clipPath id="clip0_42_607">
<rect width="32" height="24" fill="white"/>
</clipPath>
</defs>
</svg>
