<svg width="32" height="24" viewBox="0 0 32 24" fill="none" xmlns="http://www.w3.org/2000/svg">
<g clip-path="url(#clip0_42_425)">
<path fill-rule="evenodd" clip-rule="evenodd" d="M0 0V24H32V0H0Z" fill="#F7FCFF"/>
<mask id="mask0_42_425" style="mask-type:luminance" maskUnits="userSpaceOnUse" x="0" y="0" width="32" height="24">
<path fill-rule="evenodd" clip-rule="evenodd" d="M0 0V24H32V0H0Z" fill="white"/>
</mask>
<g mask="url(#mask0_42_425)">
<path d="M19.825 12C19.825 13.0144 19.4221 13.9873 18.7047 14.7047C17.9874 15.422 17.0145 15.825 16 15.825C14.9856 15.825 14.0127 15.422 13.2954 14.7047C12.578 13.9873 12.175 13.0144 12.175 12C12.175 10.9855 12.578 10.0126 13.2954 9.2953C14.0127 8.57798 14.9856 8.17499 16 8.17499C17.0145 8.17499 17.9874 8.57798 18.7047 9.2953C19.4221 10.0126 19.825 10.9855 19.825 12Z" stroke="#272727" stroke-width="0.35"/>
<path fill-rule="evenodd" clip-rule="evenodd" d="M13 12C13 12.7956 13.3161 13.5587 13.8787 14.1213C14.4413 14.6839 15.2044 15 16 15C16.7956 15 17.5587 14.6839 18.1213 14.1213C18.6839 13.5587 19 12.7956 19 12C19 11.2044 18.6839 10.4413 18.1213 9.87868C17.5587 9.31607 16.7956 9 16 9C15.2044 9 14.4413 9.31607 13.8787 9.87868C13.3161 10.4413 13 11.2044 13 12ZM18.65 12C18.65 12.7028 18.3708 13.3769 17.8738 13.8738C17.3769 14.3708 16.7028 14.65 16 14.65C15.2972 14.65 14.6231 14.3708 14.1262 13.8738C13.6292 13.3769 13.35 12.7028 13.35 12C13.35 11.2972 13.6292 10.6231 14.1262 10.1262C14.6231 9.6292 15.2972 9.35 16 9.35C16.7028 9.35 17.3769 9.6292 17.8738 10.1262C18.3708 10.6231 18.65 11.2972 18.65 12Z" fill="#272727"/>
<path fill-rule="evenodd" clip-rule="evenodd" d="M0 0V8H32V0H0Z" fill="#F05234"/>
<path fill-rule="evenodd" clip-rule="evenodd" d="M0 16V24H32V16H0Z" fill="#3D58DB"/>
<path d="M14.617 10.002L14.901 10.413C14.241 10.87 13.943 11.406 14.187 12.317C14.428 13.217 14.995 13.665 15.937 13.698L15.92 14.198C14.758 14.158 13.973 13.681 13.675 12.567C13.379 11.461 13.775 10.585 14.617 10.002Z" fill="#73BE4A"/>
<path fill-rule="evenodd" clip-rule="evenodd" d="M16 12.315L15.118 12.914L15.415 11.89L14.573 11.236L15.639 11.202L16 10.2L16.361 11.203L17.427 11.237L16.585 11.89L16.882 12.914L16 12.315Z" fill="#FBCD17"/>
<path d="M17.168 10.176C17.168 10.176 18.294 10.956 17.888 12.467C17.484 13.979 15.905 14.034 15.905 14.034" stroke="#73BE4A" stroke-width="0.5"/>
</g>
</g>
<defs>
<clipPath id="clip0_42_425">
<rect width="32" height="24" fill="white"/>
</clipPath>
</defs>
</svg>
