<svg width="31" height="23" viewBox="0 0 31 23" fill="none" xmlns="http://www.w3.org/2000/svg">
<g clip-path="url(#clip0_42_633)">
<path d="M15.5 0H31V23H15.5V0Z" fill="white"/>
<path d="M0 0H15.5V23H0V0Z" fill="#006233"/>
<path d="M20.5376 8.625C19.8978 7.52881 18.9103 6.67208 17.7281 6.1877C16.546 5.70331 15.2353 5.61832 13.9994 5.94593C12.7635 6.27353 11.6713 6.99542 10.8924 7.99962C10.1135 9.00383 9.69128 10.2342 9.69128 11.5C9.69128 12.7658 10.1135 13.9962 10.8924 15.0004C11.6713 16.0046 12.7635 16.7265 13.9994 17.0541C15.2353 17.3817 16.546 17.2967 17.7281 16.8123C18.9103 16.3279 19.8978 15.4712 20.5376 14.375C19.9354 15.119 19.1146 15.6596 18.1885 15.9221C17.2623 16.1846 16.2766 16.156 15.3676 15.8404C14.4586 15.5248 13.6711 14.9376 13.114 14.1601C12.5569 13.3825 12.2577 12.453 12.2577 11.5C12.2577 10.547 12.5569 9.61745 13.114 8.83993C13.6711 8.0624 14.4586 7.47525 15.3676 7.15961C16.2766 6.84397 17.2623 6.81543 18.1885 7.07794C19.1146 7.34045 19.9354 7.88104 20.5376 8.625ZM20.7313 11.5L15.5001 9.81334L18.7551 14.2217V8.77834L15.5001 13.1867L20.7313 11.5Z" fill="#D21034"/>
</g>
<defs>
<clipPath id="clip0_42_633">
<rect width="31" height="23" fill="white"/>
</clipPath>
</defs>
</svg>
