<svg width="32" height="24" viewBox="0 0 32 24" fill="none" xmlns="http://www.w3.org/2000/svg">
<g clip-path="url(#clip0_42_2)">
<path fill-rule="evenodd" clip-rule="evenodd" d="M8 0H24V24H8V0Z" fill="#F7FCFF"/>
<path fill-rule="evenodd" clip-rule="evenodd" d="M15.976 7L16 19H15.4L15.768 16.03C13.078 16.514 11.8443 16.634 12.067 16.39C12.289 16.146 12.464 15.8 12.592 15.352L9 12.955C9.378 12.951 9.72067 12.8573 10.028 12.674C10.3347 12.4913 10.181 11.858 9.567 10.774L11.38 11.038L12.067 10.292L13.435 11.724H14.05L13.435 8.444L14.538 9.059L15.976 7ZM15.976 7L17.462 9.06L18.565 8.443L17.95 11.724H18.565L19.933 10.292L20.619 11.038L22.433 10.774C21.8183 11.858 21.665 12.4913 21.973 12.674C22.2803 12.8573 22.6227 12.951 23 12.955L19.407 15.352C19.5357 15.8 19.711 16.146 19.933 16.39C20.1557 16.634 18.922 16.514 16.232 16.03L16.599 19H16L15.976 7ZM24 0H32V24H24V0ZM0 0H8V24H0V0Z" fill="#E31D1C"/>
</g>
<defs>
<clipPath id="clip0_42_2">
<rect width="32" height="24" fill="white"/>
</clipPath>
</defs>
</svg>
