<svg width="32" height="24" viewBox="0 0 32 24" fill="none" xmlns="http://www.w3.org/2000/svg">
<g clip-path="url(#clip0_42_588)">
<path fill-rule="evenodd" clip-rule="evenodd" d="M0 0V24H32V0H0Z" fill="#F7FCFF"/>
<mask id="mask0_42_588" style="mask-type:luminance" maskUnits="userSpaceOnUse" x="0" y="0" width="32" height="24">
<path fill-rule="evenodd" clip-rule="evenodd" d="M0 0V24H32V0H0Z" fill="white"/>
</mask>
<g mask="url(#mask0_42_588)">
<path d="M0 2H32V5H0V2ZM0 8H32V11H0V8ZM0 14H32V17H0V14ZM0 19H32V22H0V19Z" fill="#2E42A5"/>
<path d="M0 0H14V14H0V0Z" fill="#F7FCFF"/>
<path fill-rule="evenodd" clip-rule="evenodd" d="M4.78299 2.582C4.74775 2.57951 4.71296 2.59104 4.68618 2.61408C4.6594 2.63711 4.6428 2.66979 4.63999 2.705C4.61199 3.058 4.92299 3.379 5.09499 3.557L5.11199 3.574C5.13899 3.603 5.16699 3.63 5.20199 3.664L5.30599 3.765C5.45599 3.913 5.48699 4.052 5.52399 4.207L5.53299 4.245C5.54899 4.31166 5.56566 4.38933 5.58299 4.478C5.66099 4.866 5.77099 5.406 6.01099 5.583C6.06999 5.626 6.48099 5.369 6.52599 5.311C6.56101 5.27732 6.59845 5.24623 6.63799 5.218C6.73099 5.15 6.83799 5.07 6.79999 5.042C6.54899 4.857 6.35799 4.41 6.10999 3.765C5.97699 3.462 5.62999 3.269 5.34299 3.109C5.09699 2.973 4.89399 2.859 4.90499 2.723C4.90635 2.70576 4.90426 2.68842 4.89883 2.672C4.89341 2.65558 4.88476 2.64041 4.8734 2.62737C4.86204 2.61433 4.84819 2.60369 4.83267 2.59607C4.81714 2.58845 4.80025 2.58301 4.78299 2.582ZM8.82999 2.683C8.8129 2.65236 8.78447 2.62964 8.75081 2.61973C8.71716 2.60982 8.68096 2.61351 8.64999 2.63C8.33799 2.799 8.23799 3.235 8.18299 3.476L8.17699 3.499L8.15099 3.624L8.12199 3.766C8.07999 3.972 7.98199 4.074 7.87099 4.189L7.84399 4.218C7.79599 4.26733 7.73966 4.32333 7.67499 4.386C7.39299 4.663 6.99999 5.05 6.98299 5.347C6.97799 5.42 7.41799 5.626 7.49099 5.631C7.53833 5.64226 7.58479 5.65697 7.62999 5.675C7.73799 5.715 7.86299 5.761 7.86599 5.715C7.88399 5.403 8.15599 4.999 8.55999 4.44C8.74299 4.164 8.71599 3.768 8.69299 3.44C8.67299 3.16 8.65799 2.928 8.77899 2.862C8.7943 2.85367 8.80778 2.84235 8.81862 2.82871C8.82947 2.81507 8.83746 2.79938 8.84213 2.78259C8.84679 2.7658 8.84803 2.74824 8.84578 2.73096C8.84352 2.71368 8.83781 2.69703 8.82899 2.682M11.415 5.031C11.485 5.049 11.529 5.121 11.511 5.193C11.507 5.20994 11.4997 5.22591 11.4894 5.23997C11.4792 5.25403 11.4662 5.26589 11.4513 5.27484C11.4364 5.28379 11.4198 5.28966 11.4026 5.29209C11.3853 5.29452 11.3678 5.29347 11.351 5.289C11.218 5.255 11.072 5.435 10.895 5.653C10.687 5.909 10.437 6.217 10.115 6.294C9.43799 6.427 8.96499 6.537 8.73899 6.753C8.70499 6.785 8.64499 6.665 8.59299 6.563C8.57348 6.51827 8.54935 6.47571 8.52099 6.436C8.47099 6.382 8.28999 5.932 8.34299 5.882C8.55799 5.676 9.10999 5.662 9.50499 5.652C9.59566 5.64933 9.67499 5.646 9.74299 5.642L9.78299 5.641C9.94199 5.631 10.083 5.624 10.255 5.502L10.372 5.418L10.477 5.345L10.497 5.331C10.702 5.193 11.072 4.942 11.415 5.031ZM2.32199 5.474C2.29522 5.49703 2.27862 5.52971 2.27582 5.56491C2.27301 5.60012 2.28421 5.63501 2.30699 5.662C2.53699 5.931 2.98499 5.938 3.23199 5.942H3.38399L3.52799 5.941C3.73799 5.939 3.85899 6.014 3.99499 6.099L4.02799 6.119C4.08666 6.155 4.15332 6.19833 4.22799 6.249C4.55799 6.467 5.01799 6.772 5.31199 6.727C5.38399 6.716 5.49399 6.243 5.48399 6.171C5.47999 6.145 5.48899 6.088 5.49799 6.026C5.51499 5.912 5.53399 5.779 5.48799 5.786C5.17899 5.833 4.72799 5.652 4.09699 5.372C3.78899 5.252 3.40699 5.36 3.09099 5.45C2.82099 5.527 2.59699 5.591 2.50799 5.487C2.49677 5.47372 2.483 5.46282 2.4675 5.45495C2.452 5.44709 2.43508 5.44241 2.41774 5.4412C2.40039 5.43998 2.38298 5.44226 2.36654 5.4479C2.35009 5.45353 2.33494 5.46241 2.32199 5.474Z" fill="#FFC125"/>
<path d="M5.20203 3.664L5.15003 3.718L5.25503 3.611L5.20203 3.664ZM5.58303 4.478L5.50903 4.493L5.51003 4.498L5.58303 4.478ZM5.58303 4.478L5.65603 4.463L5.65503 4.459L5.58303 4.478ZM6.63803 5.218L6.59603 5.156L6.59303 5.158L6.63803 5.218ZM6.63803 5.218L6.68003 5.281L6.68303 5.279L6.63803 5.218ZM6.11003 3.765L6.18003 3.738L6.17903 3.735L6.11003 3.765ZM8.15103 3.623L8.07703 3.608L8.22403 3.638L8.15103 3.623ZM8.56003 4.439L8.62103 4.483L8.62303 4.481L8.56003 4.439ZM10.116 6.294L10.131 6.368H10.134L10.116 6.294ZM8.59403 6.563L8.52403 6.59L8.52703 6.596L8.59403 6.563ZM8.59403 6.563L8.66403 6.534L8.66103 6.529L8.59403 6.563ZM3.38503 5.942V6.017L3.38403 5.867L3.38503 5.942ZM4.09803 5.372L4.12803 5.303H4.12503L4.09803 5.372ZM4.71403 2.71C4.71555 2.69462 4.72295 2.68042 4.73469 2.67036C4.74642 2.6603 4.76159 2.65515 4.77703 2.656L4.78703 2.506C4.73228 2.50267 4.6784 2.5209 4.63691 2.55678C4.59543 2.59266 4.56963 2.64435 4.56503 2.699L4.71403 2.71ZM5.14903 3.504C5.04011 3.39695 4.94167 3.27976 4.85503 3.154C4.76403 3.014 4.70103 2.863 4.71403 2.71L4.56503 2.699C4.54903 2.899 4.63003 3.084 4.73003 3.237C4.83003 3.39 4.95603 3.52 5.04103 3.608L5.14903 3.504ZM5.16603 3.521L5.14903 3.504L5.04103 3.608L5.05803 3.626L5.16603 3.521ZM5.25403 3.61L5.16603 3.521L5.05803 3.626C5.08603 3.656 5.11403 3.684 5.15003 3.718L5.25403 3.61ZM5.35803 3.711L5.29803 3.651C5.28536 3.64034 5.27536 3.63067 5.26803 3.622L5.25403 3.61C5.25403 3.61 5.14803 3.61 5.14903 3.717L5.25403 3.61C5.25403 3.716 5.15003 3.718 5.15003 3.718L5.15303 3.721L5.16303 3.73L5.19303 3.76L5.25303 3.819L5.35803 3.711ZM5.59703 4.189C5.56003 4.032 5.52403 3.875 5.35803 3.711L5.25303 3.819C5.38603 3.95 5.41503 4.07 5.45103 4.224L5.59703 4.189ZM5.60603 4.227L5.59703 4.189L5.45103 4.224L5.46003 4.262L5.60603 4.227ZM5.65603 4.463C5.63803 4.375 5.62136 4.29567 5.60603 4.227L5.46003 4.262C5.47469 4.32667 5.49103 4.40434 5.50903 4.493L5.65603 4.463ZM6.05503 5.521C5.95603 5.448 5.87503 5.291 5.80803 5.085C5.74629 4.88019 5.69555 4.67323 5.65603 4.463L5.50903 4.493C5.54903 4.686 5.59603 4.922 5.66503 5.132C5.73303 5.338 5.82503 5.54 5.96703 5.643L6.05503 5.521ZM6.46503 5.265L6.44603 5.282L6.39203 5.322C6.34903 5.352 6.29303 5.387 6.23703 5.419C6.18003 5.451 6.12503 5.479 6.08203 5.496C6.0668 5.50228 6.05108 5.5073 6.03503 5.511H6.03203C6.03469 5.51034 6.04269 5.51367 6.05603 5.521L5.96603 5.642C5.98669 5.65467 6.00469 5.66134 6.02003 5.662C6.03603 5.662 6.04969 5.661 6.06103 5.659C6.08744 5.65362 6.11323 5.64558 6.13803 5.635C6.19775 5.61067 6.25557 5.58192 6.31103 5.549C6.39104 5.50433 6.46789 5.45421 6.54103 5.399C6.55753 5.38595 6.57261 5.37221 6.58603 5.356L6.46503 5.265ZM6.59303 5.158L6.52203 5.211C6.50109 5.2265 6.48127 5.24465 6.46503 5.265L6.58603 5.356L6.59403 5.347L6.61603 5.328L6.68303 5.279L6.59303 5.158ZM6.75603 5.101C6.74974 5.09618 6.74448 5.09017 6.74053 5.0833C6.73658 5.07644 6.73403 5.06886 6.73303 5.061C6.73303 5.04634 6.73436 5.03834 6.73703 5.037L6.71703 5.059C6.677 5.09329 6.63563 5.12698 6.59303 5.158L6.68303 5.277C6.72803 5.244 6.78203 5.204 6.82003 5.168C6.83987 5.1491 6.85703 5.12757 6.87103 5.104C6.88045 5.08622 6.88428 5.066 6.88203 5.046C6.87881 5.02001 6.86553 4.99631 6.84503 4.98L6.75603 5.101ZM6.04003 3.791C6.16403 4.113 6.27503 4.39 6.38703 4.609C6.49903 4.828 6.61603 4.999 6.75603 5.101L6.84503 4.98C6.73303 4.897 6.62903 4.753 6.52103 4.541C6.39442 4.27868 6.28062 4.01136 6.18003 3.738L6.04003 3.791ZM5.30603 3.175C5.45103 3.255 5.60503 3.34 5.73903 3.442C5.86872 3.53094 5.97284 3.6523 6.04103 3.794L6.17903 3.735C6.09859 3.57117 5.97865 3.42893 5.83003 3.323C5.68603 3.213 5.52203 3.123 5.38003 3.043L5.30603 3.175ZM4.83003 2.717C4.82203 2.827 4.90003 2.91 4.98203 2.974C5.06703 3.041 5.18503 3.108 5.30603 3.175L5.38003 3.043C5.27473 2.98679 5.17188 2.92435 5.07403 2.856C4.99603 2.796 4.97803 2.755 4.98003 2.728L4.83003 2.717ZM4.77703 2.656C4.81003 2.658 4.83303 2.687 4.83003 2.717L4.98003 2.728C4.9822 2.70078 4.97895 2.67339 4.97044 2.64743C4.96194 2.62148 4.94836 2.59747 4.93049 2.57681C4.91263 2.55616 4.89083 2.53926 4.86637 2.5271C4.84191 2.51494 4.81428 2.50777 4.78703 2.506L4.77703 2.656ZM8.68503 2.694C8.69875 2.68674 8.71475 2.68508 8.72966 2.68937C8.74458 2.69366 8.75726 2.70357 8.76503 2.717L8.89503 2.645C8.86806 2.59719 8.82345 2.56084 8.77074 2.54551C8.71804 2.53018 8.66142 2.5371 8.61303 2.563L8.68503 2.694ZM8.25503 3.49C8.28403 3.37 8.32103 3.207 8.38903 3.054C8.45603 2.901 8.55003 2.767 8.68503 2.694L8.61303 2.563C8.43703 2.659 8.32503 2.826 8.25103 2.993C8.1891 3.14273 8.14188 3.29813 8.11003 3.457L8.25503 3.49ZM8.25003 3.514L8.25603 3.491L8.11003 3.457L8.10403 3.481L8.25003 3.514ZM8.22403 3.638L8.25003 3.514L8.10403 3.481L8.07703 3.608L8.22403 3.638ZM8.19603 3.78L8.21303 3.696L8.22103 3.654L8.22403 3.638C8.22403 3.638 8.16503 3.549 8.07703 3.608L8.22403 3.638C8.13603 3.696 8.07703 3.608 8.07703 3.608V3.612L8.07403 3.625L8.06503 3.667L8.04903 3.749L8.19603 3.78ZM7.92503 4.239C8.03703 4.123 8.14903 4.007 8.19503 3.779L8.04903 3.749C8.01103 3.932 7.92603 4.022 7.81703 4.136L7.92503 4.239ZM7.89803 4.268L7.92503 4.239L7.81703 4.136L7.79003 4.165L7.89803 4.268ZM7.72803 4.438C7.79203 4.37534 7.84869 4.31867 7.89803 4.268L7.78903 4.164C7.74303 4.212 7.68769 4.26867 7.62303 4.332L7.72803 4.438ZM7.05803 5.35C7.06403 5.227 7.15303 5.072 7.28803 4.904C7.42103 4.74 7.58603 4.577 7.72803 4.438L7.62303 4.332C7.48303 4.47 7.31003 4.638 7.17103 4.811C7.03503 4.979 6.91803 5.167 6.90803 5.341L7.05803 5.35ZM7.49603 5.554C7.49736 5.55534 7.48903 5.553 7.47103 5.547L7.40903 5.523C7.35221 5.49991 7.29648 5.47422 7.24203 5.446C7.18991 5.42103 7.14006 5.39159 7.09303 5.358C7.07953 5.34872 7.06683 5.33836 7.05503 5.327L7.05303 5.324C7.05303 5.326 7.05803 5.336 7.05703 5.351L6.90803 5.341C6.90728 5.3603 6.91115 5.37941 6.92103 5.396C6.92788 5.40779 6.93592 5.41885 6.94503 5.429C6.96388 5.44839 6.98465 5.46581 7.00703 5.481C7.05203 5.513 7.11303 5.548 7.17303 5.579C7.25408 5.62136 7.33794 5.65812 7.42403 5.689C7.44469 5.69634 7.46536 5.70234 7.48603 5.705L7.49603 5.554ZM7.65603 5.602L7.57103 5.572C7.5469 5.5628 7.5217 5.55675 7.49603 5.554L7.48603 5.705L7.49603 5.706L7.52403 5.714L7.60403 5.743L7.65603 5.602ZM7.79103 5.709C7.79125 5.70107 7.79337 5.6923 7.79719 5.68535C7.80102 5.67839 7.80645 5.67244 7.81303 5.668L7.83503 5.658C7.83503 5.65934 7.82503 5.65734 7.80503 5.652C7.75439 5.63732 7.70535 5.62064 7.65603 5.602L7.60303 5.742C7.65603 5.762 7.71903 5.786 7.77003 5.798C7.79686 5.80443 7.82446 5.80712 7.85203 5.806C7.87216 5.80439 7.89134 5.79672 7.90703 5.784C7.92664 5.76694 7.93883 5.74291 7.94103 5.717L7.79103 5.709ZM8.50003 4.395C8.29703 4.675 8.12603 4.918 8.00303 5.132C7.88103 5.344 7.80103 5.535 7.79103 5.709L7.94103 5.717C7.94903 5.579 8.01403 5.414 8.13303 5.207C8.25203 5.001 8.41803 4.763 8.62103 4.483L8.50003 4.395ZM8.61803 3.444C8.63003 3.609 8.64103 3.784 8.62803 3.953C8.6243 4.11014 8.57948 4.26357 8.49803 4.398L8.62303 4.481C8.72403 4.327 8.76503 4.145 8.77803 3.964C8.79203 3.784 8.77903 3.597 8.76803 3.434L8.61803 3.444ZM8.74303 2.795C8.64603 2.848 8.61803 2.959 8.60903 3.063C8.59903 3.171 8.60903 3.306 8.61903 3.443L8.76803 3.434C8.75761 3.31531 8.75427 3.1951 8.75803 3.076C8.76703 2.977 8.79103 2.94 8.81503 2.926L8.74303 2.795ZM8.76403 2.718C8.76776 2.72442 8.77018 2.73152 8.77115 2.73889C8.77211 2.74625 8.7716 2.75373 8.76965 2.7609C8.7677 2.76807 8.76433 2.77477 8.75976 2.78063C8.75519 2.78648 8.7495 2.79137 8.74303 2.795L8.81503 2.926C8.83892 2.91286 8.85997 2.89611 8.87695 2.87478C8.89393 2.85344 8.9065 2.82895 8.91394 2.80272C8.92138 2.77648 8.92354 2.74904 8.9203 2.72196C8.91705 2.69489 8.90846 2.66873 8.89503 2.645L8.76403 2.718ZM11.584 5.211C11.5971 5.15759 11.5888 5.10117 11.5607 5.05386C11.5327 5.00655 11.4872 4.97213 11.434 4.958L11.397 5.103C11.427 5.111 11.447 5.143 11.439 5.175L11.584 5.211ZM11.334 5.362C11.3603 5.36859 11.3876 5.36893 11.4144 5.36496C11.4412 5.36098 11.4669 5.35177 11.4901 5.33783C11.5133 5.3239 11.5336 5.30553 11.5497 5.28377C11.5658 5.262 11.5775 5.23728 11.584 5.211L11.439 5.175C11.4373 5.18217 11.4341 5.18892 11.4297 5.19486C11.4254 5.20081 11.4199 5.20583 11.4135 5.20964C11.4072 5.21345 11.4002 5.21597 11.3929 5.21706C11.3856 5.21816 11.3782 5.2178 11.371 5.216L11.334 5.362ZM10.954 5.701C11.044 5.589 11.121 5.495 11.191 5.431C11.264 5.366 11.307 5.356 11.334 5.362L11.371 5.216C11.264 5.189 11.168 5.251 11.091 5.32C11.0007 5.40987 10.9162 5.50539 10.838 5.606L10.954 5.701ZM10.134 6.368C10.312 6.325 10.466 6.218 10.6 6.096C10.733 5.973 10.85 5.827 10.954 5.7L10.837 5.606C10.7322 5.73974 10.619 5.86666 10.498 5.986C10.3875 6.09794 10.2496 6.17897 10.098 6.221L10.134 6.368ZM8.79203 6.807C8.89203 6.711 9.05203 6.634 9.28103 6.564C9.50803 6.494 9.79103 6.434 10.131 6.368L10.102 6.221C9.76403 6.287 9.47203 6.348 9.23703 6.421C9.00203 6.493 8.81503 6.578 8.68803 6.698L8.79203 6.807ZM8.52703 6.596C8.55203 6.646 8.58203 6.706 8.61103 6.75C8.62503 6.77 8.64303 6.795 8.66503 6.811C8.67703 6.82 8.69503 6.831 8.72003 6.833C8.73315 6.83361 8.74626 6.83163 8.75861 6.82716C8.77097 6.8227 8.78232 6.81585 8.79203 6.807L8.68803 6.698C8.69983 6.68755 8.71528 6.68216 8.73103 6.683C8.74603 6.684 8.75403 6.69 8.75403 6.691C8.75403 6.69234 8.74803 6.68434 8.73603 6.667C8.70921 6.62167 8.68419 6.5763 8.66103 6.529L8.52703 6.596ZM8.46703 6.486L8.47403 6.496L8.48803 6.521C8.49936 6.541 8.51236 6.566 8.52703 6.596L8.66103 6.529L8.62003 6.448C8.60851 6.42491 8.59405 6.4034 8.57703 6.384L8.46703 6.486ZM8.29203 5.827C8.27801 5.84058 8.26828 5.85796 8.26403 5.877C8.26102 5.89013 8.25934 5.90353 8.25903 5.917C8.25903 5.94234 8.26236 5.969 8.26903 5.997C8.28003 6.052 8.30103 6.118 8.32403 6.183C8.35422 6.26937 8.3903 6.35357 8.43203 6.435C8.44203 6.452 8.45403 6.472 8.46703 6.486L8.57703 6.384C8.57703 6.386 8.57269 6.37867 8.56403 6.362L8.53403 6.302C8.50844 6.24642 8.48541 6.18969 8.46503 6.132C8.44364 6.07854 8.42691 6.02334 8.41503 5.967C8.41163 5.95053 8.40962 5.93381 8.40903 5.917V5.914L8.39603 5.936L8.29203 5.827ZM9.50403 5.576C9.30703 5.58 9.06603 5.587 8.84703 5.619C8.63203 5.649 8.41803 5.707 8.29203 5.827L8.39603 5.936C8.48503 5.851 8.65403 5.798 8.86803 5.767C9.07803 5.737 9.30903 5.731 9.50803 5.727L9.50403 5.576ZM9.74003 5.568L9.50403 5.576L9.50803 5.726C9.59803 5.72467 9.67803 5.722 9.74803 5.718L9.74003 5.568ZM9.77903 5.566L9.74003 5.568L9.74803 5.718L9.78703 5.715L9.77903 5.566ZM10.213 5.442C10.06 5.55 9.93703 5.557 9.77903 5.566L9.78703 5.715C9.94803 5.705 10.109 5.698 10.299 5.564L10.213 5.442ZM10.33 5.357L10.213 5.442L10.299 5.564L10.417 5.479L10.33 5.357ZM10.436 5.283L10.33 5.357L10.417 5.479L10.52 5.407L10.436 5.283ZM10.456 5.269L10.436 5.283L10.52 5.407L10.54 5.393L10.456 5.269ZM11.435 4.958C11.24 4.908 11.044 4.955 10.875 5.027C10.707 5.099 10.558 5.2 10.456 5.269L10.54 5.393C10.6638 5.3041 10.7961 5.22773 10.935 5.165C11.089 5.099 11.249 5.065 11.397 5.103L11.435 4.958ZM2.36503 5.613C2.35522 5.60095 2.35047 5.58557 2.35178 5.57009C2.35308 5.55461 2.36134 5.54024 2.37303 5.53L2.27303 5.417C2.23177 5.45326 2.20636 5.50424 2.20225 5.55901C2.19814 5.61379 2.21565 5.66799 2.25103 5.71L2.36503 5.613ZM3.23503 5.867C3.08243 5.86816 2.93008 5.85477 2.78003 5.827C2.61603 5.793 2.46503 5.729 2.36503 5.613L2.25103 5.71C2.38203 5.863 2.57103 5.937 2.74903 5.975C2.92903 6.012 3.10903 6.015 3.23203 6.017L3.23503 5.867ZM3.25903 5.867H3.23503L3.23203 6.017H3.25603L3.25903 5.867ZM3.38403 5.867H3.25903L3.25603 6.017H3.38503L3.38403 5.867ZM3.52903 5.866H3.44403L3.40203 5.867H3.38403C3.38403 5.867 3.31003 5.943 3.38503 6.017L3.38403 5.867C3.46003 5.941 3.38503 6.017 3.38503 6.017H3.44603L3.52903 6.016V5.866ZM4.03603 6.035C3.90003 5.95 3.76203 5.865 3.52903 5.865V6.016C3.71703 6.016 3.82203 6.079 3.95603 6.162L4.03603 6.035ZM4.06903 6.055L4.03603 6.035L3.95603 6.162L3.99003 6.183L4.06903 6.055ZM4.27103 6.186C4.19636 6.136 4.12903 6.09267 4.06903 6.056L3.99003 6.183C4.04669 6.21834 4.11269 6.261 4.18803 6.311L4.27103 6.186ZM5.30103 6.653C5.18103 6.671 5.01103 6.617 4.81803 6.52C4.62987 6.41849 4.44728 6.307 4.27103 6.186L4.18803 6.311C4.35203 6.42 4.55303 6.553 4.75103 6.653C4.94403 6.752 5.15103 6.827 5.32503 6.801L5.30103 6.653ZM5.41103 6.181L5.40903 6.207L5.39903 6.273C5.38811 6.33327 5.37443 6.393 5.35803 6.452C5.34446 6.50816 5.32606 6.56303 5.30303 6.616C5.29659 6.63128 5.2889 6.646 5.28003 6.66L5.27803 6.663L5.30103 6.653L5.32503 6.801C5.34408 6.79777 5.3618 6.78909 5.37603 6.776C5.38736 6.766 5.39636 6.756 5.40303 6.746C5.41799 6.72399 5.43072 6.70054 5.44103 6.676C5.49462 6.5295 5.53381 6.37811 5.55803 6.224C5.56064 6.20277 5.56098 6.18131 5.55903 6.16L5.41103 6.181ZM5.42503 6.015C5.41969 6.04634 5.41569 6.076 5.41303 6.104C5.40905 6.12948 5.40838 6.15536 5.41103 6.181L5.55903 6.16V6.149L5.56203 6.12C5.56403 6.09667 5.56769 6.069 5.57303 6.037L5.42503 6.015ZM5.50003 5.86C5.48435 5.86195 5.46854 5.85764 5.45603 5.848C5.44536 5.83667 5.44036 5.83 5.44103 5.828L5.44203 5.858C5.44203 5.9 5.43303 5.956 5.42503 6.015L5.57303 6.037C5.58103 5.981 5.59103 5.915 5.59303 5.862C5.59303 5.838 5.59303 5.807 5.58303 5.781C5.57739 5.76136 5.56588 5.7439 5.55003 5.731C5.52911 5.71538 5.50291 5.70856 5.47703 5.712L5.50003 5.86ZM4.06803 5.44C4.38303 5.58 4.65703 5.697 4.89103 5.773C5.12503 5.849 5.32803 5.887 5.50003 5.86L5.47703 5.712C5.34103 5.732 5.16503 5.704 4.93703 5.63C4.66223 5.53415 4.39225 5.42502 4.12803 5.303L4.06803 5.44ZM3.11203 5.522C3.27203 5.477 3.44103 5.429 3.60803 5.406C3.76285 5.37729 3.9225 5.38971 4.07103 5.442L4.12503 5.303C3.95244 5.24405 3.76791 5.22793 3.58803 5.258C3.40803 5.282 3.22803 5.333 3.07103 5.378L3.11203 5.522ZM2.45203 5.535C2.52303 5.619 2.63803 5.624 2.74203 5.611C2.84903 5.598 2.97903 5.561 3.11203 5.522L3.07103 5.378C2.93303 5.418 2.81703 5.451 2.72303 5.462C2.62503 5.474 2.58303 5.459 2.56603 5.438L2.45203 5.535ZM2.37303 5.53C2.37857 5.52499 2.38405 5.52114 2.3911 5.51868C2.39815 5.51621 2.40563 5.51518 2.41308 5.51565C2.42053 5.51611 2.42782 5.51807 2.43451 5.52139C2.4412 5.52471 2.44715 5.52934 2.45203 5.535L2.56603 5.438C2.54823 5.41726 2.52648 5.40026 2.50205 5.38801C2.47761 5.37575 2.45099 5.36848 2.42372 5.36662C2.39645 5.36476 2.36908 5.36835 2.34321 5.37717C2.31734 5.38599 2.29348 5.39987 2.27303 5.418L2.37303 5.53Z" fill="#984111"/>
<path fill-rule="evenodd" clip-rule="evenodd" d="M4.75604 11.245C4.72097 11.2475 4.68632 11.2361 4.65957 11.2133C4.63281 11.1905 4.61611 11.158 4.61304 11.123C4.58504 10.77 4.89604 10.449 5.06804 10.271L5.08504 10.253C5.14754 10.1875 5.21225 10.1241 5.27904 10.063C5.42904 9.91501 5.46105 9.77601 5.49705 9.62101L5.50604 9.58201L5.55605 9.35001C5.63405 8.96201 5.74405 8.42101 5.98405 8.24501C6.04305 8.20201 6.45404 8.45801 6.49904 8.51701C6.5341 8.55034 6.57154 8.58109 6.61104 8.60901C6.70404 8.67901 6.81104 8.75901 6.77304 8.78601C6.52204 8.97101 6.33105 9.41801 6.08305 10.062C5.95105 10.366 5.60304 10.558 5.31604 10.718C5.07004 10.855 4.86704 10.968 4.87804 11.105C4.8794 11.1222 4.87731 11.1396 4.87189 11.156C4.86646 11.1724 4.85782 11.1876 4.84646 11.2006C4.83509 11.2137 4.82125 11.2243 4.80572 11.2319C4.7902 11.2396 4.77331 11.244 4.75604 11.245ZM8.80305 11.146C8.78595 11.1766 8.75753 11.1994 8.72387 11.2093C8.69021 11.2192 8.65401 11.2155 8.62304 11.199C8.31104 11.029 8.21104 10.594 8.15604 10.353L8.15004 10.329L8.12404 10.205L8.09604 10.063C8.05304 9.85701 7.95504 9.75401 7.84404 9.63901L7.81704 9.61101C7.76904 9.56101 7.71238 9.50434 7.64704 9.44101C7.36004 9.15901 6.95604 8.76201 6.95604 8.48101C6.95604 8.35401 7.39105 8.20301 7.46405 8.19801C7.51139 8.18674 7.55784 8.17204 7.60304 8.15401C7.71104 8.11401 7.83705 8.06701 7.83905 8.11401C7.85705 8.42601 8.12905 8.83001 8.53405 9.38801C8.71605 9.66501 8.68905 10.06 8.66605 10.389C8.64605 10.669 8.63104 10.901 8.75204 10.967C8.76722 10.9753 8.78058 10.9866 8.79134 11.0002C8.8021 11.0137 8.81004 11.0293 8.81469 11.046C8.81935 11.0627 8.82063 11.0801 8.81846 11.0973C8.81629 11.1145 8.81071 11.131 8.80204 11.146M11.388 8.79701C11.4221 8.78806 11.4513 8.76603 11.4693 8.73571C11.4873 8.70539 11.4926 8.66921 11.484 8.63501C11.4801 8.61806 11.4728 8.60209 11.4625 8.58803C11.4522 8.57397 11.4393 8.56212 11.4244 8.55316C11.4094 8.54421 11.3929 8.53834 11.3756 8.53591C11.3584 8.53348 11.3409 8.53453 11.324 8.53901C11.191 8.57301 11.045 8.39301 10.868 8.17501C10.66 7.91901 10.41 7.61101 10.088 7.53301C9.41105 7.40101 8.93804 7.29101 8.71204 7.07501C8.67804 7.04301 8.61804 7.16201 8.56604 7.26501C8.54654 7.30973 8.52241 7.3523 8.49405 7.39201C8.44405 7.44601 8.26404 7.89601 8.31604 7.94601C8.53104 8.15201 9.08304 8.16601 9.47804 8.17601C9.56871 8.17867 9.64804 8.18167 9.71604 8.18501L9.75604 8.18701C9.91504 8.19601 10.056 8.20401 10.228 8.32501L10.346 8.41001L10.45 8.48301L10.47 8.49601C10.675 8.63501 11.045 8.88601 11.388 8.79701ZM2.29504 8.35401C2.26842 8.33083 2.25202 8.29809 2.24939 8.26289C2.24677 8.22768 2.25815 8.19287 2.28104 8.16601C2.51104 7.89701 2.95804 7.89001 3.20504 7.88601H3.35704L3.50104 7.88701C3.71104 7.88801 3.83204 7.81301 3.96804 7.72901L4.00104 7.70901C4.05971 7.67301 4.12638 7.62967 4.20105 7.57901C4.53105 7.36101 4.99104 7.05601 5.28504 7.10101C5.35704 7.11201 5.46704 7.58501 5.45704 7.65701C5.45818 7.70562 5.46286 7.75408 5.47105 7.80201C5.48805 7.91601 5.50704 8.04901 5.46104 8.04201C5.15204 7.99401 4.70104 8.17601 4.07104 8.45601C3.76204 8.57601 3.38104 8.46801 3.06404 8.37701C2.79404 8.30001 2.57004 8.23701 2.48104 8.34101C2.46983 8.35429 2.45606 8.36518 2.44056 8.37305C2.42506 8.38092 2.40813 8.3856 2.39079 8.38681C2.37345 8.38802 2.35604 8.38574 2.3396 8.38011C2.32315 8.37447 2.308 8.3656 2.29504 8.35401Z" fill="#FFC125"/>
<path d="M5.175 10.1631L5.123 10.1101L5.228 10.2171L5.175 10.1631ZM5.556 9.35006L5.482 9.33506L5.483 9.33005L5.556 9.35006ZM5.556 9.35006L5.629 9.36406V9.36906L5.556 9.35006ZM6.611 8.60906L6.569 8.67206L6.566 8.66905L6.611 8.60906ZM6.611 8.60906L6.653 8.54706L6.656 8.54905L6.611 8.60906ZM6.083 10.0621L6.153 10.0891L6.152 10.0921L6.083 10.0621ZM8.124 10.2051L8.05 10.2201L8.197 10.1901L8.124 10.2051ZM8.534 9.38805L8.594 9.34405L8.596 9.34706L8.534 9.38805ZM10.089 7.53306L10.104 7.46006H10.107L10.089 7.53306ZM8.567 7.26505L8.497 7.23805L8.5 7.23205L8.567 7.26505ZM8.567 7.26505L8.637 7.29406L8.634 7.29905L8.567 7.26505ZM9.479 8.17605L9.481 8.10105H9.482L9.479 8.17605ZM3.358 7.88606V7.81006L3.357 7.96006L3.358 7.88606ZM4.072 8.45505L4.102 8.52305L4.098 8.52505L4.072 8.45505ZM4.688 11.1161C4.68952 11.1314 4.69693 11.1456 4.70866 11.1557C4.7204 11.1658 4.73557 11.1719 4.751 11.1711L4.761 11.3201C4.70609 11.3237 4.65195 11.3056 4.61025 11.2696C4.56854 11.2337 4.5426 11.1839 4.538 11.1291L4.688 11.1161ZM5.122 10.3221C5.036 10.4121 4.92 10.5321 4.828 10.6721C4.736 10.8121 4.676 10.9631 4.688 11.1161L4.538 11.1291C4.522 10.9291 4.603 10.7421 4.703 10.5891C4.803 10.4361 4.929 10.3061 5.014 10.2181L5.122 10.3221ZM5.139 10.3041L5.122 10.3221L5.014 10.2181L5.031 10.2001L5.139 10.3041ZM5.228 10.2161L5.139 10.3041L5.031 10.2001L5.123 10.1101L5.228 10.2161ZM5.332 10.1151C5.32 10.1251 5.294 10.1511 5.271 10.1741L5.241 10.2041L5.231 10.2131L5.228 10.2161C5.228 10.2161 5.122 10.2151 5.122 10.1091L5.228 10.2161C5.228 10.1101 5.123 10.1101 5.123 10.1101V10.1081L5.126 10.1051L5.136 10.0951L5.166 10.0661L5.226 10.0091L5.332 10.1151ZM5.57 9.63706C5.533 9.79406 5.497 9.95105 5.332 10.1151L5.226 10.0091C5.359 9.87705 5.388 9.75605 5.424 9.60305L5.57 9.63706ZM5.579 9.59906L5.57 9.63706L5.424 9.60305L5.433 9.56505L5.579 9.59906ZM5.629 9.36305C5.61167 9.45105 5.595 9.52972 5.579 9.59906L5.433 9.56505L5.483 9.33405L5.629 9.36305ZM6.029 8.30405C5.929 8.37705 5.848 8.53505 5.781 8.74005C5.715 8.94105 5.669 9.16905 5.629 9.36305L5.482 9.33306C5.522 9.14106 5.569 8.90405 5.638 8.69305C5.706 8.48705 5.799 8.28705 5.94 8.18305L6.029 8.30405ZM6.439 8.56105L6.419 8.54405L6.366 8.50405C6.322 8.47405 6.266 8.43905 6.21 8.40705C6.16098 8.37701 6.10945 8.35125 6.056 8.33005C6.04045 8.32372 6.02439 8.3187 6.008 8.31505C6.004 8.31505 6.003 8.31472 6.005 8.31406L6.029 8.30405L5.939 8.18406C5.95493 8.17205 5.97408 8.16509 5.994 8.16405C6.0074 8.16371 6.0208 8.16472 6.034 8.16705C6.05933 8.17172 6.085 8.17939 6.111 8.19005C6.25273 8.25575 6.3877 8.33513 6.514 8.42706C6.5305 8.4401 6.54559 8.45485 6.559 8.47105L6.439 8.56105ZM6.566 8.66905L6.495 8.61406C6.47413 8.59887 6.45531 8.58106 6.439 8.56105L6.559 8.47105L6.567 8.47906L6.589 8.49705C6.607 8.51239 6.62933 8.53039 6.656 8.54905L6.566 8.66905ZM6.729 8.72605C6.72272 8.73087 6.71745 8.73589 6.7135 8.74276C6.70955 8.74962 6.70701 8.7572 6.706 8.76506C6.705 8.77906 6.71 8.78805 6.71 8.78905L6.69 8.76605C6.64998 8.73177 6.60861 8.70007 6.566 8.66905L6.656 8.54905C6.701 8.58305 6.756 8.62206 6.793 8.65806C6.811 8.67506 6.832 8.69806 6.844 8.72206C6.85377 8.73973 6.85795 8.75995 6.856 8.78005C6.85254 8.80621 6.83888 8.82993 6.818 8.84605L6.729 8.72605ZM6.013 10.0351C6.11513 9.75684 6.23094 9.48384 6.36 9.21706C6.472 8.99906 6.589 8.82805 6.729 8.72605L6.818 8.84605C6.707 8.92805 6.602 9.07205 6.494 9.28505C6.36742 9.54705 6.25362 9.81603 6.153 10.0891L6.013 10.0351ZM5.28 10.6531C5.42957 10.5726 5.57386 10.4818 5.712 10.3831C5.84169 10.2941 5.94582 10.1728 6.014 10.0311L6.152 10.0911C6.0717 10.2553 5.95176 10.3969 5.803 10.5031C5.659 10.6131 5.496 10.7031 5.353 10.7831L5.28 10.6531ZM4.803 11.1101C4.795 11.0001 4.873 10.9151 4.955 10.8511C5.04 10.7851 5.159 10.7191 5.28 10.6511L5.353 10.7831C5.229 10.8531 5.122 10.9121 5.047 10.9701C4.969 11.0301 4.951 11.0711 4.953 11.0981L4.803 11.1101ZM4.751 11.1711C4.75836 11.1705 4.76555 11.1676 4.77215 11.1643C4.77875 11.161 4.78464 11.1564 4.78947 11.1509C4.7943 11.1453 4.79799 11.1388 4.80031 11.1318C4.80263 11.1248 4.80355 11.1174 4.803 11.1101L4.953 11.0981C4.95504 11.1252 4.95168 11.1525 4.94311 11.1783C4.93455 11.2042 4.92094 11.228 4.90309 11.2486C4.88524 11.2691 4.86349 11.286 4.8391 11.298C4.81471 11.3101 4.78817 11.3183 4.761 11.3201L4.751 11.1711ZM8.658 11.1321C8.67172 11.1393 8.68772 11.141 8.70264 11.1367C8.71756 11.1324 8.73023 11.1225 8.738 11.1091L8.868 11.1811C8.84121 11.229 8.79667 11.2646 8.74395 11.2801C8.69122 11.2956 8.63452 11.2899 8.586 11.2641L8.658 11.1321ZM8.229 10.3351C8.257 10.4561 8.294 10.6191 8.362 10.7721C8.429 10.9251 8.523 11.0591 8.658 11.1321L8.586 11.2641C8.41 11.1681 8.298 11.0001 8.225 10.8321C8.16218 10.6829 8.1146 10.5278 8.083 10.3691L8.229 10.3351ZM8.224 10.3111L8.229 10.3351L8.083 10.3691L8.077 10.3451L8.224 10.3111ZM8.197 10.1901L8.224 10.3111L8.077 10.3451L8.05 10.2191L8.197 10.1901ZM8.169 10.0471L8.194 10.1711L8.197 10.1841V10.1901C8.197 10.1901 8.139 10.2771 8.05 10.2191L8.197 10.1901C8.109 10.1311 8.05 10.2191 8.05 10.2191V10.2131L8.047 10.2001L8.039 10.1591L8.022 10.0771L8.169 10.0471ZM7.899 9.58705C8.009 9.70305 8.122 9.81806 8.169 10.0471L8.022 10.0771C7.984 9.89405 7.899 9.80405 7.79 9.69005L7.899 9.58705ZM7.871 9.55805L7.898 9.58606L7.79 9.69005L7.763 9.66205L7.871 9.55805ZM7.7 9.38706C7.766 9.45106 7.82333 9.50839 7.872 9.55906L7.763 9.66306C7.71633 9.61506 7.661 9.55839 7.595 9.49306L7.7 9.38706ZM7.03 8.48005C7.03 8.53405 7.04967 8.59872 7.089 8.67405C7.129 8.75005 7.183 8.82972 7.251 8.91306C7.385 9.07806 7.555 9.24505 7.699 9.38605L7.593 9.49306C7.43109 9.33971 7.27785 9.17746 7.134 9.00706C7.06609 8.92551 7.00647 8.83741 6.956 8.74406C6.91059 8.66312 6.88458 8.57275 6.88 8.48005H7.03ZM7.468 8.27206H7.466L7.46 8.27305L7.439 8.27805C7.42233 8.28205 7.40133 8.28839 7.376 8.29706C7.32076 8.316 7.26637 8.33735 7.213 8.36106C7.16282 8.38436 7.11465 8.41178 7.069 8.44305C7.05605 8.45261 7.0443 8.46369 7.034 8.47605C7.027 8.48605 7.03 8.48605 7.03 8.48005H6.88C6.88 8.44305 6.896 8.41106 6.913 8.38706C6.93128 8.36253 6.9532 8.34095 6.978 8.32306C7.03195 8.28478 7.08957 8.25195 7.15 8.22506C7.24864 8.17968 7.35191 8.14514 7.458 8.12205L7.468 8.27206ZM7.628 8.22305C7.598 8.23439 7.56967 8.24439 7.543 8.25306C7.51893 8.2626 7.49372 8.26899 7.468 8.27206L7.458 8.12205L7.468 8.12005L7.496 8.11106L7.576 8.08306L7.628 8.22305ZM7.763 8.11806C7.76478 8.13377 7.77268 8.14814 7.785 8.15806C7.796 8.16806 7.806 8.16806 7.807 8.16806C7.807 8.16672 7.797 8.16872 7.777 8.17405C7.737 8.18305 7.683 8.20306 7.627 8.22406L7.576 8.08306C7.628 8.06306 7.691 8.04005 7.742 8.02805C7.76884 8.02163 7.79643 8.01894 7.824 8.02006C7.84414 8.02167 7.86331 8.02934 7.879 8.04205C7.89861 8.05912 7.91081 8.08315 7.913 8.10906L7.763 8.11806ZM8.472 9.43105C8.29432 9.19405 8.12846 8.94842 7.975 8.69505C7.853 8.48305 7.773 8.29106 7.763 8.11806L7.913 8.10906C7.921 8.24706 7.986 8.41305 8.105 8.62005C8.224 8.82605 8.391 9.06406 8.593 9.34306L8.472 9.43105ZM8.59 10.3831C8.602 10.2181 8.614 10.0421 8.6 9.87306C8.5961 9.71626 8.55128 9.5632 8.47 9.42905L8.595 9.34605C8.696 9.49905 8.737 9.68206 8.75 9.86206C8.764 10.0431 8.751 10.2301 8.74 10.3931L8.59 10.3831ZM8.715 11.0321C8.618 10.9791 8.59 10.8671 8.581 10.7641C8.571 10.6561 8.58 10.5211 8.59 10.3831L8.74 10.3931C8.73 10.5361 8.722 10.6571 8.73 10.7511C8.739 10.8501 8.763 10.8871 8.787 10.9001L8.715 11.0321ZM8.736 11.1091C8.73974 11.1026 8.74216 11.0955 8.74312 11.0882C8.74409 11.0808 8.74358 11.0733 8.74163 11.0662C8.73967 11.059 8.73631 11.0523 8.73174 11.0464C8.72717 11.0406 8.72148 11.0357 8.715 11.0321L8.787 10.9001C8.81076 10.9132 8.83169 10.9309 8.84858 10.9522C8.86548 10.9734 8.878 10.9978 8.88544 11.0239C8.89287 11.05 8.89507 11.0774 8.89191 11.1043C8.88874 11.1313 8.88028 11.1574 8.867 11.1811L8.736 11.1091ZM11.557 8.61606C11.5701 8.66947 11.5617 8.72589 11.5337 8.7732C11.5056 8.82051 11.4602 8.85493 11.407 8.86906L11.37 8.72305C11.3846 8.71863 11.3969 8.70883 11.4045 8.69565C11.4121 8.68247 11.4145 8.66688 11.411 8.65206L11.557 8.61606ZM11.306 8.46605C11.3323 8.45932 11.3597 8.45786 11.3866 8.46176C11.4135 8.46567 11.4394 8.47486 11.4627 8.4888C11.4861 8.50274 11.5064 8.52116 11.5226 8.54301C11.5388 8.56485 11.5505 8.58967 11.557 8.61606L11.411 8.65206C11.4094 8.6448 11.4063 8.63794 11.402 8.63189C11.3976 8.62583 11.3921 8.6207 11.3858 8.61679C11.3795 8.61288 11.3724 8.61027 11.3651 8.60911C11.3577 8.60796 11.3502 8.60828 11.343 8.61005L11.306 8.46605ZM10.926 8.12606C11.016 8.23706 11.093 8.33206 11.163 8.39506C11.237 8.46106 11.28 8.47305 11.306 8.46605L11.343 8.61005C11.236 8.63805 11.14 8.57605 11.063 8.50605C10.9727 8.41651 10.8882 8.32132 10.81 8.22105L10.926 8.12606ZM10.106 7.45906C10.284 7.50306 10.439 7.60906 10.572 7.73106C10.705 7.85306 10.822 7.99906 10.926 8.12606L10.81 8.22105C10.7049 8.08729 10.5913 7.96036 10.47 7.84106C10.3596 7.72875 10.2217 7.64737 10.07 7.60506L10.106 7.45906ZM8.764 7.01906C8.864 7.11506 9.024 7.19306 9.253 7.26306C9.48 7.33306 9.763 7.39306 10.103 7.45906L10.074 7.60606C9.78255 7.55366 9.49387 7.48691 9.209 7.40606C8.974 7.33406 8.786 7.24905 8.66 7.12805L8.764 7.01906ZM8.499 7.23106C8.524 7.18106 8.554 7.12106 8.583 7.07706C8.59838 7.05394 8.61689 7.03308 8.638 7.01505C8.65381 7.00269 8.67298 6.99538 8.693 6.99406C8.71882 6.99336 8.7439 7.00267 8.763 7.02006L8.66 7.12805C8.67 7.13872 8.68433 7.14406 8.703 7.14406C8.71131 7.14384 8.71935 7.14105 8.726 7.13606C8.726 7.13472 8.72 7.14272 8.708 7.16005C8.6812 7.20506 8.65619 7.25109 8.633 7.29805L8.499 7.23106ZM8.439 7.34006L8.446 7.33005L8.46 7.30606L8.499 7.23106L8.633 7.29805L8.592 7.37805C8.58048 7.40115 8.56603 7.42266 8.549 7.44205L8.439 7.34006ZM8.266 8.00006C8.25199 7.98648 8.24226 7.9691 8.238 7.95005C8.23499 7.93692 8.23332 7.92352 8.233 7.91005C8.233 7.88339 8.23633 7.85672 8.243 7.83005C8.25832 7.7672 8.27667 7.70513 8.298 7.64406C8.3282 7.55768 8.36428 7.47349 8.406 7.39206C8.41614 7.3735 8.4282 7.35607 8.442 7.34006L8.552 7.44205C8.552 7.44072 8.54733 7.44806 8.538 7.46406L8.508 7.52406C8.486 7.57306 8.461 7.63405 8.439 7.69405C8.41633 7.75739 8.39967 7.81272 8.389 7.86006C8.3856 7.87652 8.3836 7.89325 8.383 7.91005V7.91306L8.37 7.89105L8.266 8.00006ZM9.478 8.25006C9.281 8.24506 9.04 8.24006 8.821 8.20806C8.606 8.17806 8.392 8.12106 8.266 8.00006L8.37 7.89105C8.459 7.97605 8.629 8.02906 8.842 8.05906C9.052 8.08906 9.284 8.09605 9.482 8.10105L9.478 8.25006ZM9.714 8.25905L9.478 8.25006L9.482 8.10105C9.572 8.10372 9.652 8.10572 9.722 8.10906L9.714 8.25905ZM9.754 8.26105L9.714 8.25905L9.722 8.10906L9.762 8.11106L9.754 8.26105ZM10.187 8.38605C10.034 8.27705 9.912 8.27005 9.754 8.26105L9.761 8.11106C9.922 8.12106 10.083 8.12805 10.274 8.26305L10.187 8.38605ZM10.303 8.47006L10.187 8.38605L10.274 8.26305L10.391 8.34805L10.303 8.47006ZM10.41 8.54405L10.303 8.47006L10.391 8.34805L10.494 8.42006L10.41 8.54405ZM10.43 8.55805L10.41 8.54405L10.494 8.42006L10.514 8.43305L10.43 8.55805ZM11.409 8.86806C11.215 8.91806 11.018 8.87206 10.849 8.80006C10.681 8.72806 10.532 8.62605 10.43 8.55805L10.514 8.43305C10.617 8.50305 10.755 8.59605 10.909 8.66205C11.063 8.72805 11.223 8.76205 11.372 8.72305L11.409 8.86806ZM2.339 8.21405C2.3295 8.22604 2.32493 8.2412 2.32623 8.25644C2.32753 8.27169 2.3346 8.28585 2.346 8.29605L2.248 8.40906C2.20675 8.3728 2.18134 8.32182 2.17723 8.26704C2.17311 8.21227 2.19062 8.15807 2.226 8.11606L2.339 8.21405ZM3.209 7.96006C3.05574 7.95877 2.90271 7.97216 2.752 8.00006C2.588 8.03406 2.438 8.09806 2.339 8.21506L2.224 8.11705C2.354 7.96505 2.542 7.89106 2.721 7.85306C2.901 7.81506 3.082 7.81305 3.205 7.81105L3.209 7.96006ZM3.233 7.96006H3.208L3.206 7.81006H3.23L3.233 7.96006ZM3.357 7.96006H3.233L3.23 7.81006H3.36L3.357 7.96006ZM3.503 7.96106H3.418L3.376 7.96006H3.357C3.357 7.96006 3.285 7.88306 3.36 7.81006L3.357 7.96006C3.433 7.88506 3.36 7.81006 3.36 7.81006H3.365L3.504 7.81105L3.503 7.96106ZM4.01 7.79105C3.873 7.87705 3.736 7.96206 3.503 7.96106L3.504 7.81105C3.692 7.81205 3.796 7.74806 3.931 7.66406L4.01 7.79105ZM4.043 7.77105L4.01 7.79105L3.931 7.66406L3.964 7.64406L4.043 7.77105ZM4.245 7.64105C4.17033 7.69039 4.103 7.73372 4.043 7.77105L3.964 7.64406C4.02133 7.60806 4.08734 7.56505 4.162 7.51505L4.245 7.64105ZM5.276 7.17405C5.154 7.15505 4.985 7.21006 4.792 7.30706C4.60387 7.40824 4.42128 7.5204 4.245 7.64105L4.162 7.51505C4.326 7.40705 4.527 7.27305 4.725 7.17305C4.918 7.07505 5.125 6.99906 5.298 7.02606L5.276 7.17405ZM5.385 7.64605L5.383 7.62005L5.373 7.55405C5.36211 7.49346 5.34843 7.43339 5.332 7.37406C5.31838 7.31824 5.29998 7.26371 5.277 7.21106C5.27056 7.19578 5.26287 7.18106 5.254 7.16705L5.252 7.16406C5.254 7.16506 5.262 7.17205 5.276 7.17405L5.298 7.02606C5.321 7.02906 5.339 7.04106 5.35 7.05006C5.36133 7.06006 5.37033 7.07039 5.377 7.08105C5.391 7.10172 5.40367 7.12506 5.415 7.15106C5.4686 7.29756 5.50778 7.44894 5.532 7.60306C5.53467 7.62439 5.535 7.64572 5.533 7.66705L5.385 7.64605ZM5.399 7.81205C5.39367 7.78072 5.38967 7.75106 5.387 7.72306C5.38303 7.69758 5.38236 7.6717 5.385 7.64605L5.533 7.66705V7.67806L5.536 7.70705C5.538 7.73039 5.54067 7.75806 5.546 7.79006L5.399 7.81205ZM5.474 7.96606C5.45819 7.96439 5.44237 7.96906 5.43 7.97906C5.418 7.98806 5.415 7.99806 5.415 7.99906L5.417 7.96806C5.41305 7.91584 5.40704 7.8638 5.399 7.81205L5.546 7.79006C5.554 7.84506 5.565 7.91206 5.567 7.96406C5.567 7.98906 5.567 8.02005 5.557 8.04605C5.55137 8.0657 5.53985 8.08315 5.524 8.09605C5.50308 8.11167 5.47688 8.11849 5.451 8.11505L5.474 7.96606ZM4.042 8.38605C4.357 8.24605 4.631 8.12905 4.865 8.05405C5.099 7.97905 5.302 7.94006 5.474 7.96606L5.451 8.11505C5.315 8.09405 5.139 8.12306 4.911 8.19606C4.63654 8.29194 4.3659 8.40107 4.102 8.52305L4.042 8.38605ZM3.085 8.30405C3.245 8.35005 3.415 8.39806 3.582 8.42006C3.73674 8.44909 3.89639 8.43702 4.045 8.38506L4.098 8.52505C3.928 8.59205 3.742 8.59306 3.562 8.56906C3.382 8.54506 3.202 8.49306 3.045 8.44906L3.085 8.30405ZM2.426 8.29106C2.498 8.20806 2.612 8.20305 2.716 8.21605C2.824 8.22905 2.952 8.26605 3.085 8.30405L3.045 8.44906C2.93045 8.41411 2.81491 8.38606 2.697 8.36505C2.599 8.35205 2.556 8.36806 2.539 8.38906L2.426 8.29106ZM2.346 8.29605C2.371 8.31805 2.406 8.31506 2.426 8.29106L2.539 8.38906C2.52121 8.40965 2.50052 8.42652 2.47618 8.43868C2.45183 8.45085 2.42532 8.45807 2.39817 8.45993C2.37102 8.46179 2.34377 8.45825 2.318 8.44952C2.29222 8.44079 2.26843 8.42703 2.248 8.40906L2.346 8.29605Z" fill="#984111"/>
<path fill-rule="evenodd" clip-rule="evenodd" d="M7 2.06006C6.93842 2.06017 6.87895 2.08247 6.83248 2.12288C6.78601 2.16329 6.75566 2.21909 6.747 2.28006L6.333 5.21706H7.667L7.253 2.28006C7.24434 2.21909 7.214 2.16329 7.16753 2.12288C7.12106 2.08247 7.06158 2.06017 7 2.06006ZM10.494 3.50606C10.4503 3.4625 10.3924 3.43619 10.3308 3.43196C10.2692 3.42774 10.2082 3.44588 10.159 3.48306L7.79 5.26806L8.733 6.21106L10.518 3.84106C10.5552 3.79182 10.5733 3.73081 10.5691 3.66926C10.5649 3.60771 10.5376 3.54975 10.494 3.50606ZM11.722 6.74606C11.7831 6.75466 11.8391 6.78505 11.8795 6.83163C11.92 6.87821 11.9423 6.93785 11.9423 6.99956C11.9423 7.06127 11.92 7.12091 11.8795 7.16749C11.8391 7.21407 11.7831 7.24445 11.722 7.25306L8.784 7.66706V6.33306L11.722 6.74606ZM10.495 10.4941C10.585 10.4041 10.595 10.2611 10.518 10.1591L8.732 7.79006L7.789 8.73306L10.159 10.5181C10.2082 10.5552 10.2692 10.5734 10.3308 10.5692C10.3924 10.5649 10.4503 10.5386 10.494 10.4951M7.254 11.7221C7.2454 11.7832 7.21501 11.8391 7.16843 11.8796C7.12185 11.9201 7.06222 11.9424 7.0005 11.9424C6.93879 11.9424 6.87916 11.9201 6.83258 11.8796C6.786 11.8391 6.75561 11.7832 6.747 11.7221L6.333 8.78406H7.667L7.254 11.7221ZM3.506 10.4951C3.596 10.5851 3.739 10.5951 3.841 10.5181L6.211 8.73306L5.268 7.79006L3.483 10.1601C3.44582 10.2093 3.42768 10.2703 3.43191 10.3319C3.43613 10.3934 3.46244 10.4514 3.506 10.4951ZM2.28 7.25406C2.21889 7.24546 2.16295 7.21507 2.12247 7.16849C2.08199 7.12191 2.05969 7.06227 2.05969 7.00056C2.05969 6.93885 2.08199 6.87921 2.12247 6.83263C2.16295 6.78605 2.21889 6.75566 2.28 6.74706L5.218 6.33306V7.66706L2.28 7.25406ZM3.507 3.50606C3.417 3.59606 3.407 3.73906 3.484 3.84106L5.269 6.21106L6.212 5.26806L3.842 3.48306C3.79277 3.44588 3.73176 3.42774 3.67021 3.43196C3.60865 3.43619 3.5507 3.4625 3.507 3.50606Z" fill="#FFC125"/>
<path d="M6.33301 5.21701L6.25901 5.20701L6.24701 5.29201H6.33301V5.21701ZM7.66701 5.21701V5.29201H7.75301L7.74101 5.20701L7.66701 5.21701ZM7.79001 5.26801L7.74501 5.20801L7.67601 5.26001L7.73701 5.32001L7.79001 5.26801ZM8.73301 6.21101L8.68001 6.26401L8.74101 6.32401L8.79301 6.25601L8.73301 6.21101ZM8.78401 7.66701H8.70901V7.75301L8.79401 7.74101L8.78401 7.66701ZM8.78401 6.33301L8.79401 6.25901L8.70901 6.24701V6.33301H8.78401ZM8.73201 7.78901L8.79201 7.74401L8.74001 7.67501L8.68001 7.73601L8.73201 7.78901ZM7.78901 8.73201L7.73601 8.67901L7.67601 8.74001L7.74401 8.79201L7.78901 8.73201ZM6.33301 8.78301V8.70801H6.24701L6.25901 8.79301L6.33301 8.78301ZM7.66701 8.78301L7.74101 8.79301L7.75301 8.70801H7.66701V8.78301ZM6.21001 8.73201L6.25501 8.79201L6.32401 8.74001L6.26301 8.68001L6.21001 8.73201ZM5.26701 7.78901L5.32001 7.73601L5.25901 7.67601L5.20701 7.74401L5.26701 7.78901ZM5.21701 6.33301H5.29201V6.24701L5.20701 6.25901L5.21701 6.33301ZM5.21701 7.66701L5.20701 7.74101L5.29201 7.75301V7.66701H5.21701ZM5.26801 6.21001L5.20801 6.25501L5.26001 6.32401L5.32001 6.26301L5.26801 6.21001ZM6.21101 5.26701L6.26401 5.32001L6.32401 5.25901L6.25601 5.20701L6.21101 5.26701ZM6.82001 2.29001C6.82586 2.24654 6.84737 2.2067 6.88052 2.17798C6.91366 2.14925 6.95615 2.13362 7.00001 2.13401V1.98401C6.92027 1.98399 6.84322 2.01284 6.7831 2.06523C6.72299 2.11763 6.68388 2.19001 6.67301 2.26901L6.82001 2.29001ZM6.40701 5.22801L6.82001 2.29001L6.67301 2.26901L6.25901 5.20701L6.40701 5.22801ZM7.66601 5.14201H6.33301V5.29201H7.66701L7.66601 5.14201ZM7.17901 2.29001L7.59201 5.22801L7.74101 5.20701L7.32701 2.27001L7.17901 2.29001ZM7.00001 2.13401C7.0437 2.13386 7.08594 2.14961 7.11888 2.17831C7.15181 2.20701 7.17318 2.24671 7.17901 2.29001L7.32701 2.27001C7.31614 2.19101 7.27703 2.11763 7.21691 2.06523C7.1568 2.01284 7.07975 1.98399 7.00001 1.98401V2.13401ZM10.204 3.54301C10.2387 3.51645 10.2819 3.50342 10.3255 3.50636C10.3691 3.50931 10.4102 3.52802 10.441 3.55901L10.547 3.45301C10.4907 3.3965 10.4157 3.36232 10.3361 3.35681C10.2565 3.35129 10.1776 3.37581 10.114 3.42401L10.204 3.54301ZM7.83401 5.32801L10.204 3.54301L10.114 3.42401L7.74501 5.20801L7.83401 5.32801ZM8.78501 6.15801L7.84201 5.21501L7.73601 5.32101L8.67901 6.26401L8.78501 6.15801ZM10.457 3.79601L8.67201 6.16601L8.79201 6.25601L10.577 3.88601L10.457 3.79601ZM10.441 3.55901C10.472 3.58984 10.4907 3.63088 10.4937 3.67449C10.4966 3.71811 10.4836 3.7613 10.457 3.79601L10.577 3.88601C10.6252 3.82241 10.6487 3.74349 10.6432 3.66388C10.6377 3.58427 10.6035 3.50936 10.547 3.45301L10.441 3.55901ZM12.016 7.00001C12.016 6.92027 11.9872 6.84322 11.9348 6.7831C11.8824 6.72299 11.81 6.68388 11.731 6.67301L11.712 6.82101C11.7551 6.82706 11.7936 6.84852 11.8221 6.88143C11.8506 6.91435 11.8662 6.95647 11.866 7.00001H12.016ZM11.731 7.32701C11.81 7.31614 11.8824 7.27703 11.9348 7.21691C11.9872 7.1568 12.016 7.07975 12.016 7.00001H11.866C11.8662 7.0437 11.8504 7.08594 11.8217 7.11888C11.793 7.15181 11.7533 7.17318 11.71 7.17901L11.731 7.32701ZM8.79401 7.74101L11.731 7.32701L11.711 7.17901L8.77301 7.59201L8.79401 7.74101ZM8.70901 6.33301V7.66701H8.85801V6.33301H8.70901ZM11.731 6.67301L8.79401 6.25901L8.77301 6.40801L11.71 6.82101L11.731 6.67301ZM10.457 10.204C10.4836 10.2387 10.4966 10.2819 10.4937 10.3255C10.4907 10.3691 10.472 10.4102 10.441 10.441L10.547 10.547C10.6035 10.4907 10.6377 10.4157 10.6432 10.3361C10.6487 10.2565 10.6252 10.1776 10.577 10.114L10.457 10.204ZM8.67201 7.83401L10.457 10.204L10.577 10.114L8.79201 7.74401L8.67201 7.83401ZM7.84201 8.78501L8.78501 7.84201L8.67901 7.73601L7.73601 8.67901L7.84201 8.78501ZM10.204 10.457L7.83401 8.67201L7.74401 8.79201L10.114 10.577L10.204 10.457ZM10.441 10.441C10.4102 10.472 10.3691 10.4907 10.3255 10.4937C10.2819 10.4966 10.2387 10.4836 10.204 10.457L10.114 10.577C10.1776 10.6252 10.2565 10.6487 10.3361 10.6432C10.4157 10.6377 10.4907 10.6035 10.547 10.547L10.441 10.441ZM7.00001 12.016C7.07975 12.016 7.1568 11.9872 7.21691 11.9348C7.27703 11.8824 7.31614 11.81 7.32701 11.731L7.17901 11.711C7.17296 11.7541 7.1515 11.7936 7.11858 11.8221C7.08567 11.8506 7.04355 11.8662 7.00001 11.866V12.016ZM6.67301 11.731C6.68388 11.81 6.72299 11.8824 6.7831 11.9348C6.84322 11.9872 6.92027 12.016 7.00001 12.016V11.866C6.95632 11.8662 6.91407 11.8504 6.88114 11.8217C6.84821 11.793 6.82683 11.7533 6.82101 11.71L6.67301 11.731ZM6.25901 8.79301L6.67301 11.731L6.82101 11.711L6.40801 8.77301L6.25901 8.79301ZM7.66701 8.70801H6.33301V8.85801H7.66701V8.70801ZM7.32701 11.731L7.74101 8.79301L7.59201 8.77301L7.17901 11.71L7.32701 11.731ZM3.79501 10.457C3.7603 10.4836 3.71811 10.4966 3.67449 10.4937C3.63088 10.4907 3.58984 10.472 3.55901 10.441L3.45301 10.547C3.50936 10.6035 3.58427 10.6377 3.66388 10.6432C3.74349 10.6487 3.82241 10.6252 3.88601 10.577L3.79501 10.457ZM6.16601 8.67201L3.79501 10.457L3.88601 10.577L6.25501 8.79201L6.16601 8.67201ZM5.21501 7.84201L6.15801 8.78501L6.26401 8.67901L5.32001 7.73601L5.21501 7.84201ZM3.54201 10.204L5.32801 7.83401L5.20801 7.74401L3.42301 10.114L3.54201 10.204ZM3.55901 10.441C3.52802 10.4102 3.50931 10.3691 3.50636 10.3255C3.50342 10.2819 3.51545 10.2387 3.54201 10.204L3.42301 10.114C3.37481 10.1776 3.35129 10.2565 3.35681 10.3361C3.36232 10.4157 3.3965 10.4907 3.45301 10.547L3.55901 10.441ZM1.98401 7.00001C1.98399 7.07975 2.01284 7.1568 2.06523 7.21691C2.11763 7.27703 2.19001 7.31614 2.26901 7.32701L2.28901 7.17901C2.24608 7.17274 2.20685 7.15118 2.17856 7.11829C2.15026 7.0854 2.13479 7.0434 2.13501 7.00001H1.98401ZM2.26901 6.67301C2.19001 6.68388 2.11763 6.72299 2.06523 6.7831C2.01284 6.84322 1.98399 6.92027 1.98401 7.00001H2.13501C2.13486 6.95632 2.14961 6.91407 2.17831 6.88114C2.20701 6.84821 2.24671 6.82683 2.29001 6.82101L2.26901 6.67301ZM5.20701 6.25901L2.26901 6.67301L2.29001 6.82101L5.22801 6.40801L5.20701 6.25901ZM5.29201 7.66701V6.33301H5.14201V7.66701H5.29201ZM2.26901 7.32701L5.20701 7.74101L5.22701 7.59201L2.29001 7.18001L2.26901 7.32701ZM3.54301 3.79501C3.51645 3.7603 3.50342 3.71811 3.50636 3.67449C3.50931 3.63088 3.52802 3.58984 3.55901 3.55901L3.45301 3.45301C3.3965 3.50936 3.36232 3.58427 3.35681 3.66388C3.35129 3.74349 3.37481 3.82241 3.42301 3.88601L3.54301 3.79501ZM5.32801 6.16601L3.54301 3.79501L3.42301 3.88601L5.20801 6.25501L5.32801 6.16601ZM6.15801 5.21501L5.21501 6.15801L5.32101 6.26401L6.26401 5.32001L6.15801 5.21501ZM3.79501 3.54301L6.16601 5.32801L6.25601 5.20801L3.88601 3.42301L3.79501 3.54301ZM3.55901 3.55901C3.58984 3.52802 3.63088 3.50931 3.67449 3.50636C3.71811 3.50342 3.7603 3.51645 3.79501 3.54301L3.88601 3.42301C3.82241 3.37481 3.74349 3.35129 3.66388 3.35681C3.58427 3.36232 3.50936 3.3965 3.45301 3.45301L3.55901 3.55901Z" fill="#984111"/>
<path fill-rule="evenodd" clip-rule="evenodd" d="M7.00002 8.842C8.06802 8.842 8.93302 7.988 8.93302 6.934C8.93302 5.88 8.06802 5.026 7.00002 5.026C5.93202 5.026 5.06702 5.881 5.06702 6.934C5.06702 7.988 5.93202 8.842 7.00002 8.842Z" fill="#FFC125" stroke="#984111" stroke-width="0.15"/>
<path d="M6.813 6.43697L6.688 6.35497C6.63031 6.31601 6.56778 6.28474 6.502 6.26197C6.47609 6.2537 6.44918 6.24899 6.422 6.24797C6.302 6.2473 6.137 6.32163 5.927 6.47097L5.849 6.36397C6.079 6.1993 6.26967 6.11663 6.421 6.11597C6.461 6.11597 6.50167 6.12263 6.543 6.13597C6.61944 6.16303 6.69231 6.1993 6.76 6.24397L6.884 6.32497L6.932 6.35197C7.092 6.35197 7.101 6.92197 6.988 7.09597C6.95668 7.14361 6.91745 7.18555 6.872 7.21997L6.785 7.28397C6.745 7.31397 6.733 7.33197 6.733 7.35397C6.733 7.35697 6.781 7.36897 6.888 7.36397L6.961 7.35897C6.99753 7.35495 7.03425 7.35294 7.071 7.35297V7.48397C7.052 7.48397 7.042 7.48397 6.971 7.48997L6.894 7.49497C6.707 7.50497 6.6 7.47797 6.6 7.35297C6.6 7.28197 6.635 7.23297 6.703 7.17997C6.714 7.17197 6.773 7.12997 6.789 7.11697C6.8227 7.09111 6.85207 7.06006 6.876 7.02497C6.91 6.97197 6.932 6.83297 6.929 6.68497C6.92743 6.61592 6.91872 6.54722 6.903 6.47997C6.87081 6.47076 6.84039 6.45622 6.813 6.43697Z" fill="#984111"/>
<path fill-rule="evenodd" clip-rule="evenodd" d="M7.35197 6.38997L7.27997 6.43697C7.25258 6.45622 7.22216 6.47076 7.18997 6.47997L7.18197 6.51197C7.1713 6.56903 7.16561 6.62692 7.16497 6.68497C7.16197 6.83297 7.18397 6.97197 7.21797 7.02497C7.2419 7.06006 7.27127 7.09111 7.30497 7.11697L7.39097 7.17997C7.45897 7.23297 7.49397 7.28197 7.49397 7.35297C7.49397 7.47797 7.38697 7.50397 7.19897 7.49497L7.12197 7.48997L7.02197 7.48397V7.35297C7.04697 7.35297 7.05697 7.35297 7.13197 7.35897L7.20597 7.36397C7.31297 7.36897 7.36097 7.35697 7.36097 7.35397C7.36097 7.33197 7.34797 7.31397 7.30897 7.28397L7.28297 7.26397L7.22297 7.21997C7.17716 7.18564 7.13759 7.14369 7.10597 7.09597C6.99297 6.92097 7.00297 6.35197 7.16197 6.35197L7.20997 6.32497L7.33397 6.24497C7.40161 6.19995 7.47448 6.16335 7.55097 6.13597C7.59036 6.12302 7.63152 6.11627 7.67297 6.11597C7.82431 6.11663 8.01497 6.1993 8.24497 6.36397L8.16697 6.47097C7.95564 6.32163 7.79097 6.2473 7.67297 6.24797C7.64512 6.2488 7.61752 6.25351 7.59097 6.26197C7.52554 6.28482 7.46335 6.31608 7.40597 6.35497L7.35197 6.38997Z" fill="#984111"/>
<path d="M7.41098 7.76499L7.47198 7.80799L7.51798 7.74199L7.44898 7.70099L7.41098 7.76499ZM6.57898 7.76599L6.54598 7.69899L6.45998 7.74199L6.52198 7.81399L6.57898 7.76599ZM6.83098 7.81699L6.80798 7.74599L6.67798 7.78599L6.78198 7.87399L6.83098 7.81699ZM7.18498 7.81599L7.23898 7.86799L7.32098 7.78299L7.20998 7.74499L7.18498 7.81599ZM6.61098 7.77299L6.57198 7.70899L6.50198 7.75199L6.55198 7.81799L6.61098 7.77299ZM7.38198 7.77299L7.44598 7.81199L7.48198 7.75399L7.42698 7.71299L7.38198 7.77299ZM7.57898 7.73499L7.64398 7.77399L7.67798 7.71699L7.62498 7.67699L7.57898 7.73499ZM6.39298 7.73099L6.35298 7.66799L6.28398 7.71099L6.33298 7.77599L6.39298 7.73099ZM7.01598 7.56399C6.88253 7.56409 6.75098 7.59561 6.63198 7.65599L6.69898 7.78999C6.79719 7.74006 6.9058 7.71402 7.01598 7.71399V7.56399ZM7.38098 7.65999C7.27039 7.59518 7.14414 7.56197 7.01598 7.56399V7.71399C7.12598 7.71399 7.22164 7.73866 7.30298 7.78799L7.38098 7.65999ZM7.44898 7.70099L7.38098 7.65999L7.30298 7.78799L7.37298 7.82999L7.44898 7.70099ZM7.42698 7.87399L7.47198 7.80799L7.34898 7.72299L7.30298 7.78799L7.42698 7.87399ZM7.01598 8.12399C7.18798 8.12399 7.32398 8.02299 7.42698 7.87399L7.30298 7.78799C7.21631 7.91332 7.12064 7.97532 7.01598 7.97399V8.12399ZM6.58498 7.88699C6.70498 8.02799 6.84998 8.12399 7.01598 8.12399V7.97399C6.91131 7.97466 6.80498 7.91332 6.69898 7.78999L6.58498 7.88699ZM6.52198 7.81399L6.58498 7.88699L6.69898 7.78999L6.63598 7.71699L6.52198 7.81399ZM6.63198 7.65599L6.54598 7.69899L6.61298 7.83299L6.69898 7.78999L6.63198 7.65599ZM7.01598 7.82399C6.98398 7.82399 6.93898 7.81099 6.87998 7.75999L6.78198 7.87399C6.86064 7.94066 6.93864 7.97399 7.01598 7.97399V7.82399ZM7.13098 7.76399C7.08398 7.81299 7.04598 7.82399 7.01598 7.82399V7.97399C7.05854 7.97316 7.10044 7.96327 7.13889 7.945C7.17734 7.92672 7.21145 7.90047 7.23898 7.86799L7.13098 7.76399ZM7.01598 7.86399C7.06525 7.86232 7.11441 7.86978 7.16098 7.88599L7.20998 7.74499C7.14739 7.72441 7.08185 7.71327 7.01598 7.71399V7.86399ZM6.85298 7.88899C6.90555 7.87169 6.96063 7.86324 7.01598 7.86399V7.71399C6.94531 7.71399 6.87598 7.72466 6.80798 7.74599L6.85298 7.88899ZM7.01598 7.95499C6.91598 7.95499 6.79998 7.89799 6.67098 7.72799L6.55198 7.81799C6.69598 8.00866 6.84998 8.10432 7.01598 8.10499V7.95499ZM7.31798 7.73399C7.21698 7.89999 7.11398 7.95499 7.01598 7.95499V8.10499C7.18531 8.10366 7.32864 8.00599 7.44598 7.81199L7.31798 7.73399ZM7.01598 7.73299C7.14398 7.73299 7.25098 7.76632 7.33698 7.83299L7.42698 7.71299C7.30804 7.62556 7.16356 7.57987 7.01598 7.58299V7.73299ZM6.64998 7.83699C6.76003 7.7692 6.88671 7.7332 7.01598 7.73299V7.58299C6.85919 7.58324 6.70552 7.62685 6.57198 7.70899L6.64998 7.83699ZM7.01598 7.43299C6.82768 7.43321 6.64327 7.48659 6.48398 7.58699L6.56298 7.71499C6.69849 7.62912 6.85554 7.58336 7.01598 7.58299V7.43299ZM7.52598 7.59999C7.38027 7.48726 7.20013 7.42828 7.01598 7.43299V7.58299C7.17731 7.58299 7.31698 7.62832 7.43498 7.71899L7.52598 7.59999ZM7.57298 7.63499L7.52598 7.59999L7.43498 7.71899L7.48198 7.75399L7.57298 7.63499ZM7.62498 7.67699L7.57298 7.63499L7.48198 7.75399L7.53298 7.79399L7.62498 7.67699ZM7.60998 7.83099L7.64398 7.77399L7.51498 7.69699L7.48198 7.75399L7.60998 7.83099ZM7.57998 7.88099L7.60998 7.83099L7.47998 7.75399L7.45098 7.80399L7.57998 7.88099ZM7.01598 8.25499C7.25998 8.25499 7.44598 8.10399 7.57998 7.88099L7.45098 7.80399C7.33231 8.00332 7.18731 8.10366 7.01598 8.10499V8.25499ZM6.42398 7.89999C6.58398 8.11299 6.77898 8.25499 7.01598 8.25499V8.10599C6.84664 8.10532 6.68964 8.00666 6.54498 7.80999L6.42398 7.89999ZM6.38198 7.84299L6.42398 7.89999L6.54498 7.80999L6.50198 7.75199L6.38198 7.84299ZM6.33298 7.77599L6.38198 7.84299L6.50198 7.75199L6.45298 7.68799L6.33298 7.77599ZM6.42298 7.62499L6.35298 7.66799L6.43298 7.79599L6.50298 7.75299L6.42298 7.62499ZM6.48398 7.58699L6.42398 7.62599L6.50298 7.75299L6.56298 7.71499L6.48398 7.58699ZM6.09798 6.52099C6.17235 6.48968 6.25228 6.47369 6.33298 6.47399V6.32399C6.2297 6.32194 6.12725 6.34277 6.03298 6.38499L6.09798 6.52099ZM5.99998 6.63399C5.99998 6.58999 6.03698 6.54999 6.09798 6.52099L6.03298 6.38499C5.95898 6.42099 5.84998 6.49899 5.84998 6.63399H5.99998ZM6.09798 6.74699C6.03698 6.71699 5.99998 6.67699 5.99998 6.63399H5.84998C5.84998 6.76899 5.95998 6.84699 6.03298 6.88199L6.09798 6.74699ZM6.33298 6.79399C6.25228 6.79429 6.17235 6.7783 6.09798 6.74699L6.03298 6.88199C6.11698 6.92199 6.22298 6.94399 6.33298 6.94399V6.79399ZM6.56898 6.74699C6.49429 6.77843 6.41401 6.79442 6.33298 6.79399V6.94399C6.44298 6.94399 6.54898 6.92299 6.63398 6.88199L6.56898 6.74699ZM6.66698 6.63399C6.66698 6.67799 6.62998 6.71799 6.56898 6.74699L6.63398 6.88199C6.70698 6.84699 6.81698 6.76899 6.81698 6.63399H6.66698ZM6.56898 6.52099C6.62998 6.54999 6.66698 6.58999 6.66698 6.63399H6.81698C6.81698 6.49899 6.70698 6.42099 6.63398 6.38499L6.56898 6.52099ZM6.33298 6.47399C6.41401 6.47356 6.49429 6.48955 6.56898 6.52099L6.63398 6.38499C6.5397 6.34277 6.43625 6.32194 6.33298 6.32399V6.47399ZM6.00598 6.60099C6.00168 6.61183 6.00031 6.62334 5.99998 6.63499H6.14998L6.14498 6.66099L6.00598 6.60099ZM6.02698 6.57099C6.01855 6.5797 6.01077 6.58986 6.00598 6.60099L6.14498 6.66099L6.13898 6.67099L6.02698 6.57099ZM6.09798 6.52099C6.07129 6.53238 6.04641 6.54944 6.02698 6.57099L6.13898 6.67099C6.13764 6.67032 6.14564 6.66532 6.16298 6.65599L6.09798 6.52099ZM6.33298 6.47399C6.25228 6.47369 6.17235 6.48968 6.09798 6.52099L6.16298 6.65599C6.21663 6.63305 6.27465 6.62213 6.33298 6.62399V6.47399ZM6.56898 6.52099C6.49429 6.48955 6.41401 6.47356 6.33298 6.47399V6.62399C6.40798 6.62399 6.46798 6.63899 6.50398 6.65599L6.56898 6.52099ZM6.64098 6.57099C6.62097 6.5492 6.59638 6.53213 6.56898 6.52099L6.50398 6.65599C6.52131 6.66532 6.52931 6.67032 6.52798 6.67099L6.64098 6.57099ZM6.65998 6.60099C6.65518 6.58986 6.6494 6.5797 6.64098 6.57099L6.52798 6.67099L6.52198 6.66099L6.65998 6.60099ZM6.66698 6.63399C6.66664 6.62234 6.66427 6.61183 6.65998 6.60099L6.52198 6.66099L6.51698 6.63999V6.63299L6.66698 6.63399ZM6.65998 6.66599C6.66405 6.65578 6.66642 6.64497 6.66698 6.63399L6.51698 6.63299V6.62699L6.52198 6.60699L6.65998 6.66599ZM6.63998 6.69599C6.6484 6.68729 6.65518 6.67712 6.65998 6.66599L6.52198 6.60699L6.52798 6.59699L6.63998 6.69599ZM6.56998 6.74599C6.59666 6.7346 6.62055 6.71754 6.63998 6.69599L6.52798 6.59699C6.52931 6.59766 6.52131 6.60199 6.50398 6.61199L6.56998 6.74599ZM6.33298 6.79399C6.41401 6.79442 6.49429 6.77843 6.56898 6.74699L6.50398 6.61199C6.45032 6.63493 6.3923 6.64585 6.33398 6.64399L6.33298 6.79399ZM6.09798 6.74699C6.17235 6.7783 6.25228 6.79429 6.33298 6.79399L6.33398 6.64399C6.27565 6.64585 6.21663 6.63493 6.16298 6.61199L6.09798 6.74699ZM6.02598 6.69599C6.04331 6.71599 6.06731 6.73266 6.09798 6.74599L6.16298 6.61199C6.14564 6.60266 6.13764 6.59766 6.13898 6.59699L6.02598 6.69599ZM6.00598 6.66599C6.01131 6.67599 6.01798 6.68599 6.02598 6.69599L6.13898 6.59699L6.14498 6.60699L6.00598 6.66599ZM5.99998 6.63399C5.99998 6.64399 6.00131 6.65466 6.00598 6.66599L6.14498 6.60699L6.14998 6.63399H5.99998ZM7.43098 6.52099C7.50566 6.48955 7.58594 6.47356 7.66698 6.47399V6.32399C7.5637 6.32194 7.46025 6.34277 7.36598 6.38499L7.43098 6.52099ZM7.33298 6.63399C7.33298 6.58999 7.36998 6.54999 7.43098 6.52099L7.36598 6.38499C7.29298 6.42099 7.18298 6.49899 7.18298 6.63399H7.33298ZM7.43098 6.74699C7.37098 6.71699 7.33298 6.67699 7.33298 6.63399H7.18298C7.18298 6.76899 7.29298 6.84699 7.36598 6.88199L7.43098 6.74699ZM7.66698 6.79399C7.58594 6.79442 7.50566 6.77843 7.43098 6.74699L7.36598 6.88199C7.45098 6.92199 7.55698 6.94399 7.66598 6.94399L7.66698 6.79399ZM7.90198 6.74699C7.8276 6.7783 7.74767 6.79429 7.66698 6.79399L7.66598 6.94399C7.77598 6.94399 7.88298 6.92299 7.96698 6.88199L7.90198 6.74699ZM7.99998 6.63399C7.99998 6.67799 7.96298 6.71799 7.90198 6.74699L7.96698 6.88199C8.04098 6.84699 8.14998 6.76899 8.14998 6.63399H7.99998ZM7.90198 6.52099C7.96298 6.54999 7.99998 6.58999 7.99998 6.63399H8.14998C8.14998 6.49899 8.03998 6.42099 7.96698 6.38499L7.90198 6.52099ZM7.66698 6.47399C7.74767 6.47369 7.8276 6.48968 7.90198 6.52099L7.96698 6.38499C7.8727 6.34277 7.77025 6.32194 7.66698 6.32399V6.47399ZM7.33998 6.59999C7.33579 6.61051 7.33342 6.62267 7.33298 6.63399L7.48298 6.63299L7.47798 6.65899L7.33998 6.59999ZM7.35998 6.57099C7.35155 6.5797 7.34477 6.58886 7.33998 6.59999L7.47798 6.65899L7.47198 6.66999L7.35998 6.57099ZM7.43098 6.52099C7.40393 6.53226 7.37969 6.54933 7.35998 6.57099L7.47198 6.66999C7.47064 6.66932 7.47864 6.66532 7.49598 6.65599L7.43098 6.52099ZM7.66698 6.47399C7.58594 6.47356 7.50566 6.48955 7.43098 6.52099L7.49598 6.65599C7.54963 6.63305 7.60765 6.62113 7.66598 6.62299L7.66698 6.47399ZM7.90198 6.52099C7.8276 6.48968 7.74767 6.47369 7.66698 6.47399L7.66598 6.62299C7.73998 6.62299 7.80198 6.63799 7.83698 6.65499L7.90198 6.52099ZM7.97398 6.56999C7.95397 6.5482 7.92938 6.53213 7.90198 6.52099L7.83798 6.65599C7.85531 6.66532 7.86298 6.67032 7.86098 6.67099L7.97398 6.56999ZM7.99398 6.59999C7.98918 6.58886 7.9824 6.5787 7.97398 6.56999L7.86098 6.67099L7.85498 6.66099L7.99398 6.59999ZM7.99998 6.63499C7.99953 6.62367 7.99716 6.61252 7.99298 6.60199L7.85498 6.66199L7.84998 6.63499H7.99998ZM7.99298 6.66699C7.99716 6.65647 7.99953 6.64531 7.99998 6.63399H7.84998L7.85498 6.60699L7.99298 6.66699ZM7.97298 6.69699C7.9814 6.68829 7.98818 6.67812 7.99298 6.66699L7.85498 6.60699L7.86098 6.59699L7.97298 6.69699ZM7.90198 6.74699C7.92866 6.7356 7.95355 6.71854 7.97298 6.69699L7.86098 6.59699C7.86231 6.59766 7.85464 6.60199 7.83798 6.61199L7.90198 6.74699ZM7.66698 6.79399C7.74767 6.79429 7.8276 6.7783 7.90198 6.74699L7.83798 6.61199C7.78401 6.63507 7.72563 6.647 7.66698 6.64499V6.79399ZM7.43098 6.74699C7.50566 6.77843 7.58594 6.79442 7.66698 6.79399V6.64499C7.60832 6.647 7.54994 6.63507 7.49598 6.61199L7.43098 6.74699ZM7.35998 6.69599C7.37598 6.71599 7.39964 6.73366 7.43098 6.74699L7.49598 6.61199C7.47864 6.60266 7.47064 6.59866 7.47198 6.59799L7.35998 6.69599ZM7.33998 6.66599C7.34464 6.67599 7.35131 6.68599 7.35998 6.69599L7.47198 6.59799L7.47798 6.60799L7.33998 6.66599ZM7.33298 6.63499C7.33298 6.64499 7.33531 6.65466 7.33998 6.66599L7.47798 6.60799L7.48298 6.63499H7.33298Z" fill="#984111"/>
</g>
</g>
<defs>
<clipPath id="clip0_42_588">
<rect width="32" height="24" fill="white"/>
</clipPath>
</defs>
</svg>
