<svg width="32" height="24" viewBox="0 0 32 24" fill="none" xmlns="http://www.w3.org/2000/svg">
<g clip-path="url(#clip0_42_47)">
<path fill-rule="evenodd" clip-rule="evenodd" d="M0 0V24H32V0H0Z" fill="#FFB400"/>
<mask id="mask0_42_47" style="mask-type:luminance" maskUnits="userSpaceOnUse" x="0" y="0" width="32" height="24">
<path fill-rule="evenodd" clip-rule="evenodd" d="M0 0V24H32V0H0Z" fill="white"/>
</mask>
<g mask="url(#mask0_42_47)">
<path fill-rule="evenodd" clip-rule="evenodd" d="M0 0V6H32V0H0ZM0 18V24H32V18H0Z" fill="#C51918"/>
<path d="M5.00806 10.272H6.12806V16.096H5.00806V10.272Z" fill="#F1F9FF"/>
<path fill-rule="evenodd" clip-rule="evenodd" d="M6.57606 9.26404H4.56006V9.82404H4.89606V10.272H6.24006V9.82404H6.57606V9.26404ZM6.24006 16.432H6.57606V16.992H4.56006V16.432H4.89606V15.984H6.24006V16.432Z" fill="#C88A02"/>
<path fill-rule="evenodd" clip-rule="evenodd" d="M5.56806 9.37604C5.81206 9.37604 5.83706 9.28404 5.98006 9.14704C6.09206 9.04104 6.35206 8.90904 6.35206 8.76004C6.35206 8.42004 6.00106 8.14404 5.56806 8.14404C5.13506 8.14404 4.78406 8.42004 4.78406 8.76004C4.78406 8.92604 4.96406 9.03604 5.09906 9.14704C5.24106 9.26404 5.34506 9.37604 5.56806 9.37604Z" fill="#AD1619"/>
<path fill-rule="evenodd" clip-rule="evenodd" d="M4.56006 16.9919H6.57606V17.8879C6.57606 17.8879 6.32406 17.7759 6.07206 17.7759C5.82006 17.7759 5.56806 17.8879 5.56806 17.8879C5.56806 17.8879 5.31606 17.7759 5.06406 17.7759C4.81206 17.7759 4.56006 17.8879 4.56006 17.8879V16.9919Z" fill="#005BBF"/>
<mask id="mask1_42_47" style="mask-type:luminance" maskUnits="userSpaceOnUse" x="4" y="16" width="3" height="2">
<path fill-rule="evenodd" clip-rule="evenodd" d="M4.56006 16.9919H6.57606V17.8879C6.57606 17.8879 6.32406 17.7759 6.07206 17.7759C5.82006 17.7759 5.56806 17.8879 5.56806 17.8879C5.56806 17.8879 5.31606 17.7759 5.06406 17.7759C4.81206 17.7759 4.56006 17.8879 4.56006 17.8879V16.9919Z" fill="white"/>
</mask>
<g mask="url(#mask1_42_47)">
<path d="M4.54205 17.712L4.49805 17.605C4.67938 17.5236 4.86138 17.483 5.04405 17.483C5.16205 17.483 5.22405 17.5 5.32805 17.546C5.4023 17.5837 5.4848 17.6022 5.56805 17.6C5.6513 17.6022 5.73379 17.5837 5.80805 17.546C5.89641 17.5018 5.99431 17.4802 6.09305 17.483C6.27505 17.483 6.45705 17.5236 6.63905 17.605L6.59505 17.712C6.43777 17.6388 6.26651 17.6006 6.09305 17.6C6.0098 17.5977 5.9273 17.6163 5.85305 17.654C5.76468 17.6981 5.66678 17.7197 5.56805 17.717C5.46965 17.7196 5.37211 17.6979 5.28405 17.654C5.20979 17.6163 5.1273 17.5977 5.04405 17.6C4.87738 17.6 4.71005 17.6373 4.54205 17.712ZM4.54205 17.376L4.49805 17.269C4.67938 17.1876 4.86138 17.147 5.04405 17.147C5.16205 17.147 5.22405 17.164 5.32805 17.21C5.4023 17.2477 5.4848 17.2662 5.56805 17.264C5.6513 17.2662 5.73379 17.2477 5.80805 17.21C5.89641 17.1658 5.99431 17.1442 6.09305 17.147C6.27505 17.147 6.45705 17.1876 6.63905 17.269L6.59505 17.376C6.43777 17.3028 6.26651 17.2646 6.09305 17.264C6.0098 17.2617 5.9273 17.2803 5.85305 17.318C5.76468 17.3621 5.66678 17.3837 5.56805 17.381C5.46965 17.3836 5.37211 17.3619 5.28405 17.318C5.20979 17.2803 5.1273 17.2617 5.04405 17.264C4.87738 17.264 4.71005 17.3013 4.54205 17.376Z" fill="white"/>
</g>
<path d="M15.984 10.272H17.104V16.096H15.984V10.272Z" fill="#F1F9FF"/>
<path fill-rule="evenodd" clip-rule="evenodd" d="M17.552 9.26404H15.536V9.82404H15.872V10.272H17.216V9.82404H17.552V9.26404ZM17.216 16.432H17.552V16.992H15.536V16.432H15.872V15.984H17.216V16.432Z" fill="#C88A02"/>
<path fill-rule="evenodd" clip-rule="evenodd" d="M16.544 9.37604C16.788 9.37604 16.812 9.28404 16.956 9.14704C17.068 9.04104 17.328 8.90904 17.328 8.76004C17.328 8.42004 16.977 8.14404 16.544 8.14404C16.111 8.14404 15.76 8.42004 15.76 8.76004C15.76 8.92604 15.94 9.03604 16.075 9.14704C16.217 9.26404 16.322 9.37604 16.544 9.37604Z" fill="#AD1619"/>
<path fill-rule="evenodd" clip-rule="evenodd" d="M15.536 16.9919H17.552V17.8879C17.552 17.8879 17.3 17.7759 17.048 17.7759C16.796 17.7759 16.544 17.8879 16.544 17.8879C16.544 17.8879 16.292 17.7759 16.04 17.7759C15.788 17.7759 15.536 17.8879 15.536 17.8879V16.9919Z" fill="#005BBF"/>
<mask id="mask2_42_47" style="mask-type:luminance" maskUnits="userSpaceOnUse" x="15" y="16" width="3" height="2">
<path fill-rule="evenodd" clip-rule="evenodd" d="M15.536 16.9919H17.552V17.8879C17.552 17.8879 17.3 17.7759 17.048 17.7759C16.796 17.7759 16.544 17.8879 16.544 17.8879C16.544 17.8879 16.292 17.7759 16.04 17.7759C15.788 17.7759 15.536 17.8879 15.536 17.8879V16.9919Z" fill="white"/>
</mask>
<g mask="url(#mask2_42_47)">
<path d="M15.518 17.712L15.474 17.605C15.6553 17.5236 15.8373 17.483 16.02 17.483C16.138 17.483 16.2 17.5 16.304 17.546C16.3783 17.5837 16.4608 17.6022 16.544 17.6C16.6272 17.6022 16.7097 17.5837 16.784 17.546C16.8724 17.5018 16.9703 17.4802 17.069 17.483C17.251 17.483 17.433 17.5236 17.615 17.605L17.571 17.712C17.4137 17.6388 17.2425 17.6006 17.069 17.6C16.9858 17.5977 16.9033 17.6163 16.829 17.654C16.7406 17.6981 16.6427 17.7197 16.544 17.717C16.4456 17.7196 16.3481 17.6979 16.26 17.654C16.1857 17.6163 16.1032 17.5977 16.02 17.6C15.8533 17.6 15.686 17.6373 15.518 17.712ZM15.518 17.376L15.474 17.269C15.6553 17.1876 15.8373 17.147 16.02 17.147C16.138 17.147 16.2 17.164 16.304 17.21C16.3783 17.2477 16.4608 17.2662 16.544 17.264C16.6272 17.2662 16.7097 17.2477 16.784 17.21C16.8724 17.1658 16.9703 17.1442 17.069 17.147C17.251 17.147 17.433 17.1876 17.615 17.269L17.571 17.376C17.4137 17.3028 17.2425 17.2646 17.069 17.264C16.9858 17.2617 16.9033 17.2803 16.829 17.318C16.7406 17.3621 16.6427 17.3837 16.544 17.381C16.4456 17.3836 16.3481 17.3619 16.26 17.318C16.1857 17.2803 16.1032 17.2617 16.02 17.264C15.8533 17.264 15.686 17.3013 15.518 17.376Z" fill="white"/>
</g>
<path fill-rule="evenodd" clip-rule="evenodd" d="M4.98798 15.68C5.18998 15.435 5.30298 15.212 5.30298 14.976C5.30522 14.8384 5.26237 14.7039 5.18098 14.593L5.19398 14.587C5.19298 14.587 5.41498 14.49 5.49298 14.453C5.63121 14.3874 5.76339 14.3098 5.88798 14.221C5.96698 14.163 6.07298 14.101 6.23398 14.014L6.38598 13.934L6.42698 13.911C6.50498 13.87 6.56398 13.838 6.61798 13.806C6.78798 13.708 6.89898 13.626 6.98498 13.518C7.03436 13.4595 7.07061 13.391 7.09129 13.3173C7.11196 13.2436 7.11658 13.1663 7.10482 13.0907C7.09307 13.0151 7.06522 12.9428 7.02315 12.8789C6.98108 12.8149 6.92578 12.7607 6.86098 12.72C6.72198 12.625 6.53498 12.571 6.25998 12.528L6.20298 12.52L5.51298 12.41C6.20098 12.295 7.18398 12.337 7.61698 12.56L8.02698 11.764C7.14698 11.309 5.13798 11.355 4.38798 11.872C3.83798 12.251 3.91198 12.824 4.48398 13.07C4.72398 13.173 5.03498 13.242 5.61198 13.334C5.52567 13.3838 5.4419 13.4378 5.36098 13.496C5.28079 13.5537 5.19543 13.6039 5.10598 13.646L4.85598 13.757L4.82298 13.771C4.35698 13.983 4.12998 14.276 4.19798 14.806L4.23498 15.093L4.29998 15.113L4.98798 15.68ZM16.706 14.976C16.706 15.212 16.819 15.436 17.021 15.68L17.709 15.113L17.774 15.093L17.811 14.806C17.878 14.276 17.652 13.983 17.186 13.771L17.154 13.757C17.09 13.729 16.95 13.667 16.904 13.645C16.8142 13.6033 16.7285 13.5534 16.648 13.496C16.5667 13.4378 16.4826 13.3837 16.396 13.334C16.973 13.242 17.286 13.174 17.524 13.07C18.097 12.824 18.171 12.25 17.62 11.872C16.87 11.355 14.862 11.309 13.98 11.764L14.392 12.56C14.825 12.337 15.808 12.295 16.496 12.41C16.392 12.428 16.274 12.447 16.142 12.467L15.806 12.52L15.749 12.528C15.474 12.571 15.286 12.626 15.148 12.72C15.0832 12.7607 15.0279 12.8149 14.9858 12.8789C14.9437 12.9428 14.9159 13.0151 14.9041 13.0907C14.8924 13.1663 14.897 13.2436 14.9177 13.3173C14.9383 13.391 14.9746 13.4595 15.024 13.518C15.11 13.627 15.222 13.708 15.391 13.806C15.445 13.838 15.503 13.87 15.581 13.911L15.623 13.933L15.775 14.013C15.936 14.101 16.042 14.163 16.121 14.221C16.245 14.311 16.371 14.384 16.516 14.453C16.594 14.49 16.816 14.587 16.815 14.587L16.828 14.593C16.7466 14.7039 16.7037 14.8384 16.706 14.976Z" fill="#AD1619"/>
<path d="M5.92306 12.4L6.25406 12.468V12.961C5.90206 13.242 5.00806 13.716 5.00806 13.716V12.4H5.92306ZM16.3151 12.4L15.9841 12.468V12.961C16.3361 13.242 17.2301 13.716 17.2301 13.716V12.4H16.3151Z" fill="#F1F9FF"/>
<path fill-rule="evenodd" clip-rule="evenodd" d="M14.776 7.20604V7.04204C14.2 6.62871 13.5967 6.42204 12.966 6.42204C12.3923 6.15898 11.7595 6.05138 11.131 6.11004V6.10704C10.201 6.01704 9.26203 6.42204 9.26203 6.42204C8.31603 6.42204 7.45203 7.04204 7.45203 7.04204V7.20604L8.58203 8.34004C8.58203 8.34004 8.90003 9.43204 11.127 9.17604V9.17904C11.127 9.17904 12.601 9.13904 12.704 9.10404L12.832 9.06504C13.121 8.98104 13.45 8.88504 13.646 8.34004L14.776 7.20604ZM11.126 6.16104C11.094 6.53804 10.911 8.81504 11.126 9.16804V6.16104Z" fill="#AD1619"/>
<path fill-rule="evenodd" clip-rule="evenodd" d="M8.31402 8.14996V8.14596L7.52002 7.39796L7.59702 7.31696L8.34202 8.01796L8.36202 7.93096C8.44765 7.95249 8.53574 7.96257 8.62402 7.96096V7.80996L8.79002 7.89996C8.87135 7.9453 8.98802 7.9553 9.14002 7.92996C9.25402 7.91196 9.33002 7.78096 9.35402 7.50296L9.40402 6.93996L9.57302 7.47996C9.64902 7.72296 9.76502 7.82996 9.93102 7.82996C10.092 7.82996 10.157 7.77196 10.164 7.62196L10.184 7.19896L10.376 7.57696C10.445 7.71296 10.54 7.77496 10.676 7.77496C10.869 7.77496 10.998 7.61396 10.998 7.36096H11.226C11.226 7.61396 11.355 7.77496 11.548 7.77496C11.684 7.77496 11.778 7.71296 11.848 7.57696L12.039 7.19896L12.059 7.62196C12.067 7.77196 12.132 7.83096 12.293 7.83096C12.459 7.83096 12.575 7.72296 12.651 7.47896L12.819 6.93896L12.869 7.50296C12.894 7.78096 12.97 7.91296 13.083 7.93096C13.2364 7.95496 13.3534 7.94463 13.434 7.89996L13.599 7.80996V7.96196C13.688 7.96375 13.7767 7.95366 13.863 7.93196L13.898 8.09496L14.723 7.31796L14.8 7.39896L13.773 8.36596C13.623 8.64196 13.547 8.82396 13.547 8.89996C13.547 9.01496 13.247 9.08396 12.661 9.15396C12.201 9.20896 11.66 9.24596 11.216 9.25196H11.104C10.621 9.24425 10.1387 9.21154 9.65902 9.15396C9.07302 9.08396 8.77202 9.01496 8.77202 8.89996C8.77183 8.88168 8.76914 8.86351 8.76402 8.84596C8.70231 8.75156 8.65889 8.64641 8.63602 8.53596L8.54702 8.36596L8.31902 8.15197L8.31402 8.14996ZM13.819 8.16796C13.636 8.19996 13.503 8.19697 13.433 8.13997C13.3066 8.17119 13.1749 8.1746 13.047 8.14996C12.89 8.12496 12.78 8.01996 12.714 7.84696C12.6364 7.95398 12.5195 8.02589 12.389 8.04696C13.106 8.14696 13.608 8.29097 13.608 8.29097C13.608 8.29097 13.596 8.39696 13.566 8.52096C13.598 8.4563 13.6357 8.38396 13.679 8.30396L13.689 8.28996L13.819 8.16796ZM12.051 8.00396C11.99 7.97414 11.9387 7.92769 11.903 7.86996C11.8503 7.91674 11.7883 7.95184 11.721 7.97296C11.8344 7.98163 11.9444 7.99263 12.051 8.00396ZM11.326 7.94996C11.238 7.90937 11.1636 7.84406 11.112 7.76196C11.0608 7.84339 10.9872 7.90832 10.9 7.94896L11.054 7.94596H11.144C11.2054 7.94596 11.266 7.9473 11.326 7.94996ZM8.62202 8.27996L8.51802 8.18296C8.64402 8.1963 8.73502 8.18163 8.79102 8.13896C8.90102 8.17096 9.02969 8.1743 9.17702 8.14896C9.33402 8.12396 9.44402 8.01896 9.50902 7.84596C9.58458 7.94944 9.69698 8.01995 9.82302 8.04296C9.20502 8.12996 8.74402 8.24796 8.62302 8.28096M10.499 7.97096C10.3897 7.97896 10.2837 7.98863 10.181 7.99996C10.2385 7.97003 10.2869 7.92512 10.321 7.86996C10.3744 7.91663 10.4337 7.9503 10.499 7.97096ZM13.254 8.90096C13.333 8.93796 13.395 8.90097 13.445 8.83097L13.437 8.88396L13.407 8.89896C13.3532 8.91972 13.2976 8.93578 13.241 8.94696C13.0454 8.98848 12.8478 9.02018 12.649 9.04196C12.174 9.09896 11.609 9.13696 11.161 9.13896C10.6636 9.13309 10.1669 9.10071 9.67302 9.04196C9.47423 9.02018 9.27665 8.98848 9.08102 8.94696C9.03107 8.93739 8.98193 8.92402 8.93402 8.90696L8.94602 8.90096C9.19102 8.78696 10.809 8.67896 11.1 8.66096C11.391 8.67896 13.01 8.78696 13.254 8.90096Z" fill="#C88A02"/>
<path fill-rule="evenodd" clip-rule="evenodd" d="M11.112 5.34705C11.2011 5.34705 11.2866 5.31165 11.3496 5.24864C11.4126 5.18562 11.448 5.10016 11.448 5.01105C11.448 4.92194 11.4126 4.83647 11.3496 4.77346C11.2866 4.71045 11.2011 4.67505 11.112 4.67505C11.0229 4.67505 10.9374 4.71045 10.8744 4.77346C10.8114 4.83647 10.776 4.92194 10.776 5.01105C10.776 5.10016 10.8114 5.18562 10.8744 5.24864C10.9374 5.31165 11.0229 5.34705 11.112 5.34705Z" fill="#005BBF"/>
<path fill-rule="evenodd" clip-rule="evenodd" d="M10.8941 6.99703C10.9001 7.03231 10.9109 7.06661 10.9261 7.09903C10.8782 7.0805 10.8273 7.07133 10.7761 7.07203C10.6211 7.07203 10.4961 7.14803 10.4961 7.24003C10.4961 7.33203 10.6211 7.40803 10.7761 7.40803C10.9311 7.40803 11.0561 7.33303 11.0561 7.24003C11.0561 7.33303 11.1821 7.40803 11.3361 7.40803C11.4901 7.40803 11.6161 7.33303 11.6161 7.24003C11.6161 7.14803 11.4911 7.07203 11.3361 7.07203C11.299 7.0726 11.2621 7.0773 11.2261 7.08603C11.2352 7.03537 11.2346 6.98342 11.2241 6.93303C11.1941 6.78103 11.0961 6.67303 11.0051 6.69003C10.9151 6.70803 10.8651 6.84503 10.8941 6.99703ZM9.24606 7.21003C9.23184 7.17759 9.22112 7.14373 9.21406 7.10903C9.18406 6.95703 9.23406 6.81903 9.32506 6.80203C9.41606 6.78503 9.51506 6.89203 9.54406 7.04503C9.55339 7.10036 9.55406 7.15136 9.54606 7.19803C9.58209 7.1893 9.61898 7.1846 9.65606 7.18403C9.81106 7.18403 9.93606 7.26003 9.93606 7.35203C9.93606 7.44403 9.81106 7.52003 9.65606 7.52003C9.50106 7.52003 9.37606 7.44503 9.37606 7.35203C9.37606 7.44503 9.25106 7.52003 9.09606 7.52003C8.94106 7.52003 8.81606 7.44503 8.81606 7.35203C8.81606 7.26003 8.94106 7.18403 9.09606 7.18403C9.15206 7.18403 9.20206 7.19203 9.24606 7.21003ZM12.7541 7.31403C12.7411 7.40603 12.6071 7.46303 12.4541 7.44103C12.3001 7.42003 12.1871 7.32803 12.1991 7.23603C12.2111 7.14403 12.3471 7.08703 12.5001 7.10903C12.5509 7.11494 12.6001 7.13056 12.6451 7.15503C12.6344 7.12099 12.6283 7.08567 12.6271 7.05003C12.6191 6.89603 12.6871 6.76703 12.7801 6.76203C12.8731 6.75703 12.9551 6.87803 12.9631 7.03203C12.9667 7.08378 12.9603 7.13574 12.9441 7.18503C12.9807 7.18164 13.0176 7.18232 13.0541 7.18703C13.2081 7.20803 13.3221 7.30003 13.3091 7.39203C13.2961 7.48403 13.1611 7.54103 13.0081 7.51903C12.8551 7.49703 12.7411 7.40603 12.7541 7.31403ZM13.8201 7.75803C13.9571 7.83103 14.1031 7.82303 14.1461 7.74103L14.1491 7.73703C14.1616 7.75128 14.1779 7.76168 14.1961 7.76703C14.2861 7.79403 14.3941 7.69703 14.4391 7.54803C14.4841 7.40003 14.4491 7.25803 14.3601 7.23103C14.2711 7.20403 14.1631 7.30203 14.1181 7.45003C14.1077 7.48421 14.101 7.51941 14.0981 7.55503C14.0644 7.51665 14.0236 7.48508 13.9781 7.46203C13.8421 7.38903 13.6961 7.39703 13.6521 7.47803C13.6091 7.56003 13.6841 7.68603 13.8201 7.75803ZM8.32506 7.79303C8.18806 7.86503 8.04206 7.85803 7.99906 7.77603L7.99706 7.77103C7.98428 7.78544 7.96761 7.79586 7.94906 7.80103C7.86006 7.82803 7.75206 7.73103 7.70606 7.58303C7.66006 7.43503 7.69606 7.29303 7.78606 7.26603C7.87406 7.23903 7.98306 7.33603 8.02806 7.48403C8.03812 7.51825 8.04449 7.55345 8.04706 7.58903C8.08075 7.55065 8.12149 7.51908 8.16706 7.49603C8.30406 7.42303 8.45006 7.43103 8.49306 7.51303C8.53606 7.59503 8.46106 7.72003 8.32506 7.79303ZM10.9871 4.07703H11.2201V4.22403H11.3731V4.45703H11.2201V4.92403H11.3731V5.15703H10.8321V4.92403H10.9871V4.45703H10.8321V4.22403H10.9871V4.07703Z" fill="#C88A02"/>
<path d="M10.944 5.34399H11.392V6.79999H10.944V5.34399Z" fill="#C88A02"/>
<path d="M9.14 5.58797V5.69997C8.147 5.68197 7.577 5.82697 7.432 6.11597C7.282 6.41397 7.31133 6.7783 7.52 7.20897L7.42 7.25897C7.19533 6.79697 7.166 6.3993 7.332 6.06597C7.504 5.72297 8.107 5.56997 9.142 5.58797" fill="white"/>
<path d="M9.33305 6.58106L9.27505 6.67706C9.05905 6.54806 8.95105 6.32706 8.95105 6.02406C8.95105 5.58706 9.17605 5.33206 9.67305 5.15606C9.99038 5.04539 10.4244 5.09006 10.975 5.29006L10.937 5.39506C10.4084 5.20439 9.99938 5.16006 9.71005 5.26206C9.25405 5.42206 9.06305 5.64006 9.06305 6.02406C9.06305 6.28939 9.15305 6.47506 9.33305 6.58106Z" fill="white"/>
<path d="M7.66 7.03703L7.449 7.11203C7.229 6.48703 7.292 6.06303 7.667 5.88003C7.99634 5.72003 8.47834 5.65336 9.113 5.68003L9.103 5.90303C8.503 5.8797 8.057 5.93936 7.765 6.08203C7.519 6.20203 7.474 6.50703 7.66 7.03703Z" fill="#C88A02"/>
<path d="M10.1299 5.43897C9.61694 5.43897 9.40694 5.56297 9.28694 5.93197C9.20994 6.16597 9.28394 6.36697 9.52494 6.55397L9.38794 6.73097C9.07594 6.48897 8.96594 6.19197 9.07394 5.86197C9.22694 5.39197 9.52694 5.21497 10.1289 5.21497C10.5249 5.2143 10.8303 5.31897 11.0449 5.52897L11.0789 5.56197V6.64197H10.8549V5.65797C10.6883 5.51197 10.4463 5.43864 10.1289 5.43797" fill="#C88A02"/>
<path d="M13.05 5.70003L13.051 5.81203C14.044 5.79403 14.614 5.93903 14.758 6.22803C14.9086 6.52669 14.8796 6.89103 14.6709 7.32103L14.771 7.37103C14.995 6.90969 15.0243 6.51203 14.859 6.17803C14.687 5.83503 14.084 5.68203 13.049 5.70003" fill="white"/>
<path d="M12.698 6.60396L12.756 6.69996C12.972 6.57096 13.08 6.34996 13.08 6.04696C13.08 5.61096 12.855 5.35496 12.358 5.17996C12.0414 5.06863 11.6074 5.11296 11.056 5.31296L11.094 5.41896C11.624 5.22763 12.033 5.18296 12.321 5.28496C12.777 5.44496 12.968 5.66396 12.968 6.04696C12.968 6.31396 12.878 6.49696 12.698 6.60396Z" fill="white"/>
<path d="M14.6 7.14997L14.81 7.22397C15.03 6.59897 14.967 6.17497 14.593 5.99197C14.263 5.83197 13.781 5.7653 13.147 5.79197L13.156 6.01497C13.7566 5.99164 14.2026 6.0513 14.494 6.19397C14.741 6.31397 14.786 6.61897 14.599 7.14897" fill="#C88A02"/>
<path d="M12.117 5.45606C12.63 5.45606 12.84 5.58106 12.96 5.94906C13.037 6.18406 12.962 6.38406 12.721 6.57106L12.859 6.74806C13.171 6.50606 13.281 6.20906 13.173 5.88006C13.02 5.41006 12.719 5.23206 12.117 5.23206C11.7216 5.23206 11.4163 5.33706 11.201 5.54706L11.168 5.58006V6.66006H11.392V5.67506C11.5586 5.52972 11.8003 5.45672 12.117 5.45606Z" fill="#C88A02"/>
<path opacity="0.3" fill-rule="evenodd" clip-rule="evenodd" d="M7.47205 9.26404H14.752V15.804C14.752 15.804 14.212 18 11.112 18C8.01205 18 7.47205 15.747 7.47205 15.747V9.26404Z" fill="#E1E5E8"/>
<mask id="mask3_42_47" style="mask-type:luminance" maskUnits="userSpaceOnUse" x="7" y="9" width="8" height="9">
<path fill-rule="evenodd" clip-rule="evenodd" d="M7.47205 9.26404H14.752V15.804C14.752 15.804 14.212 18 11.112 18C8.01205 18 7.47205 15.747 7.47205 15.747V9.26404Z" fill="white"/>
</mask>
<g mask="url(#mask3_42_47)">
<path d="M7.47205 13.2961H11.168V17.6641H7.47205V13.2961Z" fill="#FFC034"/>
<path d="M7.92005 13.5201H8.36805V17.6641H7.92005V13.5201ZM9.48805 13.5201H9.93605V17.6641H9.48805V13.5201ZM8.70405 13.5201H9.15205V17.6641H8.70405V13.5201ZM10.272 13.5201H10.72V17.6641H10.272V13.5201ZM7.47205 9.1521H11.168V13.4081H7.47205V9.1521Z" fill="#AD1619"/>
<path d="M11.056 13.1841H14.752V17.4401H11.056V13.1841Z" fill="#AD1619"/>
<path d="M11.056 9.26416H14.976V13.4082H11.056V9.26416Z" fill="#F1F9FF"/>
<path fill-rule="evenodd" clip-rule="evenodd" d="M9.0401 9.6001H9.3761V10.5301H9.6001V10.0651H9.9361V10.5291H10.2721V11.1091H9.9361V12.1551H10.2721V12.7361H8.2561V12.1561H8.5921V11.1101H8.2561V10.5301H8.4801V10.0651H8.8161V10.5291H9.0401V9.6001Z" fill="#C88A02"/>
<path d="M12.979 9.79505L13.209 9.55005L13.689 10L13.46 10.245L12.979 9.79505Z" fill="#C88A02"/>
<path fill-rule="evenodd" clip-rule="evenodd" d="M14.3601 16.1401V13.6881H11.5601V16.1201L11.5651 16.1381C11.7061 16.7421 12.1891 17.0481 12.9601 17.0481C13.7301 17.0481 14.2131 16.7501 14.3551 16.1601L14.3601 16.1401ZM12.9601 16.7121C12.3411 16.7121 12.0031 16.5041 11.8961 16.0801V14.0241H14.0241V16.0991C13.9171 16.5091 13.5791 16.7121 12.9601 16.7121Z" fill="#FFC034"/>
<path fill-rule="evenodd" clip-rule="evenodd" d="M13.0761 13.8931H12.8421V15.0051L11.9221 14.0051L11.7581 14.1551L12.5891 15.0611H11.8361V15.3961H12.6081L11.7581 16.3211L11.9231 16.4731L12.8431 15.4731V16.7721H13.0761V15.5891L13.8881 16.4731L14.0531 16.3211L13.2031 15.3961H14.1521V15.0601H13.2211L14.0531 14.1561L13.8881 14.0041L13.0761 14.8881V13.8931Z" fill="#FFC034"/>
<path fill-rule="evenodd" clip-rule="evenodd" d="M13.4831 17.4431C13.4831 17.4431 11.1111 17.6291 11.1111 16.0991C11.1111 16.0991 11.0881 17.4431 8.61108 17.4431V18.6501H13.4831V17.4431Z" fill="#F1F9FF"/>
<path fill-rule="evenodd" clip-rule="evenodd" d="M11.1121 14.1921C11.5761 14.1921 11.9521 13.7911 11.9521 13.2961C11.9521 12.8011 11.5761 12.4001 11.1121 12.4001C10.6481 12.4001 10.2721 12.8011 10.2721 13.2961C10.2721 13.7911 10.6481 14.1921 11.1121 14.1921Z" fill="#005BBF" stroke="#AD1619" stroke-width="1.167"/>
</g>
</g>
</g>
<defs>
<clipPath id="clip0_42_47">
<rect width="32" height="24" fill="white"/>
</clipPath>
</defs>
</svg>
